ISO-10303-21;
HEADER;
FILE_DESCRIPTION(('Open CASCADE Model'),'2;1');
FILE_NAME('Open CASCADE Shape Model','2026-03-23T12:34:33',('Author'),(
    'Open CASCADE'),'Open CASCADE STEP processor 7.8','Open CASCADE 7.8'
  ,'Unknown');
FILE_SCHEMA(('AUTOMOTIVE_DESIGN { 1 0 10303 214 1 1 1 1 }'));
ENDSEC;
DATA;
#1 = APPLICATION_PROTOCOL_DEFINITION('international standard',
  'automotive_design',2000,#2);
#2 = APPLICATION_CONTEXT(
  'core data for automotive mechanical design processes');
#3 = SHAPE_DEFINITION_REPRESENTATION(#4,#10);
#4 = PRODUCT_DEFINITION_SHAPE('','',#5);
#5 = PRODUCT_DEFINITION('design','',#6,#9);
#6 = PRODUCT_DEFINITION_FORMATION('','',#7);
#7 = PRODUCT('Open CASCADE STEP translator 7.8 1',
  'Open CASCADE STEP translator 7.8 1','',(#8));
#8 = PRODUCT_CONTEXT('',#2,'mechanical');
#9 = PRODUCT_DEFINITION_CONTEXT('part definition',#2,'design');
#10 = MANIFOLD_SURFACE_SHAPE_REPRESENTATION('',(#11,#15),#489);
#11 = AXIS2_PLACEMENT_3D('',#12,#13,#14);
#12 = CARTESIAN_POINT('',(0.,0.,0.));
#13 = DIRECTION('',(0.,0.,1.));
#14 = DIRECTION('',(1.,0.,-0.));
#15 = SHELL_BASED_SURFACE_MODEL('',(#16));
#16 = CLOSED_SHELL('',(#17,#248,#349,#425,#454,#482));
#17 = ADVANCED_FACE('',(#18),#34,.T.);
#18 = FACE_BOUND('',#19,.T.);
#19 = EDGE_LOOP('',(#20,#99,#150,#200));
#20 = ORIENTED_EDGE('',*,*,#21,.F.);
#21 = EDGE_CURVE('',#22,#24,#26,.T.);
#22 = VERTEX_POINT('',#23);
#23 = CARTESIAN_POINT('',(-0.57735026919,-0.57735026919,-0.57735026919)
  );
#24 = VERTEX_POINT('',#25);
#25 = CARTESIAN_POINT('',(0.57735026919,-0.57735026919,-0.57735026919));
#26 = SURFACE_CURVE('',#27,(#33,#66),.PCURVE_S1.);
#27 = ( BOUNDED_CURVE() B_SPLINE_CURVE(4,(#28,#29,#30,#31,#32),
.UNSPECIFIED.,.F.,.F.) B_SPLINE_CURVE_WITH_KNOTS((5,5),(0.,1.),
.PIECEWISE_BEZIER_KNOTS.) CURVE() GEOMETRIC_REPRESENTATION_ITEM() 
RATIONAL_B_SPLINE_CURVE((5.071796769724,4.520042103603,4.357265589908,
4.520042103603,5.071796769724)) REPRESENTATION_ITEM('') );
#28 = CARTESIAN_POINT('',(-0.57735026919,-0.57735026919,-0.57735026919)
  );
#29 = CARTESIAN_POINT('',(-0.312876192292,-0.709587307639,
    -0.709587307639));
#30 = CARTESIAN_POINT('',(0.,-0.754020784915,-0.754020784915));
#31 = CARTESIAN_POINT('',(0.312876192292,-0.709587307639,-0.709587307639
    ));
#32 = CARTESIAN_POINT('',(0.57735026919,-0.57735026919,-0.57735026919));
#33 = PCURVE('',#34,#60);
#34 = ( BOUNDED_SURFACE() B_SPLINE_SURFACE(4,4,(
    (#35,#36,#37,#38,#39)
    ,(#40,#41,#42,#43,#44)
    ,(#45,#46,#47,#48,#49)
    ,(#50,#51,#52,#53,#54)
    ,(#55,#56,#57,#58,#59
)),.UNSPECIFIED.,.F.,.F.,.F.) B_SPLINE_SURFACE_WITH_KNOTS((5,5),(5,5),(
    0.,1.),(0.,1.),.PIECEWISE_BEZIER_KNOTS.) 
GEOMETRIC_REPRESENTATION_ITEM() RATIONAL_B_SPLINE_SURFACE((
    (5.071796769724,4.520042103603,4.357265589908,4.520042103603
      ,5.071796769724)
    ,(4.520042103603,3.866025403784,3.644923705674,3.866025403784
      ,4.520042103603)
    ,(4.357265589908,3.644923705674,3.404557350153,3.644923705674
      ,4.357265589908)
    ,(4.520042103603,3.866025403784,3.644923705674,3.866025403784
      ,4.520042103603)
    ,(5.071796769724,4.520042103603,4.357265589908,4.520042103603
,5.071796769724))) REPRESENTATION_ITEM('') SURFACE() );
#35 = CARTESIAN_POINT('',(-0.57735026919,-0.57735026919,-0.57735026919)
  );
#36 = CARTESIAN_POINT('',(-0.312876192292,-0.709587307639,
    -0.709587307639));
#37 = CARTESIAN_POINT('',(0.,-0.754020784915,-0.754020784915));
#38 = CARTESIAN_POINT('',(0.312876192292,-0.709587307639,-0.709587307639
    ));
#39 = CARTESIAN_POINT('',(0.57735026919,-0.57735026919,-0.57735026919));
#40 = CARTESIAN_POINT('',(-0.709587307639,-0.312876192292,
    -0.709587307639));
#41 = CARTESIAN_POINT('',(-0.413364125799,-0.413364125799,-1.));
#42 = CARTESIAN_POINT('',(0.,-0.457304080491,-1.120046188699));
#43 = CARTESIAN_POINT('',(0.413364125799,-0.413364125799,-1.));
#44 = CARTESIAN_POINT('',(0.709587307639,-0.312876192292,-0.709587307639
    ));
#45 = CARTESIAN_POINT('',(-0.754020784915,0.,-0.754020784915));
#46 = CARTESIAN_POINT('',(-0.457304080491,0.,-1.120046188699));
#47 = CARTESIAN_POINT('',(0.,0.,-1.279833218175));
#48 = CARTESIAN_POINT('',(0.457304080491,0.,-1.120046188699));
#49 = CARTESIAN_POINT('',(0.754020784915,0.,-0.754020784915));
#50 = CARTESIAN_POINT('',(-0.709587307639,0.312876192292,-0.709587307639
    ));
#51 = CARTESIAN_POINT('',(-0.413364125799,0.413364125799,-1.));
#52 = CARTESIAN_POINT('',(0.,0.457304080491,-1.120046188699));
#53 = CARTESIAN_POINT('',(0.413364125799,0.413364125799,-1.));
#54 = CARTESIAN_POINT('',(0.709587307639,0.312876192292,-0.709587307639)
  );
#55 = CARTESIAN_POINT('',(-0.57735026919,0.57735026919,-0.57735026919));
#56 = CARTESIAN_POINT('',(-0.312876192292,0.709587307639,-0.709587307639
    ));
#57 = CARTESIAN_POINT('',(0.,0.754020784915,-0.754020784915));
#58 = CARTESIAN_POINT('',(0.312876192292,0.709587307639,-0.709587307639)
  );
#59 = CARTESIAN_POINT('',(0.57735026919,0.57735026919,-0.57735026919));
#60 = DEFINITIONAL_REPRESENTATION('',(#61),#65);
#61 = LINE('',#62,#63);
#62 = CARTESIAN_POINT('',(0.,0.));
#63 = VECTOR('',#64,1.);
#64 = DIRECTION('',(0.,1.));
#65 = ( GEOMETRIC_REPRESENTATION_CONTEXT(2) 
PARAMETRIC_REPRESENTATION_CONTEXT() REPRESENTATION_CONTEXT('2D SPACE',''
  ) );
#66 = PCURVE('',#67,#93);
#67 = ( BOUNDED_SURFACE() B_SPLINE_SURFACE(4,4,(
    (#68,#69,#70,#71,#72)
    ,(#73,#74,#75,#76,#77)
    ,(#78,#79,#80,#81,#82)
    ,(#83,#84,#85,#86,#87)
    ,(#88,#89,#90,#91,#92
)),.UNSPECIFIED.,.F.,.F.,.F.) B_SPLINE_SURFACE_WITH_KNOTS((5,5),(5,5),(
    0.,1.),(0.,1.),.PIECEWISE_BEZIER_KNOTS.) 
GEOMETRIC_REPRESENTATION_ITEM() RATIONAL_B_SPLINE_SURFACE((
    (5.071796769724,4.520042103603,4.357265589908,4.520042103603
      ,5.071796769724)
    ,(4.520042103603,3.866025403784,3.644923705674,3.866025403784
      ,4.520042103603)
    ,(4.357265589908,3.644923705674,3.404557350153,3.644923705674
      ,4.357265589908)
    ,(4.520042103603,3.866025403784,3.644923705674,3.866025403784
      ,4.520042103603)
    ,(5.071796769724,4.520042103603,4.357265589908,4.520042103603
,5.071796769724))) REPRESENTATION_ITEM('') SURFACE() );
#68 = CARTESIAN_POINT('',(-0.57735026919,-0.57735026919,-0.57735026919)
  );
#69 = CARTESIAN_POINT('',(-0.709587307639,-0.709587307639,
    -0.312876192292));
#70 = CARTESIAN_POINT('',(-0.754020784915,-0.754020784915,0.));
#71 = CARTESIAN_POINT('',(-0.709587307639,-0.709587307639,0.312876192292
    ));
#72 = CARTESIAN_POINT('',(-0.57735026919,-0.57735026919,0.57735026919));
#73 = CARTESIAN_POINT('',(-0.312876192292,-0.709587307639,
    -0.709587307639));
#74 = CARTESIAN_POINT('',(-0.413364125799,-1.,-0.413364125799));
#75 = CARTESIAN_POINT('',(-0.457304080491,-1.120046188699,0.));
#76 = CARTESIAN_POINT('',(-0.413364125799,-1.,0.413364125799));
#77 = CARTESIAN_POINT('',(-0.312876192292,-0.709587307639,0.709587307639
    ));
#78 = CARTESIAN_POINT('',(0.,-0.754020784915,-0.754020784915));
#79 = CARTESIAN_POINT('',(0.,-1.120046188699,-0.457304080491));
#80 = CARTESIAN_POINT('',(0.,-1.279833218175,0.));
#81 = CARTESIAN_POINT('',(0.,-1.120046188699,0.457304080491));
#82 = CARTESIAN_POINT('',(0.,-0.754020784915,0.754020784915));
#83 = CARTESIAN_POINT('',(0.312876192292,-0.709587307639,-0.709587307639
    ));
#84 = CARTESIAN_POINT('',(0.413364125799,-1.,-0.413364125799));
#85 = CARTESIAN_POINT('',(0.457304080491,-1.120046188699,0.));
#86 = CARTESIAN_POINT('',(0.413364125799,-1.,0.413364125799));
#87 = CARTESIAN_POINT('',(0.312876192292,-0.709587307639,0.709587307639)
  );
#88 = CARTESIAN_POINT('',(0.57735026919,-0.57735026919,-0.57735026919));
#89 = CARTESIAN_POINT('',(0.709587307639,-0.709587307639,-0.312876192292
    ));
#90 = CARTESIAN_POINT('',(0.754020784915,-0.754020784915,0.));
#91 = CARTESIAN_POINT('',(0.709587307639,-0.709587307639,0.312876192292)
  );
#92 = CARTESIAN_POINT('',(0.57735026919,-0.57735026919,0.57735026919));
#93 = DEFINITIONAL_REPRESENTATION('',(#94),#98);
#94 = LINE('',#95,#96);
#95 = CARTESIAN_POINT('',(0.,0.));
#96 = VECTOR('',#97,1.);
#97 = DIRECTION('',(1.,0.));
#98 = ( GEOMETRIC_REPRESENTATION_CONTEXT(2) 
PARAMETRIC_REPRESENTATION_CONTEXT() REPRESENTATION_CONTEXT('2D SPACE',''
  ) );
#99 = ORIENTED_EDGE('',*,*,#100,.T.);
#100 = EDGE_CURVE('',#22,#101,#103,.T.);
#101 = VERTEX_POINT('',#102);
#102 = CARTESIAN_POINT('',(-0.57735026919,0.57735026919,-0.57735026919)
  );
#103 = SURFACE_CURVE('',#104,(#110,#117),.PCURVE_S1.);
#104 = ( BOUNDED_CURVE() B_SPLINE_CURVE(4,(#105,#106,#107,#108,#109),
.UNSPECIFIED.,.F.,.F.) B_SPLINE_CURVE_WITH_KNOTS((5,5),(0.,1.),
.PIECEWISE_BEZIER_KNOTS.) CURVE() GEOMETRIC_REPRESENTATION_ITEM() 
RATIONAL_B_SPLINE_CURVE((5.071796769724,4.520042103603,4.357265589908,
4.520042103603,5.071796769724)) REPRESENTATION_ITEM('') );
#105 = CARTESIAN_POINT('',(-0.57735026919,-0.57735026919,-0.57735026919)
  );
#106 = CARTESIAN_POINT('',(-0.709587307639,-0.312876192292,
    -0.709587307639));
#107 = CARTESIAN_POINT('',(-0.754020784915,0.,-0.754020784915));
#108 = CARTESIAN_POINT('',(-0.709587307639,0.312876192292,
    -0.709587307639));
#109 = CARTESIAN_POINT('',(-0.57735026919,0.57735026919,-0.57735026919)
  );
#110 = PCURVE('',#34,#111);
#111 = DEFINITIONAL_REPRESENTATION('',(#112),#116);
#112 = LINE('',#113,#114);
#113 = CARTESIAN_POINT('',(0.,0.));
#114 = VECTOR('',#115,1.);
#115 = DIRECTION('',(1.,0.));
#116 = ( GEOMETRIC_REPRESENTATION_CONTEXT(2) 
PARAMETRIC_REPRESENTATION_CONTEXT() REPRESENTATION_CONTEXT('2D SPACE',''
  ) );
#117 = PCURVE('',#118,#144);
#118 = ( BOUNDED_SURFACE() B_SPLINE_SURFACE(4,4,(
    (#119,#120,#121,#122,#123)
    ,(#124,#125,#126,#127,#128)
    ,(#129,#130,#131,#132,#133)
    ,(#134,#135,#136,#137,#138)
    ,(#139,#140,#141,#142,#143
)),.UNSPECIFIED.,.F.,.F.,.F.) B_SPLINE_SURFACE_WITH_KNOTS((5,5),(5,5),(
    0.,1.),(0.,1.),.PIECEWISE_BEZIER_KNOTS.) 
GEOMETRIC_REPRESENTATION_ITEM() RATIONAL_B_SPLINE_SURFACE((
    (5.071796769724,4.520042103603,4.357265589908,4.520042103603
      ,5.071796769724)
    ,(4.520042103603,3.866025403784,3.644923705674,3.866025403784
      ,4.520042103603)
    ,(4.357265589908,3.644923705674,3.404557350153,3.644923705674
      ,4.357265589908)
    ,(4.520042103603,3.866025403784,3.644923705674,3.866025403784
      ,4.520042103603)
    ,(5.071796769724,4.520042103603,4.357265589908,4.520042103603
,5.071796769724))) REPRESENTATION_ITEM('') SURFACE() );
#119 = CARTESIAN_POINT('',(-0.57735026919,-0.57735026919,-0.57735026919)
  );
#120 = CARTESIAN_POINT('',(-0.709587307639,-0.312876192292,
    -0.709587307639));
#121 = CARTESIAN_POINT('',(-0.754020784915,0.,-0.754020784915));
#122 = CARTESIAN_POINT('',(-0.709587307639,0.312876192292,
    -0.709587307639));
#123 = CARTESIAN_POINT('',(-0.57735026919,0.57735026919,-0.57735026919)
  );
#124 = CARTESIAN_POINT('',(-0.709587307639,-0.709587307639,
    -0.312876192292));
#125 = CARTESIAN_POINT('',(-1.,-0.413364125799,-0.413364125799));
#126 = CARTESIAN_POINT('',(-1.120046188699,0.,-0.457304080491));
#127 = CARTESIAN_POINT('',(-1.,0.413364125799,-0.413364125799));
#128 = CARTESIAN_POINT('',(-0.709587307639,0.709587307639,
    -0.312876192292));
#129 = CARTESIAN_POINT('',(-0.754020784915,-0.754020784915,0.));
#130 = CARTESIAN_POINT('',(-1.120046188699,-0.457304080491,0.));
#131 = CARTESIAN_POINT('',(-1.279833218175,0.,0.));
#132 = CARTESIAN_POINT('',(-1.120046188699,0.457304080491,0.));
#133 = CARTESIAN_POINT('',(-0.754020784915,0.754020784915,0.));
#134 = CARTESIAN_POINT('',(-0.709587307639,-0.709587307639,
    0.312876192292));
#135 = CARTESIAN_POINT('',(-1.,-0.413364125799,0.413364125799));
#136 = CARTESIAN_POINT('',(-1.120046188699,0.,0.457304080491));
#137 = CARTESIAN_POINT('',(-1.,0.413364125799,0.413364125799));
#138 = CARTESIAN_POINT('',(-0.709587307639,0.709587307639,0.312876192292
    ));
#139 = CARTESIAN_POINT('',(-0.57735026919,-0.57735026919,0.57735026919)
  );
#140 = CARTESIAN_POINT('',(-0.709587307639,-0.312876192292,
    0.709587307639));
#141 = CARTESIAN_POINT('',(-0.754020784915,0.,0.754020784915));
#142 = CARTESIAN_POINT('',(-0.709587307639,0.312876192292,0.709587307639
    ));
#143 = CARTESIAN_POINT('',(-0.57735026919,0.57735026919,0.57735026919));
#144 = DEFINITIONAL_REPRESENTATION('',(#145),#149);
#145 = LINE('',#146,#147);
#146 = CARTESIAN_POINT('',(0.,0.));
#147 = VECTOR('',#148,1.);
#148 = DIRECTION('',(0.,1.));
#149 = ( GEOMETRIC_REPRESENTATION_CONTEXT(2) 
PARAMETRIC_REPRESENTATION_CONTEXT() REPRESENTATION_CONTEXT('2D SPACE',''
  ) );
#150 = ORIENTED_EDGE('',*,*,#151,.T.);
#151 = EDGE_CURVE('',#101,#152,#154,.T.);
#152 = VERTEX_POINT('',#153);
#153 = CARTESIAN_POINT('',(0.57735026919,0.57735026919,-0.57735026919));
#154 = SURFACE_CURVE('',#155,(#161,#168),.PCURVE_S1.);
#155 = ( BOUNDED_CURVE() B_SPLINE_CURVE(4,(#156,#157,#158,#159,#160),
.UNSPECIFIED.,.F.,.F.) B_SPLINE_CURVE_WITH_KNOTS((5,5),(0.,1.),
.PIECEWISE_BEZIER_KNOTS.) CURVE() GEOMETRIC_REPRESENTATION_ITEM() 
RATIONAL_B_SPLINE_CURVE((5.071796769724,4.520042103603,4.357265589908,
4.520042103603,5.071796769724)) REPRESENTATION_ITEM('') );
#156 = CARTESIAN_POINT('',(-0.57735026919,0.57735026919,-0.57735026919)
  );
#157 = CARTESIAN_POINT('',(-0.312876192292,0.709587307639,
    -0.709587307639));
#158 = CARTESIAN_POINT('',(0.,0.754020784915,-0.754020784915));
#159 = CARTESIAN_POINT('',(0.312876192292,0.709587307639,-0.709587307639
    ));
#160 = CARTESIAN_POINT('',(0.57735026919,0.57735026919,-0.57735026919));
#161 = PCURVE('',#34,#162);
#162 = DEFINITIONAL_REPRESENTATION('',(#163),#167);
#163 = LINE('',#164,#165);
#164 = CARTESIAN_POINT('',(1.,0.));
#165 = VECTOR('',#166,1.);
#166 = DIRECTION('',(0.,1.));
#167 = ( GEOMETRIC_REPRESENTATION_CONTEXT(2) 
PARAMETRIC_REPRESENTATION_CONTEXT() REPRESENTATION_CONTEXT('2D SPACE',''
  ) );
#168 = PCURVE('',#169,#195);
#169 = ( BOUNDED_SURFACE() B_SPLINE_SURFACE(4,4,(
    (#170,#171,#172,#173,#174)
    ,(#175,#176,#177,#178,#179)
    ,(#180,#181,#182,#183,#184)
    ,(#185,#186,#187,#188,#189)
    ,(#190,#191,#192,#193,#194
)),.UNSPECIFIED.,.F.,.F.,.F.) B_SPLINE_SURFACE_WITH_KNOTS((5,5),(5,5),(
    0.,1.),(0.,1.),.PIECEWISE_BEZIER_KNOTS.) 
GEOMETRIC_REPRESENTATION_ITEM() RATIONAL_B_SPLINE_SURFACE((
    (5.071796769724,4.520042103603,4.357265589908,4.520042103603
      ,5.071796769724)
    ,(4.520042103603,3.866025403784,3.644923705674,3.866025403784
      ,4.520042103603)
    ,(4.357265589908,3.644923705674,3.404557350153,3.644923705674
      ,4.357265589908)
    ,(4.520042103603,3.866025403784,3.644923705674,3.866025403784
      ,4.520042103603)
    ,(5.071796769724,4.520042103603,4.357265589908,4.520042103603
,5.071796769724))) REPRESENTATION_ITEM('') SURFACE() );
#170 = CARTESIAN_POINT('',(0.57735026919,0.57735026919,0.57735026919));
#171 = CARTESIAN_POINT('',(0.312876192292,0.709587307639,0.709587307639)
  );
#172 = CARTESIAN_POINT('',(-0.,0.754020784915,0.754020784915));
#173 = CARTESIAN_POINT('',(-0.312876192292,0.709587307639,0.709587307639
    ));
#174 = CARTESIAN_POINT('',(-0.57735026919,0.57735026919,0.57735026919));
#175 = CARTESIAN_POINT('',(0.709587307639,0.709587307639,0.312876192292)
  );
#176 = CARTESIAN_POINT('',(0.413364125799,1.,0.413364125799));
#177 = CARTESIAN_POINT('',(-0.,1.120046188699,0.457304080491));
#178 = CARTESIAN_POINT('',(-0.413364125799,1.,0.413364125799));
#179 = CARTESIAN_POINT('',(-0.709587307639,0.709587307639,0.312876192292
    ));
#180 = CARTESIAN_POINT('',(0.754020784915,0.754020784915,-0.));
#181 = CARTESIAN_POINT('',(0.457304080491,1.120046188699,-0.));
#182 = CARTESIAN_POINT('',(-0.,1.279833218175,-0.));
#183 = CARTESIAN_POINT('',(-0.457304080491,1.120046188699,-0.));
#184 = CARTESIAN_POINT('',(-0.754020784915,0.754020784915,-0.));
#185 = CARTESIAN_POINT('',(0.709587307639,0.709587307639,-0.312876192292
    ));
#186 = CARTESIAN_POINT('',(0.413364125799,1.,-0.413364125799));
#187 = CARTESIAN_POINT('',(-0.,1.120046188699,-0.457304080491));
#188 = CARTESIAN_POINT('',(-0.413364125799,1.,-0.413364125799));
#189 = CARTESIAN_POINT('',(-0.709587307639,0.709587307639,
    -0.312876192292));
#190 = CARTESIAN_POINT('',(0.57735026919,0.57735026919,-0.57735026919));
#191 = CARTESIAN_POINT('',(0.312876192292,0.709587307639,-0.709587307639
    ));
#192 = CARTESIAN_POINT('',(-0.,0.754020784915,-0.754020784915));
#193 = CARTESIAN_POINT('',(-0.312876192292,0.709587307639,
    -0.709587307639));
#194 = CARTESIAN_POINT('',(-0.57735026919,0.57735026919,-0.57735026919)
  );
#195 = DEFINITIONAL_REPRESENTATION('',(#196),#199);
#196 = B_SPLINE_CURVE_WITH_KNOTS('',1,(#197,#198),.UNSPECIFIED.,.F.,.F.,
  (2,2),(0.,1.),.PIECEWISE_BEZIER_KNOTS.);
#197 = CARTESIAN_POINT('',(1.,1.));
#198 = CARTESIAN_POINT('',(1.,0.));
#199 = ( GEOMETRIC_REPRESENTATION_CONTEXT(2) 
PARAMETRIC_REPRESENTATION_CONTEXT() REPRESENTATION_CONTEXT('2D SPACE',''
  ) );
#200 = ORIENTED_EDGE('',*,*,#201,.F.);
#201 = EDGE_CURVE('',#24,#152,#202,.T.);
#202 = SURFACE_CURVE('',#203,(#209,#216),.PCURVE_S1.);
#203 = ( BOUNDED_CURVE() B_SPLINE_CURVE(4,(#204,#205,#206,#207,#208),
.UNSPECIFIED.,.F.,.F.) B_SPLINE_CURVE_WITH_KNOTS((5,5),(0.,1.),
.PIECEWISE_BEZIER_KNOTS.) CURVE() GEOMETRIC_REPRESENTATION_ITEM() 
RATIONAL_B_SPLINE_CURVE((5.071796769724,4.520042103603,4.357265589908,
4.520042103603,5.071796769724)) REPRESENTATION_ITEM('') );
#204 = CARTESIAN_POINT('',(0.57735026919,-0.57735026919,-0.57735026919)
  );
#205 = CARTESIAN_POINT('',(0.709587307639,-0.312876192292,
    -0.709587307639));
#206 = CARTESIAN_POINT('',(0.754020784915,0.,-0.754020784915));
#207 = CARTESIAN_POINT('',(0.709587307639,0.312876192292,-0.709587307639
    ));
#208 = CARTESIAN_POINT('',(0.57735026919,0.57735026919,-0.57735026919));
#209 = PCURVE('',#34,#210);
#210 = DEFINITIONAL_REPRESENTATION('',(#211),#215);
#211 = LINE('',#212,#213);
#212 = CARTESIAN_POINT('',(0.,1.));
#213 = VECTOR('',#214,1.);
#214 = DIRECTION('',(1.,0.));
#215 = ( GEOMETRIC_REPRESENTATION_CONTEXT(2) 
PARAMETRIC_REPRESENTATION_CONTEXT() REPRESENTATION_CONTEXT('2D SPACE',''
  ) );
#216 = PCURVE('',#217,#243);
#217 = ( BOUNDED_SURFACE() B_SPLINE_SURFACE(4,4,(
    (#218,#219,#220,#221,#222)
    ,(#223,#224,#225,#226,#227)
    ,(#228,#229,#230,#231,#232)
    ,(#233,#234,#235,#236,#237)
    ,(#238,#239,#240,#241,#242
)),.UNSPECIFIED.,.F.,.F.,.F.) B_SPLINE_SURFACE_WITH_KNOTS((5,5),(5,5),(
    0.,1.),(0.,1.),.PIECEWISE_BEZIER_KNOTS.) 
GEOMETRIC_REPRESENTATION_ITEM() RATIONAL_B_SPLINE_SURFACE((
    (5.071796769724,4.520042103603,4.357265589908,4.520042103603
      ,5.071796769724)
    ,(4.520042103603,3.866025403784,3.644923705674,3.866025403784
      ,4.520042103603)
    ,(4.357265589908,3.644923705674,3.404557350153,3.644923705674
      ,4.357265589908)
    ,(4.520042103603,3.866025403784,3.644923705674,3.866025403784
      ,4.520042103603)
    ,(5.071796769724,4.520042103603,4.357265589908,4.520042103603
,5.071796769724))) REPRESENTATION_ITEM('') SURFACE() );
#218 = CARTESIAN_POINT('',(0.57735026919,0.57735026919,0.57735026919));
#219 = CARTESIAN_POINT('',(0.709587307639,0.709587307639,0.312876192292)
  );
#220 = CARTESIAN_POINT('',(0.754020784915,0.754020784915,-0.));
#221 = CARTESIAN_POINT('',(0.709587307639,0.709587307639,-0.312876192292
    ));
#222 = CARTESIAN_POINT('',(0.57735026919,0.57735026919,-0.57735026919));
#223 = CARTESIAN_POINT('',(0.709587307639,0.312876192292,0.709587307639)
  );
#224 = CARTESIAN_POINT('',(1.,0.413364125799,0.413364125799));
#225 = CARTESIAN_POINT('',(1.120046188699,0.457304080491,-0.));
#226 = CARTESIAN_POINT('',(1.,0.413364125799,-0.413364125799));
#227 = CARTESIAN_POINT('',(0.709587307639,0.312876192292,-0.709587307639
    ));
#228 = CARTESIAN_POINT('',(0.754020784915,-0.,0.754020784915));
#229 = CARTESIAN_POINT('',(1.120046188699,-0.,0.457304080491));
#230 = CARTESIAN_POINT('',(1.279833218175,-0.,-0.));
#231 = CARTESIAN_POINT('',(1.120046188699,-0.,-0.457304080491));
#232 = CARTESIAN_POINT('',(0.754020784915,-0.,-0.754020784915));
#233 = CARTESIAN_POINT('',(0.709587307639,-0.312876192292,0.709587307639
    ));
#234 = CARTESIAN_POINT('',(1.,-0.413364125799,0.413364125799));
#235 = CARTESIAN_POINT('',(1.120046188699,-0.457304080491,-0.));
#236 = CARTESIAN_POINT('',(1.,-0.413364125799,-0.413364125799));
#237 = CARTESIAN_POINT('',(0.709587307639,-0.312876192292,
    -0.709587307639));
#238 = CARTESIAN_POINT('',(0.57735026919,-0.57735026919,0.57735026919));
#239 = CARTESIAN_POINT('',(0.709587307639,-0.709587307639,0.312876192292
    ));
#240 = CARTESIAN_POINT('',(0.754020784915,-0.754020784915,-0.));
#241 = CARTESIAN_POINT('',(0.709587307639,-0.709587307639,
    -0.312876192292));
#242 = CARTESIAN_POINT('',(0.57735026919,-0.57735026919,-0.57735026919)
  );
#243 = DEFINITIONAL_REPRESENTATION('',(#244),#247);
#244 = B_SPLINE_CURVE_WITH_KNOTS('',1,(#245,#246),.UNSPECIFIED.,.F.,.F.,
  (2,2),(0.,1.),.PIECEWISE_BEZIER_KNOTS.);
#245 = CARTESIAN_POINT('',(1.,1.));
#246 = CARTESIAN_POINT('',(0.,1.));
#247 = ( GEOMETRIC_REPRESENTATION_CONTEXT(2) 
PARAMETRIC_REPRESENTATION_CONTEXT() REPRESENTATION_CONTEXT('2D SPACE',''
  ) );
#248 = ADVANCED_FACE('',(#249),#118,.T.);
#249 = FACE_BOUND('',#250,.T.);
#250 = EDGE_LOOP('',(#251,#252,#277,#327));
#251 = ORIENTED_EDGE('',*,*,#100,.F.);
#252 = ORIENTED_EDGE('',*,*,#253,.T.);
#253 = EDGE_CURVE('',#22,#254,#256,.T.);
#254 = VERTEX_POINT('',#255);
#255 = CARTESIAN_POINT('',(-0.57735026919,-0.57735026919,0.57735026919)
  );
#256 = SURFACE_CURVE('',#257,(#263,#270),.PCURVE_S1.);
#257 = ( BOUNDED_CURVE() B_SPLINE_CURVE(4,(#258,#259,#260,#261,#262),
.UNSPECIFIED.,.F.,.F.) B_SPLINE_CURVE_WITH_KNOTS((5,5),(0.,1.),
.PIECEWISE_BEZIER_KNOTS.) CURVE() GEOMETRIC_REPRESENTATION_ITEM() 
RATIONAL_B_SPLINE_CURVE((5.071796769724,4.520042103603,4.357265589908,
4.520042103603,5.071796769724)) REPRESENTATION_ITEM('') );
#258 = CARTESIAN_POINT('',(-0.57735026919,-0.57735026919,-0.57735026919)
  );
#259 = CARTESIAN_POINT('',(-0.709587307639,-0.709587307639,
    -0.312876192292));
#260 = CARTESIAN_POINT('',(-0.754020784915,-0.754020784915,0.));
#261 = CARTESIAN_POINT('',(-0.709587307639,-0.709587307639,
    0.312876192292));
#262 = CARTESIAN_POINT('',(-0.57735026919,-0.57735026919,0.57735026919)
  );
#263 = PCURVE('',#118,#264);
#264 = DEFINITIONAL_REPRESENTATION('',(#265),#269);
#265 = LINE('',#266,#267);
#266 = CARTESIAN_POINT('',(0.,0.));
#267 = VECTOR('',#268,1.);
#268 = DIRECTION('',(1.,0.));
#269 = ( GEOMETRIC_REPRESENTATION_CONTEXT(2) 
PARAMETRIC_REPRESENTATION_CONTEXT() REPRESENTATION_CONTEXT('2D SPACE',''
  ) );
#270 = PCURVE('',#67,#271);
#271 = DEFINITIONAL_REPRESENTATION('',(#272),#276);
#272 = LINE('',#273,#274);
#273 = CARTESIAN_POINT('',(0.,0.));
#274 = VECTOR('',#275,1.);
#275 = DIRECTION('',(0.,1.));
#276 = ( GEOMETRIC_REPRESENTATION_CONTEXT(2) 
PARAMETRIC_REPRESENTATION_CONTEXT() REPRESENTATION_CONTEXT('2D SPACE',''
  ) );
#277 = ORIENTED_EDGE('',*,*,#278,.F.);
#278 = EDGE_CURVE('',#279,#254,#281,.T.);
#279 = VERTEX_POINT('',#280);
#280 = CARTESIAN_POINT('',(-0.57735026919,0.57735026919,0.57735026919));
#281 = SURFACE_CURVE('',#282,(#288,#294),.PCURVE_S1.);
#282 = ( BOUNDED_CURVE() B_SPLINE_CURVE(4,(#283,#284,#285,#286,#287),
.UNSPECIFIED.,.F.,.F.) B_SPLINE_CURVE_WITH_KNOTS((5,5),(0.,1.),
.PIECEWISE_BEZIER_KNOTS.) CURVE() GEOMETRIC_REPRESENTATION_ITEM() 
RATIONAL_B_SPLINE_CURVE((5.071796769724,4.520042103603,4.357265589908,
4.520042103603,5.071796769724)) REPRESENTATION_ITEM('') );
#283 = CARTESIAN_POINT('',(-0.57735026919,0.57735026919,0.57735026919));
#284 = CARTESIAN_POINT('',(-0.709587307639,0.312876192292,0.709587307639
    ));
#285 = CARTESIAN_POINT('',(-0.754020784915,-0.,0.754020784915));
#286 = CARTESIAN_POINT('',(-0.709587307639,-0.312876192292,
    0.709587307639));
#287 = CARTESIAN_POINT('',(-0.57735026919,-0.57735026919,0.57735026919)
  );
#288 = PCURVE('',#118,#289);
#289 = DEFINITIONAL_REPRESENTATION('',(#290),#293);
#290 = B_SPLINE_CURVE_WITH_KNOTS('',1,(#291,#292),.UNSPECIFIED.,.F.,.F.,
  (2,2),(0.,1.),.PIECEWISE_BEZIER_KNOTS.);
#291 = CARTESIAN_POINT('',(1.,1.));
#292 = CARTESIAN_POINT('',(1.,0.));
#293 = ( GEOMETRIC_REPRESENTATION_CONTEXT(2) 
PARAMETRIC_REPRESENTATION_CONTEXT() REPRESENTATION_CONTEXT('2D SPACE',''
  ) );
#294 = PCURVE('',#295,#321);
#295 = ( BOUNDED_SURFACE() B_SPLINE_SURFACE(4,4,(
    (#296,#297,#298,#299,#300)
    ,(#301,#302,#303,#304,#305)
    ,(#306,#307,#308,#309,#310)
    ,(#311,#312,#313,#314,#315)
    ,(#316,#317,#318,#319,#320
)),.UNSPECIFIED.,.F.,.F.,.F.) B_SPLINE_SURFACE_WITH_KNOTS((5,5),(5,5),(
    0.,1.),(0.,1.),.PIECEWISE_BEZIER_KNOTS.) 
GEOMETRIC_REPRESENTATION_ITEM() RATIONAL_B_SPLINE_SURFACE((
    (5.071796769724,4.520042103603,4.357265589908,4.520042103603
      ,5.071796769724)
    ,(4.520042103603,3.866025403784,3.644923705674,3.866025403784
      ,4.520042103603)
    ,(4.357265589908,3.644923705674,3.404557350153,3.644923705674
      ,4.357265589908)
    ,(4.520042103603,3.866025403784,3.644923705674,3.866025403784
      ,4.520042103603)
    ,(5.071796769724,4.520042103603,4.357265589908,4.520042103603
,5.071796769724))) REPRESENTATION_ITEM('') SURFACE() );
#296 = CARTESIAN_POINT('',(0.57735026919,0.57735026919,0.57735026919));
#297 = CARTESIAN_POINT('',(0.709587307639,0.312876192292,0.709587307639)
  );
#298 = CARTESIAN_POINT('',(0.754020784915,-0.,0.754020784915));
#299 = CARTESIAN_POINT('',(0.709587307639,-0.312876192292,0.709587307639
    ));
#300 = CARTESIAN_POINT('',(0.57735026919,-0.57735026919,0.57735026919));
#301 = CARTESIAN_POINT('',(0.312876192292,0.709587307639,0.709587307639)
  );
#302 = CARTESIAN_POINT('',(0.413364125799,0.413364125799,1.));
#303 = CARTESIAN_POINT('',(0.457304080491,-0.,1.120046188699));
#304 = CARTESIAN_POINT('',(0.413364125799,-0.413364125799,1.));
#305 = CARTESIAN_POINT('',(0.312876192292,-0.709587307639,0.709587307639
    ));
#306 = CARTESIAN_POINT('',(-0.,0.754020784915,0.754020784915));
#307 = CARTESIAN_POINT('',(-0.,0.457304080491,1.120046188699));
#308 = CARTESIAN_POINT('',(-0.,-0.,1.279833218175));
#309 = CARTESIAN_POINT('',(-0.,-0.457304080491,1.120046188699));
#310 = CARTESIAN_POINT('',(-0.,-0.754020784915,0.754020784915));
#311 = CARTESIAN_POINT('',(-0.312876192292,0.709587307639,0.709587307639
    ));
#312 = CARTESIAN_POINT('',(-0.413364125799,0.413364125799,1.));
#313 = CARTESIAN_POINT('',(-0.457304080491,-0.,1.120046188699));
#314 = CARTESIAN_POINT('',(-0.413364125799,-0.413364125799,1.));
#315 = CARTESIAN_POINT('',(-0.312876192292,-0.709587307639,
    0.709587307639));
#316 = CARTESIAN_POINT('',(-0.57735026919,0.57735026919,0.57735026919));
#317 = CARTESIAN_POINT('',(-0.709587307639,0.312876192292,0.709587307639
    ));
#318 = CARTESIAN_POINT('',(-0.754020784915,-0.,0.754020784915));
#319 = CARTESIAN_POINT('',(-0.709587307639,-0.312876192292,
    0.709587307639));
#320 = CARTESIAN_POINT('',(-0.57735026919,-0.57735026919,0.57735026919)
  );
#321 = DEFINITIONAL_REPRESENTATION('',(#322),#326);
#322 = LINE('',#323,#324);
#323 = CARTESIAN_POINT('',(1.,0.));
#324 = VECTOR('',#325,1.);
#325 = DIRECTION('',(0.,1.));
#326 = ( GEOMETRIC_REPRESENTATION_CONTEXT(2) 
PARAMETRIC_REPRESENTATION_CONTEXT() REPRESENTATION_CONTEXT('2D SPACE',''
  ) );
#327 = ORIENTED_EDGE('',*,*,#328,.F.);
#328 = EDGE_CURVE('',#101,#279,#329,.T.);
#329 = SURFACE_CURVE('',#330,(#336,#343),.PCURVE_S1.);
#330 = ( BOUNDED_CURVE() B_SPLINE_CURVE(4,(#331,#332,#333,#334,#335),
.UNSPECIFIED.,.F.,.F.) B_SPLINE_CURVE_WITH_KNOTS((5,5),(0.,1.),
.PIECEWISE_BEZIER_KNOTS.) CURVE() GEOMETRIC_REPRESENTATION_ITEM() 
RATIONAL_B_SPLINE_CURVE((5.071796769724,4.520042103603,4.357265589908,
4.520042103603,5.071796769724)) REPRESENTATION_ITEM('') );
#331 = CARTESIAN_POINT('',(-0.57735026919,0.57735026919,-0.57735026919)
  );
#332 = CARTESIAN_POINT('',(-0.709587307639,0.709587307639,
    -0.312876192292));
#333 = CARTESIAN_POINT('',(-0.754020784915,0.754020784915,0.));
#334 = CARTESIAN_POINT('',(-0.709587307639,0.709587307639,0.312876192292
    ));
#335 = CARTESIAN_POINT('',(-0.57735026919,0.57735026919,0.57735026919));
#336 = PCURVE('',#118,#337);
#337 = DEFINITIONAL_REPRESENTATION('',(#338),#342);
#338 = LINE('',#339,#340);
#339 = CARTESIAN_POINT('',(0.,1.));
#340 = VECTOR('',#341,1.);
#341 = DIRECTION('',(1.,0.));
#342 = ( GEOMETRIC_REPRESENTATION_CONTEXT(2) 
PARAMETRIC_REPRESENTATION_CONTEXT() REPRESENTATION_CONTEXT('2D SPACE',''
  ) );
#343 = PCURVE('',#169,#344);
#344 = DEFINITIONAL_REPRESENTATION('',(#345),#348);
#345 = B_SPLINE_CURVE_WITH_KNOTS('',1,(#346,#347),.UNSPECIFIED.,.F.,.F.,
  (2,2),(0.,1.),.PIECEWISE_BEZIER_KNOTS.);
#346 = CARTESIAN_POINT('',(1.,1.));
#347 = CARTESIAN_POINT('',(0.,1.));
#348 = ( GEOMETRIC_REPRESENTATION_CONTEXT(2) 
PARAMETRIC_REPRESENTATION_CONTEXT() REPRESENTATION_CONTEXT('2D SPACE',''
  ) );
#349 = ADVANCED_FACE('',(#350),#295,.T.);
#350 = FACE_BOUND('',#351,.T.);
#351 = EDGE_LOOP('',(#352,#379,#402,#403));
#352 = ORIENTED_EDGE('',*,*,#353,.F.);
#353 = EDGE_CURVE('',#354,#356,#358,.T.);
#354 = VERTEX_POINT('',#355);
#355 = CARTESIAN_POINT('',(0.57735026919,0.57735026919,0.57735026919));
#356 = VERTEX_POINT('',#357);
#357 = CARTESIAN_POINT('',(0.57735026919,-0.57735026919,0.57735026919));
#358 = SURFACE_CURVE('',#359,(#365,#372),.PCURVE_S1.);
#359 = ( BOUNDED_CURVE() B_SPLINE_CURVE(4,(#360,#361,#362,#363,#364),
.UNSPECIFIED.,.F.,.F.) B_SPLINE_CURVE_WITH_KNOTS((5,5),(0.,1.),
.PIECEWISE_BEZIER_KNOTS.) CURVE() GEOMETRIC_REPRESENTATION_ITEM() 
RATIONAL_B_SPLINE_CURVE((5.071796769724,4.520042103603,4.357265589908,
4.520042103603,5.071796769724)) REPRESENTATION_ITEM('') );
#360 = CARTESIAN_POINT('',(0.57735026919,0.57735026919,0.57735026919));
#361 = CARTESIAN_POINT('',(0.709587307639,0.312876192292,0.709587307639)
  );
#362 = CARTESIAN_POINT('',(0.754020784915,-0.,0.754020784915));
#363 = CARTESIAN_POINT('',(0.709587307639,-0.312876192292,0.709587307639
    ));
#364 = CARTESIAN_POINT('',(0.57735026919,-0.57735026919,0.57735026919));
#365 = PCURVE('',#295,#366);
#366 = DEFINITIONAL_REPRESENTATION('',(#367),#371);
#367 = LINE('',#368,#369);
#368 = CARTESIAN_POINT('',(0.,0.));
#369 = VECTOR('',#370,1.);
#370 = DIRECTION('',(0.,1.));
#371 = ( GEOMETRIC_REPRESENTATION_CONTEXT(2) 
PARAMETRIC_REPRESENTATION_CONTEXT() REPRESENTATION_CONTEXT('2D SPACE',''
  ) );
#372 = PCURVE('',#217,#373);
#373 = DEFINITIONAL_REPRESENTATION('',(#374),#378);
#374 = LINE('',#375,#376);
#375 = CARTESIAN_POINT('',(0.,0.));
#376 = VECTOR('',#377,1.);
#377 = DIRECTION('',(1.,0.));
#378 = ( GEOMETRIC_REPRESENTATION_CONTEXT(2) 
PARAMETRIC_REPRESENTATION_CONTEXT() REPRESENTATION_CONTEXT('2D SPACE',''
  ) );
#379 = ORIENTED_EDGE('',*,*,#380,.T.);
#380 = EDGE_CURVE('',#354,#279,#381,.T.);
#381 = SURFACE_CURVE('',#382,(#388,#395),.PCURVE_S1.);
#382 = ( BOUNDED_CURVE() B_SPLINE_CURVE(4,(#383,#384,#385,#386,#387),
.UNSPECIFIED.,.F.,.F.) B_SPLINE_CURVE_WITH_KNOTS((5,5),(0.,1.),
.PIECEWISE_BEZIER_KNOTS.) CURVE() GEOMETRIC_REPRESENTATION_ITEM() 
RATIONAL_B_SPLINE_CURVE((5.071796769724,4.520042103603,4.357265589908,
4.520042103603,5.071796769724)) REPRESENTATION_ITEM('') );
#383 = CARTESIAN_POINT('',(0.57735026919,0.57735026919,0.57735026919));
#384 = CARTESIAN_POINT('',(0.312876192292,0.709587307639,0.709587307639)
  );
#385 = CARTESIAN_POINT('',(-0.,0.754020784915,0.754020784915));
#386 = CARTESIAN_POINT('',(-0.312876192292,0.709587307639,0.709587307639
    ));
#387 = CARTESIAN_POINT('',(-0.57735026919,0.57735026919,0.57735026919));
#388 = PCURVE('',#295,#389);
#389 = DEFINITIONAL_REPRESENTATION('',(#390),#394);
#390 = LINE('',#391,#392);
#391 = CARTESIAN_POINT('',(0.,0.));
#392 = VECTOR('',#393,1.);
#393 = DIRECTION('',(1.,0.));
#394 = ( GEOMETRIC_REPRESENTATION_CONTEXT(2) 
PARAMETRIC_REPRESENTATION_CONTEXT() REPRESENTATION_CONTEXT('2D SPACE',''
  ) );
#395 = PCURVE('',#169,#396);
#396 = DEFINITIONAL_REPRESENTATION('',(#397),#401);
#397 = LINE('',#398,#399);
#398 = CARTESIAN_POINT('',(0.,0.));
#399 = VECTOR('',#400,1.);
#400 = DIRECTION('',(0.,1.));
#401 = ( GEOMETRIC_REPRESENTATION_CONTEXT(2) 
PARAMETRIC_REPRESENTATION_CONTEXT() REPRESENTATION_CONTEXT('2D SPACE',''
  ) );
#402 = ORIENTED_EDGE('',*,*,#278,.T.);
#403 = ORIENTED_EDGE('',*,*,#404,.F.);
#404 = EDGE_CURVE('',#356,#254,#405,.T.);
#405 = SURFACE_CURVE('',#406,(#412,#419),.PCURVE_S1.);
#406 = ( BOUNDED_CURVE() B_SPLINE_CURVE(4,(#407,#408,#409,#410,#411),
.UNSPECIFIED.,.F.,.F.) B_SPLINE_CURVE_WITH_KNOTS((5,5),(0.,1.),
.PIECEWISE_BEZIER_KNOTS.) CURVE() GEOMETRIC_REPRESENTATION_ITEM() 
RATIONAL_B_SPLINE_CURVE((5.071796769724,4.520042103603,4.357265589908,
4.520042103603,5.071796769724)) REPRESENTATION_ITEM('') );
#407 = CARTESIAN_POINT('',(0.57735026919,-0.57735026919,0.57735026919));
#408 = CARTESIAN_POINT('',(0.312876192292,-0.709587307639,0.709587307639
    ));
#409 = CARTESIAN_POINT('',(-0.,-0.754020784915,0.754020784915));
#410 = CARTESIAN_POINT('',(-0.312876192292,-0.709587307639,
    0.709587307639));
#411 = CARTESIAN_POINT('',(-0.57735026919,-0.57735026919,0.57735026919)
  );
#412 = PCURVE('',#295,#413);
#413 = DEFINITIONAL_REPRESENTATION('',(#414),#418);
#414 = LINE('',#415,#416);
#415 = CARTESIAN_POINT('',(0.,1.));
#416 = VECTOR('',#417,1.);
#417 = DIRECTION('',(1.,0.));
#418 = ( GEOMETRIC_REPRESENTATION_CONTEXT(2) 
PARAMETRIC_REPRESENTATION_CONTEXT() REPRESENTATION_CONTEXT('2D SPACE',''
  ) );
#419 = PCURVE('',#67,#420);
#420 = DEFINITIONAL_REPRESENTATION('',(#421),#424);
#421 = B_SPLINE_CURVE_WITH_KNOTS('',1,(#422,#423),.UNSPECIFIED.,.F.,.F.,
  (2,2),(0.,1.),.PIECEWISE_BEZIER_KNOTS.);
#422 = CARTESIAN_POINT('',(1.,1.));
#423 = CARTESIAN_POINT('',(0.,1.));
#424 = ( GEOMETRIC_REPRESENTATION_CONTEXT(2) 
PARAMETRIC_REPRESENTATION_CONTEXT() REPRESENTATION_CONTEXT('2D SPACE',''
  ) );
#425 = ADVANCED_FACE('',(#426),#169,.T.);
#426 = FACE_BOUND('',#427,.T.);
#427 = EDGE_LOOP('',(#428,#429,#452,#453));
#428 = ORIENTED_EDGE('',*,*,#380,.F.);
#429 = ORIENTED_EDGE('',*,*,#430,.T.);
#430 = EDGE_CURVE('',#354,#152,#431,.T.);
#431 = SURFACE_CURVE('',#432,(#438,#445),.PCURVE_S1.);
#432 = ( BOUNDED_CURVE() B_SPLINE_CURVE(4,(#433,#434,#435,#436,#437),
.UNSPECIFIED.,.F.,.F.) B_SPLINE_CURVE_WITH_KNOTS((5,5),(0.,1.),
.PIECEWISE_BEZIER_KNOTS.) CURVE() GEOMETRIC_REPRESENTATION_ITEM() 
RATIONAL_B_SPLINE_CURVE((5.071796769724,4.520042103603,4.357265589908,
4.520042103603,5.071796769724)) REPRESENTATION_ITEM('') );
#433 = CARTESIAN_POINT('',(0.57735026919,0.57735026919,0.57735026919));
#434 = CARTESIAN_POINT('',(0.709587307639,0.709587307639,0.312876192292)
  );
#435 = CARTESIAN_POINT('',(0.754020784915,0.754020784915,-0.));
#436 = CARTESIAN_POINT('',(0.709587307639,0.709587307639,-0.312876192292
    ));
#437 = CARTESIAN_POINT('',(0.57735026919,0.57735026919,-0.57735026919));
#438 = PCURVE('',#169,#439);
#439 = DEFINITIONAL_REPRESENTATION('',(#440),#444);
#440 = LINE('',#441,#442);
#441 = CARTESIAN_POINT('',(0.,0.));
#442 = VECTOR('',#443,1.);
#443 = DIRECTION('',(1.,0.));
#444 = ( GEOMETRIC_REPRESENTATION_CONTEXT(2) 
PARAMETRIC_REPRESENTATION_CONTEXT() REPRESENTATION_CONTEXT('2D SPACE',''
  ) );
#445 = PCURVE('',#217,#446);
#446 = DEFINITIONAL_REPRESENTATION('',(#447),#451);
#447 = LINE('',#448,#449);
#448 = CARTESIAN_POINT('',(0.,0.));
#449 = VECTOR('',#450,1.);
#450 = DIRECTION('',(0.,1.));
#451 = ( GEOMETRIC_REPRESENTATION_CONTEXT(2) 
PARAMETRIC_REPRESENTATION_CONTEXT() REPRESENTATION_CONTEXT('2D SPACE',''
  ) );
#452 = ORIENTED_EDGE('',*,*,#151,.F.);
#453 = ORIENTED_EDGE('',*,*,#328,.T.);
#454 = ADVANCED_FACE('',(#455),#67,.T.);
#455 = FACE_BOUND('',#456,.T.);
#456 = EDGE_LOOP('',(#457,#458,#459,#481));
#457 = ORIENTED_EDGE('',*,*,#253,.F.);
#458 = ORIENTED_EDGE('',*,*,#21,.T.);
#459 = ORIENTED_EDGE('',*,*,#460,.T.);
#460 = EDGE_CURVE('',#24,#356,#461,.T.);
#461 = SURFACE_CURVE('',#462,(#468,#475),.PCURVE_S1.);
#462 = ( BOUNDED_CURVE() B_SPLINE_CURVE(4,(#463,#464,#465,#466,#467),
.UNSPECIFIED.,.F.,.F.) B_SPLINE_CURVE_WITH_KNOTS((5,5),(0.,1.),
.PIECEWISE_BEZIER_KNOTS.) CURVE() GEOMETRIC_REPRESENTATION_ITEM() 
RATIONAL_B_SPLINE_CURVE((5.071796769724,4.520042103603,4.357265589908,
4.520042103603,5.071796769724)) REPRESENTATION_ITEM('') );
#463 = CARTESIAN_POINT('',(0.57735026919,-0.57735026919,-0.57735026919)
  );
#464 = CARTESIAN_POINT('',(0.709587307639,-0.709587307639,
    -0.312876192292));
#465 = CARTESIAN_POINT('',(0.754020784915,-0.754020784915,0.));
#466 = CARTESIAN_POINT('',(0.709587307639,-0.709587307639,0.312876192292
    ));
#467 = CARTESIAN_POINT('',(0.57735026919,-0.57735026919,0.57735026919));
#468 = PCURVE('',#67,#469);
#469 = DEFINITIONAL_REPRESENTATION('',(#470),#474);
#470 = LINE('',#471,#472);
#471 = CARTESIAN_POINT('',(1.,0.));
#472 = VECTOR('',#473,1.);
#473 = DIRECTION('',(0.,1.));
#474 = ( GEOMETRIC_REPRESENTATION_CONTEXT(2) 
PARAMETRIC_REPRESENTATION_CONTEXT() REPRESENTATION_CONTEXT('2D SPACE',''
  ) );
#475 = PCURVE('',#217,#476);
#476 = DEFINITIONAL_REPRESENTATION('',(#477),#480);
#477 = B_SPLINE_CURVE_WITH_KNOTS('',1,(#478,#479),.UNSPECIFIED.,.F.,.F.,
  (2,2),(0.,1.),.PIECEWISE_BEZIER_KNOTS.);
#478 = CARTESIAN_POINT('',(1.,1.));
#479 = CARTESIAN_POINT('',(1.,0.));
#480 = ( GEOMETRIC_REPRESENTATION_CONTEXT(2) 
PARAMETRIC_REPRESENTATION_CONTEXT() REPRESENTATION_CONTEXT('2D SPACE',''
  ) );
#481 = ORIENTED_EDGE('',*,*,#404,.T.);
#482 = ADVANCED_FACE('',(#483),#217,.T.);
#483 = FACE_BOUND('',#484,.T.);
#484 = EDGE_LOOP('',(#485,#486,#487,#488));
#485 = ORIENTED_EDGE('',*,*,#430,.F.);
#486 = ORIENTED_EDGE('',*,*,#353,.T.);
#487 = ORIENTED_EDGE('',*,*,#460,.F.);
#488 = ORIENTED_EDGE('',*,*,#201,.T.);
#489 = ( GEOMETRIC_REPRESENTATION_CONTEXT(3) 
GLOBAL_UNCERTAINTY_ASSIGNED_CONTEXT((#493)) GLOBAL_UNIT_ASSIGNED_CONTEXT
((#490,#491,#492)) REPRESENTATION_CONTEXT('Context #1',
  '3D Context with UNIT and UNCERTAINTY') );
#490 = ( LENGTH_UNIT() NAMED_UNIT(*) SI_UNIT(.MILLI.,.METRE.) );
#491 = ( NAMED_UNIT(*) PLANE_ANGLE_UNIT() SI_UNIT($,.RADIAN.) );
#492 = ( NAMED_UNIT(*) SI_UNIT($,.STERADIAN.) SOLID_ANGLE_UNIT() );
#493 = UNCERTAINTY_MEASURE_WITH_UNIT(LENGTH_MEASURE(1.E-07),#490,
  'distance_accuracy_value','confusion accuracy');
#494 = PRODUCT_RELATED_PRODUCT_CATEGORY('part',$,(#7));
ENDSEC;
END-ISO-10303-21;
