ISO-10303-21;
HEADER;
FILE_DESCRIPTION( ( '' ), ' ' );
FILE_NAME( '/vol/tmp/translate-3620549352871404434/5ae4c2dc3bdbce0f9e43375b.step', '2018-04-28T18:52:13', ( '' ), ( '' ), ' ', ' ', ' ' );
FILE_SCHEMA( ( 'AUTOMOTIVE_DESIGN { 1 0 10303 214 1 1 1 1 }' ) );
ENDSEC;
DATA;
#1 = MECHANICAL_DESIGN_GEOMETRIC_PRESENTATION_REPRESENTATION( ' ', ( #10, #11, #12, #13, #14, #15, #16, #17, #18, #19, #20, #21, #22, #23, #24, #25, #26, #27, #28, #29 ), #6 );
#2 = PRODUCT_DEFINITION_CONTEXT( '', #30, 'design' );
#3 = APPLICATION_PROTOCOL_DEFINITION( 'international standard', 'automotive_design', 2001, #30 );
#4 = PRODUCT_CATEGORY_RELATIONSHIP( 'NONE', 'NONE', #31, #32 );
#5 = SHAPE_DEFINITION_REPRESENTATION( #33, #34 );
#6 =  ( GEOMETRIC_REPRESENTATION_CONTEXT( 3 )GLOBAL_UNCERTAINTY_ASSIGNED_CONTEXT( ( #37 ) )GLOBAL_UNIT_ASSIGNED_CONTEXT( ( #39, #40, #41 ) )REPRESENTATION_CONTEXT( 'NONE', 'WORKSPACE' ) );
#10 = STYLED_ITEM( '', ( #43 ), #44 );
#11 = STYLED_ITEM( '', ( #45 ), #46 );
#12 = STYLED_ITEM( '', ( #47 ), #48 );
#13 = STYLED_ITEM( '', ( #49 ), #50 );
#14 = STYLED_ITEM( '', ( #51 ), #52 );
#15 = STYLED_ITEM( '', ( #53 ), #54 );
#16 = STYLED_ITEM( '', ( #55 ), #56 );
#17 = STYLED_ITEM( '', ( #57 ), #58 );
#18 = STYLED_ITEM( '', ( #59 ), #60 );
#19 = STYLED_ITEM( '', ( #61 ), #62 );
#20 = STYLED_ITEM( '', ( #63 ), #64 );
#21 = STYLED_ITEM( '', ( #65 ), #66 );
#22 = STYLED_ITEM( '', ( #67 ), #68 );
#23 = STYLED_ITEM( '', ( #69 ), #70 );
#24 = STYLED_ITEM( '', ( #71 ), #72 );
#25 = STYLED_ITEM( '', ( #73 ), #74 );
#26 = STYLED_ITEM( '', ( #75 ), #76 );
#27 = STYLED_ITEM( '', ( #77 ), #78 );
#28 = STYLED_ITEM( '', ( #79 ), #80 );
#29 = STYLED_ITEM( '', ( #81 ), #82 );
#30 = APPLICATION_CONTEXT( 'core data for automotive mechanical design processes' );
#31 = PRODUCT_CATEGORY( 'part', 'NONE' );
#32 = PRODUCT_RELATED_PRODUCT_CATEGORY( 'detail', ' ', ( #83 ) );
#33 = PRODUCT_DEFINITION_SHAPE( 'NONE', 'NONE', #84 );
#34 = ADVANCED_BREP_SHAPE_REPRESENTATION( 'Part 1', ( #85, #86 ), #6 );
#37 = UNCERTAINTY_MEASURE_WITH_UNIT( LENGTH_MEASURE( 1.00000000000000E-06 ), #39, '', '' );
#39 =  ( CONVERSION_BASED_UNIT( 'METRE', #89 )LENGTH_UNIT(  )NAMED_UNIT( #92 ) );
#40 =  ( NAMED_UNIT( #94 )PLANE_ANGLE_UNIT(  )SI_UNIT( $, .RADIAN. ) );
#41 =  ( NAMED_UNIT( #94 )SI_UNIT( $, .STERADIAN. )SOLID_ANGLE_UNIT(  ) );
#43 = PRESENTATION_STYLE_ASSIGNMENT( ( #100 ) );
#44 = ADVANCED_FACE( '', ( #101 ), #102, .T. );
#45 = PRESENTATION_STYLE_ASSIGNMENT( ( #103 ) );
#46 = ADVANCED_FACE( '', ( #104 ), #105, .F. );
#47 = PRESENTATION_STYLE_ASSIGNMENT( ( #106 ) );
#48 = ADVANCED_FACE( '', ( #107 ), #108, .T. );
#49 = PRESENTATION_STYLE_ASSIGNMENT( ( #109 ) );
#50 = ADVANCED_FACE( '', ( #110 ), #111, .T. );
#51 = PRESENTATION_STYLE_ASSIGNMENT( ( #112 ) );
#52 = ADVANCED_FACE( '', ( #113 ), #114, .T. );
#53 = PRESENTATION_STYLE_ASSIGNMENT( ( #115 ) );
#54 = ADVANCED_FACE( '', ( #116 ), #117, .T. );
#55 = PRESENTATION_STYLE_ASSIGNMENT( ( #118 ) );
#56 = ADVANCED_FACE( '', ( #119 ), #120, .F. );
#57 = PRESENTATION_STYLE_ASSIGNMENT( ( #121 ) );
#58 = ADVANCED_FACE( '', ( #122 ), #123, .F. );
#59 = PRESENTATION_STYLE_ASSIGNMENT( ( #124 ) );
#60 = ADVANCED_FACE( '', ( #125 ), #126, .F. );
#61 = PRESENTATION_STYLE_ASSIGNMENT( ( #127 ) );
#62 = ADVANCED_FACE( '', ( #128 ), #129, .T. );
#63 = PRESENTATION_STYLE_ASSIGNMENT( ( #130 ) );
#64 = ADVANCED_FACE( '', ( #131 ), #132, .F. );
#65 = PRESENTATION_STYLE_ASSIGNMENT( ( #133 ) );
#66 = ADVANCED_FACE( '', ( #134 ), #135, .F. );
#67 = PRESENTATION_STYLE_ASSIGNMENT( ( #136 ) );
#68 = ADVANCED_FACE( '', ( #137 ), #138, .F. );
#69 = PRESENTATION_STYLE_ASSIGNMENT( ( #139 ) );
#70 = ADVANCED_FACE( '', ( #140 ), #141, .F. );
#71 = PRESENTATION_STYLE_ASSIGNMENT( ( #142 ) );
#72 = ADVANCED_FACE( '', ( #143 ), #144, .F. );
#73 = PRESENTATION_STYLE_ASSIGNMENT( ( #145 ) );
#74 = ADVANCED_FACE( '', ( #146 ), #147, .F. );
#75 = PRESENTATION_STYLE_ASSIGNMENT( ( #148 ) );
#76 = ADVANCED_FACE( '', ( #149 ), #150, .F. );
#77 = PRESENTATION_STYLE_ASSIGNMENT( ( #151 ) );
#78 = ADVANCED_FACE( '', ( #152 ), #153, .F. );
#79 = PRESENTATION_STYLE_ASSIGNMENT( ( #154 ) );
#80 = ADVANCED_FACE( '', ( #155 ), #156, .T. );
#81 = PRESENTATION_STYLE_ASSIGNMENT( ( #157 ) );
#82 = ADVANCED_FACE( '', ( #158 ), #159, .F. );
#83 = PRODUCT( 'Part 1', 'Part 1', 'PART-Part 1-DESC', ( #160 ) );
#84 = PRODUCT_DEFINITION( 'NONE', 'NONE', #161, #2 );
#85 = MANIFOLD_SOLID_BREP( 'Part 1', #162 );
#86 = AXIS2_PLACEMENT_3D( '', #163, #164, #165 );
#89 = LENGTH_MEASURE_WITH_UNIT( LENGTH_MEASURE( 1.00000000000000 ), #166 );
#92 = DIMENSIONAL_EXPONENTS( 1.00000000000000, 0.00000000000000, 0.00000000000000, 0.00000000000000, 0.00000000000000, 0.00000000000000, 0.00000000000000 );
#94 = DIMENSIONAL_EXPONENTS( 0.00000000000000, 0.00000000000000, 0.00000000000000, 0.00000000000000, 0.00000000000000, 0.00000000000000, 0.00000000000000 );
#100 = SURFACE_STYLE_USAGE( .BOTH., #167 );
#101 = FACE_OUTER_BOUND( '', #168, .T. );
#102 = CYLINDRICAL_SURFACE( '', #169, 0.00182880000000000 );
#103 = SURFACE_STYLE_USAGE( .BOTH., #170 );
#104 = FACE_OUTER_BOUND( '', #171, .T. );
#105 = PLANE( '', #172 );
#106 = SURFACE_STYLE_USAGE( .BOTH., #173 );
#107 = FACE_OUTER_BOUND( '', #174, .T. );
#108 = TOROIDAL_SURFACE( '', #175, 0.00139700000000000, 0.000635000000000000 );
#109 = SURFACE_STYLE_USAGE( .BOTH., #176 );
#110 = FACE_OUTER_BOUND( '', #177, .T. );
#111 = CYLINDRICAL_SURFACE( '', #178, 0.00203200000000000 );
#112 = SURFACE_STYLE_USAGE( .BOTH., #179 );
#113 = FACE_OUTER_BOUND( '', #180, .T. );
#114 = TOROIDAL_SURFACE( '', #181, 0.00139700000000000, 0.000635000000000000 );
#115 = SURFACE_STYLE_USAGE( .BOTH., #182 );
#116 = FACE_OUTER_BOUND( '', #183, .T. );
#117 = CYLINDRICAL_SURFACE( '', #184, 0.00203200000000000 );
#118 = SURFACE_STYLE_USAGE( .BOTH., #185 );
#119 = FACE_OUTER_BOUND( '', #186, .T. );
#120 = PLANE( '', #187 );
#121 = SURFACE_STYLE_USAGE( .BOTH., #188 );
#122 = FACE_OUTER_BOUND( '', #189, .T. );
#123 = PLANE( '', #190 );
#124 = SURFACE_STYLE_USAGE( .BOTH., #191 );
#125 = FACE_OUTER_BOUND( '', #192, .T. );
#126 = PLANE( '', #193 );
#127 = SURFACE_STYLE_USAGE( .BOTH., #194 );
#128 = FACE_OUTER_BOUND( '', #195, .T. );
#129 = CYLINDRICAL_SURFACE( '', #196, 0.00182880000000000 );
#130 = SURFACE_STYLE_USAGE( .BOTH., #197 );
#131 = FACE_OUTER_BOUND( '', #198, .T. );
#132 = PLANE( '', #199 );
#133 = SURFACE_STYLE_USAGE( .BOTH., #200 );
#134 = FACE_OUTER_BOUND( '', #201, .T. );
#135 = PLANE( '', #202 );
#136 = SURFACE_STYLE_USAGE( .BOTH., #203 );
#137 = FACE_OUTER_BOUND( '', #204, .T. );
#138 = PLANE( '', #205 );
#139 = SURFACE_STYLE_USAGE( .BOTH., #206 );
#140 = FACE_OUTER_BOUND( '', #207, .T. );
#141 = PLANE( '', #208 );
#142 = SURFACE_STYLE_USAGE( .BOTH., #209 );
#143 = FACE_OUTER_BOUND( '', #210, .T. );
#144 = PLANE( '', #211 );
#145 = SURFACE_STYLE_USAGE( .BOTH., #212 );
#146 = FACE_OUTER_BOUND( '', #213, .T. );
#147 = PLANE( '', #214 );
#148 = SURFACE_STYLE_USAGE( .BOTH., #215 );
#149 = FACE_OUTER_BOUND( '', #216, .T. );
#150 = PLANE( '', #217 );
#151 = SURFACE_STYLE_USAGE( .BOTH., #218 );
#152 = FACE_OUTER_BOUND( '', #219, .T. );
#153 = PLANE( '', #220 );
#154 = SURFACE_STYLE_USAGE( .BOTH., #221 );
#155 = FACE_OUTER_BOUND( '', #222, .T. );
#156 = PLANE( '', #223 );
#157 = SURFACE_STYLE_USAGE( .BOTH., #224 );
#158 = FACE_OUTER_BOUND( '', #225, .T. );
#159 = PLANE( '', #226 );
#160 = PRODUCT_CONTEXT( '', #30, 'mechanical' );
#161 = PRODUCT_DEFINITION_FORMATION_WITH_SPECIFIED_SOURCE( ' ', 'NONE', #83, .NOT_KNOWN. );
#162 = CLOSED_SHELL( '', ( #46, #80, #48, #60, #66, #68, #56, #70, #72, #64, #76, #78, #82, #62, #44, #54, #50, #52, #74, #58 ) );
#163 = CARTESIAN_POINT( '', ( 0.00000000000000, 0.00000000000000, 0.00000000000000 ) );
#164 = DIRECTION( '', ( 0.00000000000000, 0.00000000000000, 1.00000000000000 ) );
#165 = DIRECTION( '', ( 1.00000000000000, 0.00000000000000, 0.00000000000000 ) );
#166 =  ( LENGTH_UNIT(  )NAMED_UNIT( #92 )SI_UNIT( $, .METRE. ) );
#167 = SURFACE_SIDE_STYLE( '', ( #228 ) );
#168 = EDGE_LOOP( '', ( #229, #230, #231, #232 ) );
#169 = AXIS2_PLACEMENT_3D( '', #233, #234, #235 );
#170 = SURFACE_SIDE_STYLE( '', ( #236 ) );
#171 = EDGE_LOOP( '', ( #237, #238, #239, #240, #241, #242, #243, #244, #245, #246, #247, #248, #249, #250, #251, #252 ) );
#172 = AXIS2_PLACEMENT_3D( '', #253, #254, #255 );
#173 = SURFACE_SIDE_STYLE( '', ( #256 ) );
#174 = EDGE_LOOP( '', ( #257, #258, #259, #260, #261, #262 ) );
#175 = AXIS2_PLACEMENT_3D( '', #263, #264, #265 );
#176 = SURFACE_SIDE_STYLE( '', ( #266 ) );
#177 = EDGE_LOOP( '', ( #267, #268, #269, #270 ) );
#178 = AXIS2_PLACEMENT_3D( '', #271, #272, #273 );
#179 = SURFACE_SIDE_STYLE( '', ( #274 ) );
#180 = EDGE_LOOP( '', ( #275, #276, #277, #278, #279, #280 ) );
#181 = AXIS2_PLACEMENT_3D( '', #281, #282, #283 );
#182 = SURFACE_SIDE_STYLE( '', ( #284 ) );
#183 = EDGE_LOOP( '', ( #285, #286, #287, #288 ) );
#184 = AXIS2_PLACEMENT_3D( '', #289, #290, #291 );
#185 = SURFACE_SIDE_STYLE( '', ( #292 ) );
#186 = EDGE_LOOP( '', ( #293, #294, #295, #296 ) );
#187 = AXIS2_PLACEMENT_3D( '', #297, #298, #299 );
#188 = SURFACE_SIDE_STYLE( '', ( #300 ) );
#189 = EDGE_LOOP( '', ( #301, #302, #303, #304 ) );
#190 = AXIS2_PLACEMENT_3D( '', #305, #306, #307 );
#191 = SURFACE_SIDE_STYLE( '', ( #308 ) );
#192 = EDGE_LOOP( '', ( #309, #310, #311, #312, #313, #314 ) );
#193 = AXIS2_PLACEMENT_3D( '', #315, #316, #317 );
#194 = SURFACE_SIDE_STYLE( '', ( #318 ) );
#195 = EDGE_LOOP( '', ( #319, #320, #321, #322 ) );
#196 = AXIS2_PLACEMENT_3D( '', #323, #324, #325 );
#197 = SURFACE_SIDE_STYLE( '', ( #326 ) );
#198 = EDGE_LOOP( '', ( #327, #328, #329, #330 ) );
#199 = AXIS2_PLACEMENT_3D( '', #331, #332, #333 );
#200 = SURFACE_SIDE_STYLE( '', ( #334 ) );
#201 = EDGE_LOOP( '', ( #335, #336 ) );
#202 = AXIS2_PLACEMENT_3D( '', #337, #338, #339 );
#203 = SURFACE_SIDE_STYLE( '', ( #340 ) );
#204 = EDGE_LOOP( '', ( #341, #342, #343, #344 ) );
#205 = AXIS2_PLACEMENT_3D( '', #345, #346, #347 );
#206 = SURFACE_SIDE_STYLE( '', ( #348 ) );
#207 = EDGE_LOOP( '', ( #349, #350, #351, #352 ) );
#208 = AXIS2_PLACEMENT_3D( '', #353, #354, #355 );
#209 = SURFACE_SIDE_STYLE( '', ( #356 ) );
#210 = EDGE_LOOP( '', ( #357, #358, #359, #360 ) );
#211 = AXIS2_PLACEMENT_3D( '', #361, #362, #363 );
#212 = SURFACE_SIDE_STYLE( '', ( #364 ) );
#213 = EDGE_LOOP( '', ( #365, #366, #367, #368 ) );
#214 = AXIS2_PLACEMENT_3D( '', #369, #370, #371 );
#215 = SURFACE_SIDE_STYLE( '', ( #372 ) );
#216 = EDGE_LOOP( '', ( #373, #374, #375, #376, #377, #378 ) );
#217 = AXIS2_PLACEMENT_3D( '', #379, #380, #381 );
#218 = SURFACE_SIDE_STYLE( '', ( #382 ) );
#219 = EDGE_LOOP( '', ( #383, #384 ) );
#220 = AXIS2_PLACEMENT_3D( '', #385, #386, #387 );
#221 = SURFACE_SIDE_STYLE( '', ( #388 ) );
#222 = EDGE_LOOP( '', ( #389, #390, #391, #392, #393, #394, #395, #396, #397, #398, #399, #400, #401, #402, #403, #404 ) );
#223 = AXIS2_PLACEMENT_3D( '', #405, #406, #407 );
#224 = SURFACE_SIDE_STYLE( '', ( #408 ) );
#225 = EDGE_LOOP( '', ( #409, #410, #411, #412 ) );
#226 = AXIS2_PLACEMENT_3D( '', #413, #414, #415 );
#228 = SURFACE_STYLE_FILL_AREA( #416 );
#229 = ORIENTED_EDGE( '', *, *, #417, .T. );
#230 = ORIENTED_EDGE( '', *, *, #418, .F. );
#231 = ORIENTED_EDGE( '', *, *, #419, .F. );
#232 = ORIENTED_EDGE( '', *, *, #420, .T. );
#233 = CARTESIAN_POINT( '', ( 0.0180963086730599, 0.00000000000000, 0.00000000000000 ) );
#234 = DIRECTION( '', ( 1.00000000000000, -0.00000000000000, -0.00000000000000 ) );
#235 = DIRECTION( '', ( 0.00000000000000, 0.00000000000000, 1.00000000000000 ) );
#236 = SURFACE_STYLE_FILL_AREA( #421 );
#237 = ORIENTED_EDGE( '', *, *, #422, .F. );
#238 = ORIENTED_EDGE( '', *, *, #423, .T. );
#239 = ORIENTED_EDGE( '', *, *, #424, .T. );
#240 = ORIENTED_EDGE( '', *, *, #425, .T. );
#241 = ORIENTED_EDGE( '', *, *, #426, .T. );
#242 = ORIENTED_EDGE( '', *, *, #427, .T. );
#243 = ORIENTED_EDGE( '', *, *, #428, .F. );
#244 = ORIENTED_EDGE( '', *, *, #429, .T. );
#245 = ORIENTED_EDGE( '', *, *, #418, .T. );
#246 = ORIENTED_EDGE( '', *, *, #430, .T. );
#247 = ORIENTED_EDGE( '', *, *, #431, .T. );
#248 = ORIENTED_EDGE( '', *, *, #432, .T. );
#249 = ORIENTED_EDGE( '', *, *, #433, .T. );
#250 = ORIENTED_EDGE( '', *, *, #434, .T. );
#251 = ORIENTED_EDGE( '', *, *, #435, .T. );
#252 = ORIENTED_EDGE( '', *, *, #436, .T. );
#253 = CARTESIAN_POINT( '', ( 0.00000000000000, 0.00000000000000, 0.00160020000000000 ) );
#254 = DIRECTION( '', ( 0.00000000000000, 0.00000000000000, -1.00000000000000 ) );
#255 = DIRECTION( '', ( -1.00000000000000, 0.00000000000000, 0.00000000000000 ) );
#256 = SURFACE_STYLE_FILL_AREA( #437 );
#257 = ORIENTED_EDGE( '', *, *, #438, .F. );
#258 = ORIENTED_EDGE( '', *, *, #439, .F. );
#259 = ORIENTED_EDGE( '', *, *, #440, .F. );
#260 = ORIENTED_EDGE( '', *, *, #423, .F. );
#261 = ORIENTED_EDGE( '', *, *, #441, .F. );
#262 = ORIENTED_EDGE( '', *, *, #442, .F. );
#263 = CARTESIAN_POINT( '', ( 0.0110490000000000, 0.00000000000000, 0.00000000000000 ) );
#264 = DIRECTION( '', ( -1.00000000000000, 0.00000000000000, 0.00000000000000 ) );
#265 = DIRECTION( '', ( 0.00000000000000, 0.00000000000000, 1.00000000000000 ) );
#266 = SURFACE_STYLE_FILL_AREA( #443 );
#267 = ORIENTED_EDGE( '', *, *, #444, .F. );
#268 = ORIENTED_EDGE( '', *, *, #441, .T. );
#269 = ORIENTED_EDGE( '', *, *, #422, .T. );
#270 = ORIENTED_EDGE( '', *, *, #445, .F. );
#271 = CARTESIAN_POINT( '', ( 0.0131064000000000, 0.00000000000000, 0.00000000000000 ) );
#272 = DIRECTION( '', ( 1.00000000000000, -0.00000000000000, -0.00000000000000 ) );
#273 = DIRECTION( '', ( 0.00000000000000, 0.00000000000000, 1.00000000000000 ) );
#274 = SURFACE_STYLE_FILL_AREA( #446 );
#275 = ORIENTED_EDGE( '', *, *, #447, .F. );
#276 = ORIENTED_EDGE( '', *, *, #448, .F. );
#277 = ORIENTED_EDGE( '', *, *, #449, .F. );
#278 = ORIENTED_EDGE( '', *, *, #450, .F. );
#279 = ORIENTED_EDGE( '', *, *, #451, .F. );
#280 = ORIENTED_EDGE( '', *, *, #427, .F. );
#281 = CARTESIAN_POINT( '', ( 0.0110490000000000, 0.00000000000000, 0.00000000000000 ) );
#282 = DIRECTION( '', ( -1.00000000000000, 0.00000000000000, 0.00000000000000 ) );
#283 = DIRECTION( '', ( 0.00000000000000, 0.00000000000000, 1.00000000000000 ) );
#284 = SURFACE_STYLE_FILL_AREA( #452 );
#285 = ORIENTED_EDGE( '', *, *, #428, .T. );
#286 = ORIENTED_EDGE( '', *, *, #451, .T. );
#287 = ORIENTED_EDGE( '', *, *, #453, .F. );
#288 = ORIENTED_EDGE( '', *, *, #454, .T. );
#289 = CARTESIAN_POINT( '', ( 0.0131064000000000, 0.00000000000000, 0.00000000000000 ) );
#290 = DIRECTION( '', ( 1.00000000000000, -0.00000000000000, -0.00000000000000 ) );
#291 = DIRECTION( '', ( 0.00000000000000, 0.00000000000000, 1.00000000000000 ) );
#292 = SURFACE_STYLE_FILL_AREA( #455 );
#293 = ORIENTED_EDGE( '', *, *, #456, .T. );
#294 = ORIENTED_EDGE( '', *, *, #457, .F. );
#295 = ORIENTED_EDGE( '', *, *, #434, .F. );
#296 = ORIENTED_EDGE( '', *, *, #458, .T. );
#297 = CARTESIAN_POINT( '', ( 0.00203200000000000, -0.00254000000000000, 0.00160020000000000 ) );
#298 = DIRECTION( '', ( -1.00000000000000, 0.00000000000000, 0.00000000000000 ) );
#299 = DIRECTION( '', ( 0.00000000000000, 0.00000000000000, 1.00000000000000 ) );
#300 = SURFACE_STYLE_FILL_AREA( #459 );
#301 = ORIENTED_EDGE( '', *, *, #460, .T. );
#302 = ORIENTED_EDGE( '', *, *, #461, .F. );
#303 = ORIENTED_EDGE( '', *, *, #425, .F. );
#304 = ORIENTED_EDGE( '', *, *, #462, .T. );
#305 = CARTESIAN_POINT( '', ( 0.00876300000000000, 0.000406400000000000, 0.00160020000000000 ) );
#306 = DIRECTION( '', ( -1.00000000000000, 0.00000000000000, 0.00000000000000 ) );
#307 = DIRECTION( '', ( 0.00000000000000, 0.00000000000000, 1.00000000000000 ) );
#308 = SURFACE_STYLE_FILL_AREA( #463 );
#309 = ORIENTED_EDGE( '', *, *, #424, .F. );
#310 = ORIENTED_EDGE( '', *, *, #440, .T. );
#311 = ORIENTED_EDGE( '', *, *, #464, .T. );
#312 = ORIENTED_EDGE( '', *, *, #438, .T. );
#313 = ORIENTED_EDGE( '', *, *, #465, .T. );
#314 = ORIENTED_EDGE( '', *, *, #462, .F. );
#315 = CARTESIAN_POINT( '', ( 0.0116840000000000, -0.000406400000000000, 0.00160020000000000 ) );
#316 = DIRECTION( '', ( -7.42349998278332E-17, -1.00000000000000, 0.00000000000000 ) );
#317 = DIRECTION( '', ( 1.00000000000000, -7.42349998278332E-17, 0.00000000000000 ) );
#318 = SURFACE_STYLE_FILL_AREA( #466 );
#319 = ORIENTED_EDGE( '', *, *, #457, .T. );
#320 = ORIENTED_EDGE( '', *, *, #467, .T. );
#321 = ORIENTED_EDGE( '', *, *, #468, .F. );
#322 = ORIENTED_EDGE( '', *, *, #435, .F. );
#323 = CARTESIAN_POINT( '', ( 0.0180963086730599, 0.00000000000000, 0.00000000000000 ) );
#324 = DIRECTION( '', ( 1.00000000000000, -0.00000000000000, -0.00000000000000 ) );
#325 = DIRECTION( '', ( 0.00000000000000, 0.00000000000000, 1.00000000000000 ) );
#326 = SURFACE_STYLE_FILL_AREA( #469 );
#327 = ORIENTED_EDGE( '', *, *, #470, .T. );
#328 = ORIENTED_EDGE( '', *, *, #471, .F. );
#329 = ORIENTED_EDGE( '', *, *, #431, .F. );
#330 = ORIENTED_EDGE( '', *, *, #472, .T. );
#331 = CARTESIAN_POINT( '', ( 6.37673588316027E-19, 0.00254000000000000, 0.00160020000000000 ) );
#332 = DIRECTION( '', ( 0.00000000000000, -1.00000000000000, 0.00000000000000 ) );
#333 = DIRECTION( '', ( 0.00000000000000, 0.00000000000000, -1.00000000000000 ) );
#334 = SURFACE_STYLE_FILL_AREA( #473 );
#335 = ORIENTED_EDGE( '', *, *, #464, .F. );
#336 = ORIENTED_EDGE( '', *, *, #439, .T. );
#337 = CARTESIAN_POINT( '', ( 0.0116840000000000, -0.00203200000000000, 0.00160020000000000 ) );
#338 = DIRECTION( '', ( -1.00000000000000, 0.00000000000000, 0.00000000000000 ) );
#339 = DIRECTION( '', ( 0.00000000000000, 0.00000000000000, 1.00000000000000 ) );
#340 = SURFACE_STYLE_FILL_AREA( #474 );
#341 = ORIENTED_EDGE( '', *, *, #445, .T. );
#342 = ORIENTED_EDGE( '', *, *, #436, .F. );
#343 = ORIENTED_EDGE( '', *, *, #468, .T. );
#344 = ORIENTED_EDGE( '', *, *, #475, .T. );
#345 = CARTESIAN_POINT( '', ( 0.00990600000000000, -0.00182880000000000, 0.00160020000000000 ) );
#346 = DIRECTION( '', ( 1.00000000000000, 0.00000000000000, 0.00000000000000 ) );
#347 = DIRECTION( '', ( 0.00000000000000, 0.00000000000000, -1.00000000000000 ) );
#348 = SURFACE_STYLE_FILL_AREA( #476 );
#349 = ORIENTED_EDGE( '', *, *, #477, .T. );
#350 = ORIENTED_EDGE( '', *, *, #458, .F. );
#351 = ORIENTED_EDGE( '', *, *, #433, .F. );
#352 = ORIENTED_EDGE( '', *, *, #478, .T. );
#353 = CARTESIAN_POINT( '', ( 6.37673588316027E-19, -0.00254000000000000, 0.00160020000000000 ) );
#354 = DIRECTION( '', ( 0.00000000000000, 1.00000000000000, 0.00000000000000 ) );
#355 = DIRECTION( '', ( 0.00000000000000, 0.00000000000000, 1.00000000000000 ) );
#356 = SURFACE_STYLE_FILL_AREA( #479 );
#357 = ORIENTED_EDGE( '', *, *, #480, .T. );
#358 = ORIENTED_EDGE( '', *, *, #478, .F. );
#359 = ORIENTED_EDGE( '', *, *, #432, .F. );
#360 = ORIENTED_EDGE( '', *, *, #471, .T. );
#361 = CARTESIAN_POINT( '', ( 6.37673588316027E-19, 0.00254000000000000, 0.00160020000000000 ) );
#362 = DIRECTION( '', ( 1.00000000000000, 0.00000000000000, 0.00000000000000 ) );
#363 = DIRECTION( '', ( 0.00000000000000, 0.00000000000000, -1.00000000000000 ) );
#364 = SURFACE_STYLE_FILL_AREA( #481 );
#365 = ORIENTED_EDGE( '', *, *, #482, .T. );
#366 = ORIENTED_EDGE( '', *, *, #472, .F. );
#367 = ORIENTED_EDGE( '', *, *, #430, .F. );
#368 = ORIENTED_EDGE( '', *, *, #417, .F. );
#369 = CARTESIAN_POINT( '', ( 0.00203200000000000, 0.00254000000000000, 0.00160020000000000 ) );
#370 = DIRECTION( '', ( -1.00000000000000, 0.00000000000000, 0.00000000000000 ) );
#371 = DIRECTION( '', ( 0.00000000000000, 0.00000000000000, 1.00000000000000 ) );
#372 = SURFACE_STYLE_FILL_AREA( #483 );
#373 = ORIENTED_EDGE( '', *, *, #484, .T. );
#374 = ORIENTED_EDGE( '', *, *, #449, .T. );
#375 = ORIENTED_EDGE( '', *, *, #485, .F. );
#376 = ORIENTED_EDGE( '', *, *, #447, .T. );
#377 = ORIENTED_EDGE( '', *, *, #426, .F. );
#378 = ORIENTED_EDGE( '', *, *, #461, .T. );
#379 = CARTESIAN_POINT( '', ( 0.0116840000000000, 0.000406400000000000, 0.00160020000000000 ) );
#380 = DIRECTION( '', ( -7.42349998278332E-17, 1.00000000000000, 0.00000000000000 ) );
#381 = DIRECTION( '', ( -1.00000000000000, -7.42349998278332E-17, 0.00000000000000 ) );
#382 = SURFACE_STYLE_FILL_AREA( #486 );
#383 = ORIENTED_EDGE( '', *, *, #485, .T. );
#384 = ORIENTED_EDGE( '', *, *, #448, .T. );
#385 = CARTESIAN_POINT( '', ( 0.0116840000000000, 0.00203200000000000, 0.00160020000000000 ) );
#386 = DIRECTION( '', ( -1.00000000000000, 0.00000000000000, 0.00000000000000 ) );
#387 = DIRECTION( '', ( 0.00000000000000, 0.00000000000000, 1.00000000000000 ) );
#388 = SURFACE_STYLE_FILL_AREA( #487 );
#389 = ORIENTED_EDGE( '', *, *, #465, .F. );
#390 = ORIENTED_EDGE( '', *, *, #442, .T. );
#391 = ORIENTED_EDGE( '', *, *, #444, .T. );
#392 = ORIENTED_EDGE( '', *, *, #475, .F. );
#393 = ORIENTED_EDGE( '', *, *, #467, .F. );
#394 = ORIENTED_EDGE( '', *, *, #456, .F. );
#395 = ORIENTED_EDGE( '', *, *, #477, .F. );
#396 = ORIENTED_EDGE( '', *, *, #480, .F. );
#397 = ORIENTED_EDGE( '', *, *, #470, .F. );
#398 = ORIENTED_EDGE( '', *, *, #482, .F. );
#399 = ORIENTED_EDGE( '', *, *, #420, .F. );
#400 = ORIENTED_EDGE( '', *, *, #488, .F. );
#401 = ORIENTED_EDGE( '', *, *, #453, .T. );
#402 = ORIENTED_EDGE( '', *, *, #450, .T. );
#403 = ORIENTED_EDGE( '', *, *, #484, .F. );
#404 = ORIENTED_EDGE( '', *, *, #460, .F. );
#405 = CARTESIAN_POINT( '', ( 0.00000000000000, 0.00000000000000, -0.00160020000000000 ) );
#406 = DIRECTION( '', ( 0.00000000000000, 0.00000000000000, -1.00000000000000 ) );
#407 = DIRECTION( '', ( -1.00000000000000, 0.00000000000000, 0.00000000000000 ) );
#408 = SURFACE_STYLE_FILL_AREA( #489 );
#409 = ORIENTED_EDGE( '', *, *, #454, .F. );
#410 = ORIENTED_EDGE( '', *, *, #488, .T. );
#411 = ORIENTED_EDGE( '', *, *, #419, .T. );
#412 = ORIENTED_EDGE( '', *, *, #429, .F. );
#413 = CARTESIAN_POINT( '', ( 0.00990600000000000, 0.00182880000000000, 0.00160020000000000 ) );
#414 = DIRECTION( '', ( 1.00000000000000, 0.00000000000000, 0.00000000000000 ) );
#415 = DIRECTION( '', ( 0.00000000000000, 0.00000000000000, -1.00000000000000 ) );
#416 = FILL_AREA_STYLE( '', ( #490 ) );
#417 = EDGE_CURVE( '', #491, #492, #493, .T. );
#418 = EDGE_CURVE( '', #494, #492, #495, .T. );
#419 = EDGE_CURVE( '', #496, #494, #497, .T. );
#420 = EDGE_CURVE( '', #496, #491, #498, .T. );
#421 = FILL_AREA_STYLE( '', ( #499 ) );
#422 = EDGE_CURVE( '', #500, #501, #502, .T. );
#423 = EDGE_CURVE( '', #500, #503, #504, .T. );
#424 = EDGE_CURVE( '', #503, #505, #506, .T. );
#425 = EDGE_CURVE( '', #505, #507, #508, .T. );
#426 = EDGE_CURVE( '', #507, #509, #510, .T. );
#427 = EDGE_CURVE( '', #509, #511, #512, .T. );
#428 = EDGE_CURVE( '', #513, #511, #514, .F. );
#429 = EDGE_CURVE( '', #513, #494, #515, .T. );
#430 = EDGE_CURVE( '', #492, #516, #517, .T. );
#431 = EDGE_CURVE( '', #516, #518, #519, .T. );
#432 = EDGE_CURVE( '', #518, #520, #521, .T. );
#433 = EDGE_CURVE( '', #520, #522, #523, .T. );
#434 = EDGE_CURVE( '', #522, #524, #525, .T. );
#435 = EDGE_CURVE( '', #524, #526, #527, .F. );
#436 = EDGE_CURVE( '', #526, #501, #528, .T. );
#437 = FILL_AREA_STYLE( '', ( #529 ) );
#438 = EDGE_CURVE( '', #530, #531, #532, .T. );
#439 = EDGE_CURVE( '', #533, #530, #534, .F. );
#440 = EDGE_CURVE( '', #503, #533, #535, .T. );
#441 = EDGE_CURVE( '', #536, #500, #537, .T. );
#442 = EDGE_CURVE( '', #531, #536, #538, .T. );
#443 = FILL_AREA_STYLE( '', ( #539 ) );
#444 = EDGE_CURVE( '', #536, #540, #541, .T. );
#445 = EDGE_CURVE( '', #540, #501, #542, .T. );
#446 = FILL_AREA_STYLE( '', ( #543 ) );
#447 = EDGE_CURVE( '', #544, #509, #545, .T. );
#448 = EDGE_CURVE( '', #546, #544, #547, .F. );
#449 = EDGE_CURVE( '', #548, #546, #549, .T. );
#450 = EDGE_CURVE( '', #550, #548, #551, .T. );
#451 = EDGE_CURVE( '', #511, #550, #552, .T. );
#452 = FILL_AREA_STYLE( '', ( #553 ) );
#453 = EDGE_CURVE( '', #554, #550, #555, .F. );
#454 = EDGE_CURVE( '', #554, #513, #556, .T. );
#455 = FILL_AREA_STYLE( '', ( #557 ) );
#456 = EDGE_CURVE( '', #558, #559, #560, .T. );
#457 = EDGE_CURVE( '', #524, #559, #561, .T. );
#458 = EDGE_CURVE( '', #522, #558, #562, .T. );
#459 = FILL_AREA_STYLE( '', ( #563 ) );
#460 = EDGE_CURVE( '', #564, #565, #566, .T. );
#461 = EDGE_CURVE( '', #507, #565, #567, .T. );
#462 = EDGE_CURVE( '', #505, #564, #568, .T. );
#463 = FILL_AREA_STYLE( '', ( #569 ) );
#464 = EDGE_CURVE( '', #533, #530, #570, .T. );
#465 = EDGE_CURVE( '', #531, #564, #571, .T. );
#466 = FILL_AREA_STYLE( '', ( #572 ) );
#467 = EDGE_CURVE( '', #559, #573, #574, .F. );
#468 = EDGE_CURVE( '', #526, #573, #575, .T. );
#469 = FILL_AREA_STYLE( '', ( #576 ) );
#470 = EDGE_CURVE( '', #577, #578, #579, .T. );
#471 = EDGE_CURVE( '', #518, #578, #580, .T. );
#472 = EDGE_CURVE( '', #516, #577, #581, .T. );
#473 = FILL_AREA_STYLE( '', ( #582 ) );
#474 = FILL_AREA_STYLE( '', ( #583 ) );
#475 = EDGE_CURVE( '', #573, #540, #584, .T. );
#476 = FILL_AREA_STYLE( '', ( #585 ) );
#477 = EDGE_CURVE( '', #586, #558, #587, .T. );
#478 = EDGE_CURVE( '', #520, #586, #588, .T. );
#479 = FILL_AREA_STYLE( '', ( #589 ) );
#480 = EDGE_CURVE( '', #578, #586, #590, .T. );
#481 = FILL_AREA_STYLE( '', ( #591 ) );
#482 = EDGE_CURVE( '', #491, #577, #592, .T. );
#483 = FILL_AREA_STYLE( '', ( #593 ) );
#484 = EDGE_CURVE( '', #565, #548, #594, .T. );
#485 = EDGE_CURVE( '', #544, #546, #595, .T. );
#486 = FILL_AREA_STYLE( '', ( #596 ) );
#487 = FILL_AREA_STYLE( '', ( #597 ) );
#488 = EDGE_CURVE( '', #554, #496, #598, .T. );
#489 = FILL_AREA_STYLE( '', ( #599 ) );
#490 = FILL_AREA_STYLE_COLOUR( '', #600 );
#491 = VERTEX_POINT( '', #601 );
#492 = VERTEX_POINT( '', #602 );
#493 = CIRCLE( '', #603, 0.00182880000000000 );
#494 = VERTEX_POINT( '', #604 );
#495 = LINE( '', #605, #606 );
#496 = VERTEX_POINT( '', #607 );
#497 = CIRCLE( '', #608, 0.00182880000000000 );
#498 = LINE( '', #609, #610 );
#499 = FILL_AREA_STYLE_COLOUR( '', #611 );
#500 = VERTEX_POINT( '', #612 );
#501 = VERTEX_POINT( '', #613 );
#502 = LINE( '', #614, #615 );
#503 = VERTEX_POINT( '', #616 );
#504 = B_SPLINE_CURVE_WITH_KNOTS( '', 3, ( #617, #618, #619, #620, #621, #622, #623, #624 ), .UNSPECIFIED., .F., .F., ( 4, 2, 2, 4 ), ( 0.00000000000000, 0.000279394823011866, 0.000558789646023732, 0.00111757929204746 ), .UNSPECIFIED. );
#505 = VERTEX_POINT( '', #625 );
#506 = LINE( '', #626, #627 );
#507 = VERTEX_POINT( '', #628 );
#508 = LINE( '', #629, #630 );
#509 = VERTEX_POINT( '', #631 );
#510 = LINE( '', #632, #633 );
#511 = VERTEX_POINT( '', #634 );
#512 = B_SPLINE_CURVE_WITH_KNOTS( '', 3, ( #635, #636, #637, #638, #639, #640, #641, #642, #643, #644 ), .UNSPECIFIED., .F., .F., ( 4, 2, 2, 2, 4 ), ( 0.00000000000000, 0.000278894977030828, 0.000557789954061656, 0.000836684931092484, 0.00111557990812331 ), .UNSPECIFIED. );
#513 = VERTEX_POINT( '', #645 );
#514 = LINE( '', #646, #647 );
#515 = LINE( '', #648, #649 );
#516 = VERTEX_POINT( '', #650 );
#517 = LINE( '', #651, #652 );
#518 = VERTEX_POINT( '', #653 );
#519 = LINE( '', #654, #655 );
#520 = VERTEX_POINT( '', #656 );
#521 = LINE( '', #657, #658 );
#522 = VERTEX_POINT( '', #659 );
#523 = LINE( '', #660, #661 );
#524 = VERTEX_POINT( '', #662 );
#525 = LINE( '', #663, #664 );
#526 = VERTEX_POINT( '', #665 );
#527 = LINE( '', #666, #667 );
#528 = LINE( '', #668, #669 );
#529 = FILL_AREA_STYLE_COLOUR( '', #670 );
#530 = VERTEX_POINT( '', #671 );
#531 = VERTEX_POINT( '', #672 );
#532 = B_SPLINE_CURVE_WITH_KNOTS( '', 3, ( #673, #674, #675, #676 ), .UNSPECIFIED., .F., .F., ( 4, 4 ), ( 0.00000000000000, 0.000269034596607920 ), .UNSPECIFIED. );
#533 = VERTEX_POINT( '', #677 );
#534 = CIRCLE( '', #678, 0.00139700000000000 );
#535 = B_SPLINE_CURVE_WITH_KNOTS( '', 3, ( #679, #680, #681, #682 ), .UNSPECIFIED., .F., .F., ( 4, 4 ), ( 0.00000000000000, 0.000269024262866481 ), .UNSPECIFIED. );
#536 = VERTEX_POINT( '', #683 );
#537 = CIRCLE( '', #684, 0.00203200000000000 );
#538 = B_SPLINE_CURVE_WITH_KNOTS( '', 3, ( #685, #686, #687, #688, #689, #690, #691, #692, #693, #694 ), .UNSPECIFIED., .F., .F., ( 4, 2, 2, 2, 4 ), ( 0.00000000000000, 0.000278894977030828, 0.000557789954061656, 0.000836684931092484, 0.00111557990812331 ), .UNSPECIFIED. );
#539 = FILL_AREA_STYLE_COLOUR( '', #695 );
#540 = VERTEX_POINT( '', #696 );
#541 = LINE( '', #697, #698 );
#542 = CIRCLE( '', #699, 0.00203200000000000 );
#543 = FILL_AREA_STYLE_COLOUR( '', #700 );
#544 = VERTEX_POINT( '', #701 );
#545 = B_SPLINE_CURVE_WITH_KNOTS( '', 3, ( #702, #703, #704, #705 ), .UNSPECIFIED., .F., .F., ( 4, 4 ), ( 0.00000000000000, 0.000269034596607920 ), .UNSPECIFIED. );
#546 = VERTEX_POINT( '', #706 );
#547 = CIRCLE( '', #707, 0.00139700000000000 );
#548 = VERTEX_POINT( '', #708 );
#549 = B_SPLINE_CURVE_WITH_KNOTS( '', 3, ( #709, #710, #711, #712 ), .UNSPECIFIED., .F., .F., ( 4, 4 ), ( 0.00000000000000, 0.000269024262866481 ), .UNSPECIFIED. );
#550 = VERTEX_POINT( '', #713 );
#551 = B_SPLINE_CURVE_WITH_KNOTS( '', 3, ( #714, #715, #716, #717, #718, #719, #720, #721 ), .UNSPECIFIED., .F., .F., ( 4, 2, 2, 4 ), ( 0.00000000000000, 0.000279394823011866, 0.000558789646023732, 0.00111757929204746 ), .UNSPECIFIED. );
#552 = CIRCLE( '', #722, 0.00203200000000000 );
#553 = FILL_AREA_STYLE_COLOUR( '', #723 );
#554 = VERTEX_POINT( '', #724 );
#555 = LINE( '', #725, #726 );
#556 = CIRCLE( '', #727, 0.00203200000000000 );
#557 = FILL_AREA_STYLE_COLOUR( '', #728 );
#558 = VERTEX_POINT( '', #729 );
#559 = VERTEX_POINT( '', #730 );
#560 = LINE( '', #731, #732 );
#561 = CIRCLE( '', #733, 0.00182880000000000 );
#562 = LINE( '', #734, #735 );
#563 = FILL_AREA_STYLE_COLOUR( '', #736 );
#564 = VERTEX_POINT( '', #737 );
#565 = VERTEX_POINT( '', #738 );
#566 = LINE( '', #739, #740 );
#567 = LINE( '', #741, #742 );
#568 = LINE( '', #743, #744 );
#569 = FILL_AREA_STYLE_COLOUR( '', #745 );
#570 = LINE( '', #746, #747 );
#571 = LINE( '', #748, #749 );
#572 = FILL_AREA_STYLE_COLOUR( '', #750 );
#573 = VERTEX_POINT( '', #751 );
#574 = LINE( '', #752, #753 );
#575 = CIRCLE( '', #754, 0.00182880000000000 );
#576 = FILL_AREA_STYLE_COLOUR( '', #755 );
#577 = VERTEX_POINT( '', #756 );
#578 = VERTEX_POINT( '', #757 );
#579 = LINE( '', #758, #759 );
#580 = LINE( '', #760, #761 );
#581 = LINE( '', #762, #763 );
#582 = FILL_AREA_STYLE_COLOUR( '', #764 );
#583 = FILL_AREA_STYLE_COLOUR( '', #765 );
#584 = LINE( '', #766, #767 );
#585 = FILL_AREA_STYLE_COLOUR( '', #768 );
#586 = VERTEX_POINT( '', #769 );
#587 = LINE( '', #770, #771 );
#588 = LINE( '', #772, #773 );
#589 = FILL_AREA_STYLE_COLOUR( '', #774 );
#590 = LINE( '', #775, #776 );
#591 = FILL_AREA_STYLE_COLOUR( '', #777 );
#592 = LINE( '', #778, #779 );
#593 = FILL_AREA_STYLE_COLOUR( '', #780 );
#594 = LINE( '', #781, #782 );
#595 = LINE( '', #783, #784 );
#596 = FILL_AREA_STYLE_COLOUR( '', #785 );
#597 = FILL_AREA_STYLE_COLOUR( '', #786 );
#598 = LINE( '', #787, #788 );
#599 = FILL_AREA_STYLE_COLOUR( '', #789 );
#600 = COLOUR_RGB( '', 0.796078443500000, 0.823529422300000, 0.933333337300000 );
#601 = CARTESIAN_POINT( '', ( 0.00203200000000000, 0.000885363992943015, -0.00160020000000000 ) );
#602 = CARTESIAN_POINT( '', ( 0.00203200000000000, 0.000885363992943015, 0.00160020000000000 ) );
#603 = AXIS2_PLACEMENT_3D( '', #790, #791, #792 );
#604 = CARTESIAN_POINT( '', ( 0.00990600000000000, 0.000885363992943015, 0.00160020000000000 ) );
#605 = CARTESIAN_POINT( '', ( 0.0180963086730599, 0.000885363992943015, 0.00160020000000000 ) );
#606 = VECTOR( '', #793, 1.00000000000000 );
#607 = CARTESIAN_POINT( '', ( 0.00990600000000000, 0.000885363992943015, -0.00160020000000000 ) );
#608 = AXIS2_PLACEMENT_3D( '', #794, #795, #796 );
#609 = CARTESIAN_POINT( '', ( 0.0180963086730599, 0.000885363992943015, -0.00160020000000000 ) );
#610 = VECTOR( '', #797, 1.00000000000000 );
#611 = COLOUR_RGB( '', 0.796078443500000, 0.823529422300000, 0.933333337300000 );
#612 = CARTESIAN_POINT( '', ( 0.0110490000000000, -0.00125235137241910, 0.00160020000000000 ) );
#613 = CARTESIAN_POINT( '', ( 0.00990600000000000, -0.00125235137241910, 0.00160020000000000 ) );
#614 = CARTESIAN_POINT( '', ( 0.0131064000000000, -0.00125235137241910, 0.00160020000000000 ) );
#615 = VECTOR( '', #798, 1.00000000000000 );
#616 = CARTESIAN_POINT( '', ( 0.0116309871132594, -0.000406400000000000, 0.00160020000000000 ) );
#617 = CARTESIAN_POINT( '', ( 0.0110490000000000, -0.00125235137241910, 0.00160020000000000 ) );
#618 = CARTESIAN_POINT( '', ( 0.0111438432985587, -0.00125235137241910, 0.00160020000000000 ) );
#619 = CARTESIAN_POINT( '', ( 0.0112344437331466, -0.00121690588306966, 0.00160020000000000 ) );
#620 = CARTESIAN_POINT( '', ( 0.0113838569938000, -0.00110255903842906, 0.00160020000000000 ) );
#621 = CARTESIAN_POINT( '', ( 0.0114417033921867, -0.00102627795051935, 0.00160020000000000 ) );
#622 = CARTESIAN_POINT( '', ( 0.0115741021383813, -0.000779279419440637, 0.00160020000000000 ) );
#623 = CARTESIAN_POINT( '', ( 0.0116109752382341, -0.000592677674581308, 0.00160020000000000 ) );
#624 = CARTESIAN_POINT( '', ( 0.0116309871132594, -0.000406400000000000, 0.00160020000000000 ) );
#625 = CARTESIAN_POINT( '', ( 0.00876300000000000, -0.000406400000000000, 0.00160020000000000 ) );
#626 = CARTESIAN_POINT( '', ( 0.0116840000000000, -0.000406400000000000, 0.00160020000000000 ) );
#627 = VECTOR( '', #799, 1.00000000000000 );
#628 = CARTESIAN_POINT( '', ( 0.00876300000000000, 0.000406400000000000, 0.00160020000000000 ) );
#629 = CARTESIAN_POINT( '', ( 0.00876300000000000, 0.000406400000000000, 0.00160020000000000 ) );
#630 = VECTOR( '', #800, 1.00000000000000 );
#631 = CARTESIAN_POINT( '', ( 0.0116309871132594, 0.000406400000000000, 0.00160020000000000 ) );
#632 = CARTESIAN_POINT( '', ( 0.0116840000000000, 0.000406400000000000, 0.00160020000000000 ) );
#633 = VECTOR( '', #801, 1.00000000000000 );
#634 = CARTESIAN_POINT( '', ( 0.0110490000000000, 0.00125235137241910, 0.00160020000000000 ) );
#635 = CARTESIAN_POINT( '', ( 0.0116309871132594, 0.000406400000000000, 0.00160020000000000 ) );
#636 = CARTESIAN_POINT( '', ( 0.0116209946442350, 0.000499413467795448, 0.00160020000000000 ) );
#637 = CARTESIAN_POINT( '', ( 0.0116064530928869, 0.000591415468905529, 0.00160020000000000 ) );
#638 = CARTESIAN_POINT( '', ( 0.0115612005507682, 0.000771824273647700, 0.00160020000000000 ) );
#639 = CARTESIAN_POINT( '', ( 0.0115300644061639, 0.000861349580891745, 0.00160020000000000 ) );
#640 = CARTESIAN_POINT( '', ( 0.0114419635897226, 0.00102587730422430, 0.00160020000000000 ) );
#641 = CARTESIAN_POINT( '', ( 0.0113842437502280, 0.00110210164205451, 0.00160020000000000 ) );
#642 = CARTESIAN_POINT( '', ( 0.0112351719445065, 0.00121650878569786, 0.00160020000000000 ) );
#643 = CARTESIAN_POINT( '', ( 0.0111437708213855, 0.00125235137241910, 0.00160020000000000 ) );
#644 = CARTESIAN_POINT( '', ( 0.0110490000000000, 0.00125235137241910, 0.00160020000000000 ) );
#645 = CARTESIAN_POINT( '', ( 0.00990600000000000, 0.00125235137241910, 0.00160020000000000 ) );
#646 = CARTESIAN_POINT( '', ( 0.0131064000000000, 0.00125235137241910, 0.00160020000000000 ) );
#647 = VECTOR( '', #802, 1.00000000000000 );
#648 = CARTESIAN_POINT( '', ( 0.00990600000000000, 0.00182880000000000, 0.00160020000000000 ) );
#649 = VECTOR( '', #803, 1.00000000000000 );
#650 = CARTESIAN_POINT( '', ( 0.00203200000000000, 0.00254000000000000, 0.00160020000000000 ) );
#651 = CARTESIAN_POINT( '', ( 0.00203200000000000, 0.00254000000000000, 0.00160020000000000 ) );
#652 = VECTOR( '', #804, 1.00000000000000 );
#653 = CARTESIAN_POINT( '', ( 6.37673588316027E-19, 0.00254000000000000, 0.00160020000000000 ) );
#654 = CARTESIAN_POINT( '', ( 6.37673588316027E-19, 0.00254000000000000, 0.00160020000000000 ) );
#655 = VECTOR( '', #805, 1.00000000000000 );
#656 = CARTESIAN_POINT( '', ( 6.37673588316027E-19, -0.00254000000000000, 0.00160020000000000 ) );
#657 = CARTESIAN_POINT( '', ( 6.37673588316027E-19, 0.00254000000000000, 0.00160020000000000 ) );
#658 = VECTOR( '', #806, 1.00000000000000 );
#659 = CARTESIAN_POINT( '', ( 0.00203200000000000, -0.00254000000000000, 0.00160020000000000 ) );
#660 = CARTESIAN_POINT( '', ( 6.37673588316027E-19, -0.00254000000000000, 0.00160020000000000 ) );
#661 = VECTOR( '', #807, 1.00000000000000 );
#662 = CARTESIAN_POINT( '', ( 0.00203200000000000, -0.000885363992943015, 0.00160020000000000 ) );
#663 = CARTESIAN_POINT( '', ( 0.00203200000000000, -0.00254000000000000, 0.00160020000000000 ) );
#664 = VECTOR( '', #808, 1.00000000000000 );
#665 = CARTESIAN_POINT( '', ( 0.00990600000000000, -0.000885363992943015, 0.00160020000000000 ) );
#666 = CARTESIAN_POINT( '', ( 0.0180963086730599, -0.000885363992943015, 0.00160020000000000 ) );
#667 = VECTOR( '', #809, 1.00000000000000 );
#668 = CARTESIAN_POINT( '', ( 0.00990600000000000, -0.00182880000000000, 0.00160020000000000 ) );
#669 = VECTOR( '', #810, 1.00000000000000 );
#670 = COLOUR_RGB( '', 0.796078443500000, 0.823529422300000, 0.933333337300000 );
#671 = CARTESIAN_POINT( '', ( 0.0116840000000000, -0.000406400000000000, -0.00133658072707936 ) );
#672 = CARTESIAN_POINT( '', ( 0.0116309871132594, -0.000406400000000000, -0.00160020000000000 ) );
#673 = CARTESIAN_POINT( '', ( 0.0116840000000000, -0.000406400000000000, -0.00133658072707936 ) );
#674 = CARTESIAN_POINT( '', ( 0.0116840000000000, -0.000406400000000000, -0.00142752206617362 ) );
#675 = CARTESIAN_POINT( '', ( 0.0116664307777119, -0.000406400000000000, -0.00151641021514364 ) );
#676 = CARTESIAN_POINT( '', ( 0.0116309871132594, -0.000406400000000000, -0.00160020000000000 ) );
#677 = CARTESIAN_POINT( '', ( 0.0116840000000000, -0.000406400000000000, 0.00133658072707936 ) );
#678 = AXIS2_PLACEMENT_3D( '', #811, #812, #813 );
#679 = CARTESIAN_POINT( '', ( 0.0116309871132594, -0.000406400000000000, 0.00160020000000000 ) );
#680 = CARTESIAN_POINT( '', ( 0.0116664371092758, -0.000406400000000000, 0.00151639524715454 ) );
#681 = CARTESIAN_POINT( '', ( 0.0116840000000000, -0.000406400000000000, 0.00142753870006487 ) );
#682 = CARTESIAN_POINT( '', ( 0.0116840000000000, -0.000406400000000000, 0.00133658072707936 ) );
#683 = CARTESIAN_POINT( '', ( 0.0110490000000000, -0.00125235137241910, -0.00160020000000000 ) );
#684 = AXIS2_PLACEMENT_3D( '', #814, #815, #816 );
#685 = CARTESIAN_POINT( '', ( 0.0116309871132594, -0.000406400000000000, -0.00160020000000000 ) );
#686 = CARTESIAN_POINT( '', ( 0.0116209946442350, -0.000499413467795448, -0.00160020000000000 ) );
#687 = CARTESIAN_POINT( '', ( 0.0116064530928869, -0.000591415468905529, -0.00160020000000000 ) );
#688 = CARTESIAN_POINT( '', ( 0.0115612005507682, -0.000771824273647700, -0.00160020000000000 ) );
#689 = CARTESIAN_POINT( '', ( 0.0115300644061639, -0.000861349580891745, -0.00160020000000000 ) );
#690 = CARTESIAN_POINT( '', ( 0.0114419635897226, -0.00102587730422430, -0.00160020000000000 ) );
#691 = CARTESIAN_POINT( '', ( 0.0113842437502280, -0.00110210164205451, -0.00160020000000000 ) );
#692 = CARTESIAN_POINT( '', ( 0.0112351719445065, -0.00121650878569786, -0.00160020000000000 ) );
#693 = CARTESIAN_POINT( '', ( 0.0111437708213855, -0.00125235137241910, -0.00160020000000000 ) );
#694 = CARTESIAN_POINT( '', ( 0.0110490000000000, -0.00125235137241910, -0.00160020000000000 ) );
#695 = COLOUR_RGB( '', 0.796078443500000, 0.823529422300000, 0.933333337300000 );
#696 = CARTESIAN_POINT( '', ( 0.00990600000000000, -0.00125235137241910, -0.00160020000000000 ) );
#697 = CARTESIAN_POINT( '', ( 0.0131064000000000, -0.00125235137241910, -0.00160020000000000 ) );
#698 = VECTOR( '', #817, 1.00000000000000 );
#699 = AXIS2_PLACEMENT_3D( '', #818, #819, #820 );
#700 = COLOUR_RGB( '', 0.796078443500000, 0.823529422300000, 0.933333337300000 );
#701 = CARTESIAN_POINT( '', ( 0.0116840000000000, 0.000406400000000000, 0.00133658072707936 ) );
#702 = CARTESIAN_POINT( '', ( 0.0116840000000000, 0.000406400000000000, 0.00133658072707936 ) );
#703 = CARTESIAN_POINT( '', ( 0.0116840000000000, 0.000406400000000000, 0.00142752206617362 ) );
#704 = CARTESIAN_POINT( '', ( 0.0116664307777119, 0.000406400000000000, 0.00151641021514364 ) );
#705 = CARTESIAN_POINT( '', ( 0.0116309871132594, 0.000406400000000000, 0.00160020000000000 ) );
#706 = CARTESIAN_POINT( '', ( 0.0116840000000000, 0.000406400000000000, -0.00133658072707936 ) );
#707 = AXIS2_PLACEMENT_3D( '', #821, #822, #823 );
#708 = CARTESIAN_POINT( '', ( 0.0116309871132594, 0.000406400000000000, -0.00160020000000000 ) );
#709 = CARTESIAN_POINT( '', ( 0.0116309871132594, 0.000406400000000000, -0.00160020000000000 ) );
#710 = CARTESIAN_POINT( '', ( 0.0116664371092758, 0.000406400000000000, -0.00151639524715454 ) );
#711 = CARTESIAN_POINT( '', ( 0.0116840000000000, 0.000406400000000000, -0.00142753870006487 ) );
#712 = CARTESIAN_POINT( '', ( 0.0116840000000000, 0.000406400000000000, -0.00133658072707936 ) );
#713 = CARTESIAN_POINT( '', ( 0.0110490000000000, 0.00125235137241910, -0.00160020000000000 ) );
#714 = CARTESIAN_POINT( '', ( 0.0110490000000000, 0.00125235137241910, -0.00160020000000000 ) );
#715 = CARTESIAN_POINT( '', ( 0.0111438432985587, 0.00125235137241910, -0.00160020000000000 ) );
#716 = CARTESIAN_POINT( '', ( 0.0112344437331466, 0.00121690588306966, -0.00160020000000000 ) );
#717 = CARTESIAN_POINT( '', ( 0.0113838569938000, 0.00110255903842906, -0.00160020000000000 ) );
#718 = CARTESIAN_POINT( '', ( 0.0114417033921867, 0.00102627795051935, -0.00160020000000000 ) );
#719 = CARTESIAN_POINT( '', ( 0.0115741021383813, 0.000779279419440637, -0.00160020000000000 ) );
#720 = CARTESIAN_POINT( '', ( 0.0116109752382341, 0.000592677674581308, -0.00160020000000000 ) );
#721 = CARTESIAN_POINT( '', ( 0.0116309871132594, 0.000406400000000000, -0.00160020000000000 ) );
#722 = AXIS2_PLACEMENT_3D( '', #824, #825, #826 );
#723 = COLOUR_RGB( '', 0.796078443500000, 0.823529422300000, 0.933333337300000 );
#724 = CARTESIAN_POINT( '', ( 0.00990600000000000, 0.00125235137241910, -0.00160020000000000 ) );
#725 = CARTESIAN_POINT( '', ( 0.0131064000000000, 0.00125235137241910, -0.00160020000000000 ) );
#726 = VECTOR( '', #827, 1.00000000000000 );
#727 = AXIS2_PLACEMENT_3D( '', #828, #829, #830 );
#728 = COLOUR_RGB( '', 0.796078443500000, 0.823529422300000, 0.933333337300000 );
#729 = CARTESIAN_POINT( '', ( 0.00203200000000000, -0.00254000000000000, -0.00160020000000000 ) );
#730 = CARTESIAN_POINT( '', ( 0.00203200000000000, -0.000885363992943015, -0.00160020000000000 ) );
#731 = CARTESIAN_POINT( '', ( 0.00203200000000000, -0.00254000000000000, -0.00160020000000000 ) );
#732 = VECTOR( '', #831, 1.00000000000000 );
#733 = AXIS2_PLACEMENT_3D( '', #832, #833, #834 );
#734 = CARTESIAN_POINT( '', ( 0.00203200000000000, -0.00254000000000000, 0.00160020000000000 ) );
#735 = VECTOR( '', #835, 1.00000000000000 );
#736 = COLOUR_RGB( '', 0.796078443500000, 0.823529422300000, 0.933333337300000 );
#737 = CARTESIAN_POINT( '', ( 0.00876300000000000, -0.000406400000000000, -0.00160020000000000 ) );
#738 = CARTESIAN_POINT( '', ( 0.00876300000000000, 0.000406400000000000, -0.00160020000000000 ) );
#739 = CARTESIAN_POINT( '', ( 0.00876300000000000, 0.000406400000000000, -0.00160020000000000 ) );
#740 = VECTOR( '', #836, 1.00000000000000 );
#741 = CARTESIAN_POINT( '', ( 0.00876300000000000, 0.000406400000000000, 0.00160020000000000 ) );
#742 = VECTOR( '', #837, 1.00000000000000 );
#743 = CARTESIAN_POINT( '', ( 0.00876300000000000, -0.000406400000000000, 0.00160020000000000 ) );
#744 = VECTOR( '', #838, 1.00000000000000 );
#745 = COLOUR_RGB( '', 0.796078443500000, 0.823529422300000, 0.933333337300000 );
#746 = CARTESIAN_POINT( '', ( 0.0116840000000000, -0.000406400000000000, 0.00160020000000000 ) );
#747 = VECTOR( '', #839, 1.00000000000000 );
#748 = CARTESIAN_POINT( '', ( 0.0116840000000000, -0.000406400000000000, -0.00160020000000000 ) );
#749 = VECTOR( '', #840, 1.00000000000000 );
#750 = COLOUR_RGB( '', 0.796078443500000, 0.823529422300000, 0.933333337300000 );
#751 = CARTESIAN_POINT( '', ( 0.00990600000000000, -0.000885363992943015, -0.00160020000000000 ) );
#752 = CARTESIAN_POINT( '', ( 0.0180963086730599, -0.000885363992943015, -0.00160020000000000 ) );
#753 = VECTOR( '', #841, 1.00000000000000 );
#754 = AXIS2_PLACEMENT_3D( '', #842, #843, #844 );
#755 = COLOUR_RGB( '', 0.796078443500000, 0.823529422300000, 0.933333337300000 );
#756 = CARTESIAN_POINT( '', ( 0.00203200000000000, 0.00254000000000000, -0.00160020000000000 ) );
#757 = CARTESIAN_POINT( '', ( 6.37673588316027E-19, 0.00254000000000000, -0.00160020000000000 ) );
#758 = CARTESIAN_POINT( '', ( 6.37673588316027E-19, 0.00254000000000000, -0.00160020000000000 ) );
#759 = VECTOR( '', #845, 1.00000000000000 );
#760 = CARTESIAN_POINT( '', ( 6.37673588316027E-19, 0.00254000000000000, 0.00160020000000000 ) );
#761 = VECTOR( '', #846, 1.00000000000000 );
#762 = CARTESIAN_POINT( '', ( 0.00203200000000000, 0.00254000000000000, 0.00160020000000000 ) );
#763 = VECTOR( '', #847, 1.00000000000000 );
#764 = COLOUR_RGB( '', 0.796078443500000, 0.823529422300000, 0.933333337300000 );
#765 = COLOUR_RGB( '', 0.796078443500000, 0.823529422300000, 0.933333337300000 );
#766 = CARTESIAN_POINT( '', ( 0.00990600000000000, -0.00182880000000000, -0.00160020000000000 ) );
#767 = VECTOR( '', #848, 1.00000000000000 );
#768 = COLOUR_RGB( '', 0.796078443500000, 0.823529422300000, 0.933333337300000 );
#769 = CARTESIAN_POINT( '', ( 6.37673588316027E-19, -0.00254000000000000, -0.00160020000000000 ) );
#770 = CARTESIAN_POINT( '', ( 6.37673588316027E-19, -0.00254000000000000, -0.00160020000000000 ) );
#771 = VECTOR( '', #849, 1.00000000000000 );
#772 = CARTESIAN_POINT( '', ( 6.37673588316027E-19, -0.00254000000000000, 0.00160020000000000 ) );
#773 = VECTOR( '', #850, 1.00000000000000 );
#774 = COLOUR_RGB( '', 0.796078443500000, 0.823529422300000, 0.933333337300000 );
#775 = CARTESIAN_POINT( '', ( 6.37673588316027E-19, 0.00254000000000000, -0.00160020000000000 ) );
#776 = VECTOR( '', #851, 1.00000000000000 );
#777 = COLOUR_RGB( '', 0.796078443500000, 0.823529422300000, 0.933333337300000 );
#778 = CARTESIAN_POINT( '', ( 0.00203200000000000, 0.00254000000000000, -0.00160020000000000 ) );
#779 = VECTOR( '', #852, 1.00000000000000 );
#780 = COLOUR_RGB( '', 0.796078443500000, 0.823529422300000, 0.933333337300000 );
#781 = CARTESIAN_POINT( '', ( 0.0116840000000000, 0.000406400000000000, -0.00160020000000000 ) );
#782 = VECTOR( '', #853, 1.00000000000000 );
#783 = CARTESIAN_POINT( '', ( 0.0116840000000000, 0.000406400000000000, 0.00160020000000000 ) );
#784 = VECTOR( '', #854, 1.00000000000000 );
#785 = COLOUR_RGB( '', 0.796078443500000, 0.823529422300000, 0.933333337300000 );
#786 = COLOUR_RGB( '', 0.796078443500000, 0.823529422300000, 0.933333337300000 );
#787 = CARTESIAN_POINT( '', ( 0.00990600000000000, 0.00182880000000000, -0.00160020000000000 ) );
#788 = VECTOR( '', #855, 1.00000000000000 );
#789 = COLOUR_RGB( '', 0.796078443500000, 0.823529422300000, 0.933333337300000 );
#790 = CARTESIAN_POINT( '', ( 0.00203200000000000, 0.00000000000000, 0.00000000000000 ) );
#791 = DIRECTION( '', ( 1.00000000000000, 0.00000000000000, 0.00000000000000 ) );
#792 = DIRECTION( '', ( 0.00000000000000, 0.00000000000000, -1.00000000000000 ) );
#793 = DIRECTION( '', ( -1.00000000000000, 0.00000000000000, 0.00000000000000 ) );
#794 = CARTESIAN_POINT( '', ( 0.00990600000000000, 0.00000000000000, 0.00000000000000 ) );
#795 = DIRECTION( '', ( 1.00000000000000, 0.00000000000000, 0.00000000000000 ) );
#796 = DIRECTION( '', ( 0.00000000000000, 0.00000000000000, -1.00000000000000 ) );
#797 = DIRECTION( '', ( -1.00000000000000, 0.00000000000000, 0.00000000000000 ) );
#798 = DIRECTION( '', ( -1.00000000000000, 0.00000000000000, 0.00000000000000 ) );
#799 = DIRECTION( '', ( -1.00000000000000, 7.42349998278332E-17, 0.00000000000000 ) );
#800 = DIRECTION( '', ( 0.00000000000000, 1.00000000000000, 0.00000000000000 ) );
#801 = DIRECTION( '', ( 1.00000000000000, 7.42349998278332E-17, 0.00000000000000 ) );
#802 = DIRECTION( '', ( -1.00000000000000, 0.00000000000000, 0.00000000000000 ) );
#803 = DIRECTION( '', ( 0.00000000000000, -1.00000000000000, 0.00000000000000 ) );
#804 = DIRECTION( '', ( 0.00000000000000, 1.00000000000000, 0.00000000000000 ) );
#805 = DIRECTION( '', ( -1.00000000000000, 0.00000000000000, 0.00000000000000 ) );
#806 = DIRECTION( '', ( 0.00000000000000, -1.00000000000000, 0.00000000000000 ) );
#807 = DIRECTION( '', ( 1.00000000000000, 0.00000000000000, 0.00000000000000 ) );
#808 = DIRECTION( '', ( 0.00000000000000, 1.00000000000000, 0.00000000000000 ) );
#809 = DIRECTION( '', ( -1.00000000000000, 0.00000000000000, 0.00000000000000 ) );
#810 = DIRECTION( '', ( 0.00000000000000, -1.00000000000000, 0.00000000000000 ) );
#811 = CARTESIAN_POINT( '', ( 0.0116840000000000, 0.00000000000000, 0.00000000000000 ) );
#812 = DIRECTION( '', ( -1.00000000000000, 0.00000000000000, 0.00000000000000 ) );
#813 = DIRECTION( '', ( 0.00000000000000, 0.00000000000000, 1.00000000000000 ) );
#814 = CARTESIAN_POINT( '', ( 0.0110490000000000, 0.00000000000000, 0.00000000000000 ) );
#815 = DIRECTION( '', ( -1.00000000000000, 0.00000000000000, 0.00000000000000 ) );
#816 = DIRECTION( '', ( 0.00000000000000, 0.00000000000000, 1.00000000000000 ) );
#817 = DIRECTION( '', ( -1.00000000000000, 0.00000000000000, 0.00000000000000 ) );
#818 = CARTESIAN_POINT( '', ( 0.00990600000000000, 0.00000000000000, 0.00000000000000 ) );
#819 = DIRECTION( '', ( -1.00000000000000, 0.00000000000000, 0.00000000000000 ) );
#820 = DIRECTION( '', ( 0.00000000000000, 0.00000000000000, 1.00000000000000 ) );
#821 = CARTESIAN_POINT( '', ( 0.0116840000000000, 0.00000000000000, 0.00000000000000 ) );
#822 = DIRECTION( '', ( -1.00000000000000, 0.00000000000000, 0.00000000000000 ) );
#823 = DIRECTION( '', ( 0.00000000000000, 0.00000000000000, 1.00000000000000 ) );
#824 = CARTESIAN_POINT( '', ( 0.0110490000000000, 0.00000000000000, 0.00000000000000 ) );
#825 = DIRECTION( '', ( -1.00000000000000, 0.00000000000000, 0.00000000000000 ) );
#826 = DIRECTION( '', ( 0.00000000000000, 0.00000000000000, 1.00000000000000 ) );
#827 = DIRECTION( '', ( -1.00000000000000, 0.00000000000000, 0.00000000000000 ) );
#828 = CARTESIAN_POINT( '', ( 0.00990600000000000, 0.00000000000000, 0.00000000000000 ) );
#829 = DIRECTION( '', ( 1.00000000000000, 0.00000000000000, 0.00000000000000 ) );
#830 = DIRECTION( '', ( 0.00000000000000, 0.00000000000000, -1.00000000000000 ) );
#831 = DIRECTION( '', ( 0.00000000000000, 1.00000000000000, 0.00000000000000 ) );
#832 = CARTESIAN_POINT( '', ( 0.00203200000000000, 0.00000000000000, 0.00000000000000 ) );
#833 = DIRECTION( '', ( 1.00000000000000, 0.00000000000000, 0.00000000000000 ) );
#834 = DIRECTION( '', ( 0.00000000000000, 0.00000000000000, -1.00000000000000 ) );
#835 = DIRECTION( '', ( 0.00000000000000, 0.00000000000000, -1.00000000000000 ) );
#836 = DIRECTION( '', ( 0.00000000000000, 1.00000000000000, 0.00000000000000 ) );
#837 = DIRECTION( '', ( 0.00000000000000, 0.00000000000000, -1.00000000000000 ) );
#838 = DIRECTION( '', ( 0.00000000000000, 0.00000000000000, -1.00000000000000 ) );
#839 = DIRECTION( '', ( 0.00000000000000, 0.00000000000000, -1.00000000000000 ) );
#840 = DIRECTION( '', ( -1.00000000000000, 7.42349998278332E-17, 0.00000000000000 ) );
#841 = DIRECTION( '', ( -1.00000000000000, 0.00000000000000, 0.00000000000000 ) );
#842 = CARTESIAN_POINT( '', ( 0.00990600000000000, 0.00000000000000, 0.00000000000000 ) );
#843 = DIRECTION( '', ( 1.00000000000000, 0.00000000000000, 0.00000000000000 ) );
#844 = DIRECTION( '', ( 0.00000000000000, 0.00000000000000, -1.00000000000000 ) );
#845 = DIRECTION( '', ( -1.00000000000000, 0.00000000000000, 0.00000000000000 ) );
#846 = DIRECTION( '', ( 0.00000000000000, 0.00000000000000, -1.00000000000000 ) );
#847 = DIRECTION( '', ( 0.00000000000000, 0.00000000000000, -1.00000000000000 ) );
#848 = DIRECTION( '', ( 0.00000000000000, -1.00000000000000, 0.00000000000000 ) );
#849 = DIRECTION( '', ( 1.00000000000000, 0.00000000000000, 0.00000000000000 ) );
#850 = DIRECTION( '', ( 0.00000000000000, 0.00000000000000, -1.00000000000000 ) );
#851 = DIRECTION( '', ( 0.00000000000000, -1.00000000000000, 0.00000000000000 ) );
#852 = DIRECTION( '', ( 0.00000000000000, 1.00000000000000, 0.00000000000000 ) );
#853 = DIRECTION( '', ( 1.00000000000000, 7.42349998278332E-17, 0.00000000000000 ) );
#854 = DIRECTION( '', ( 0.00000000000000, 0.00000000000000, -1.00000000000000 ) );
#855 = DIRECTION( '', ( 0.00000000000000, -1.00000000000000, 0.00000000000000 ) );
ENDSEC;
END-ISO-10303-21;
