solid STL 
  facet normal -1 1 1
    outer loop
      vertex   1  1  1
      vertex  -1  1 -1
      vertex  -1 -1  1
    endloop
  endfacet
  facet normal  1 -1  1
    outer loop
      vertex   1  1  1
      vertex  -1 -1  1
      vertex   1 -1 -1
    endloop
  endfacet
  facet normal  1 1 -1
    outer loop
      vertex   1  1  1
      vertex   1 -1 -1
      vertex  -1  1 -1
    endloop
  endfacet
  facet normal -1 -1 -1
    outer loop
      vertex   1 -1 -1
      vertex  -1 -1  1
      vertex  -1  1 -1
    endloop
  endfacet
endsolid vcg
