<?xml version="1.0" encoding="UTF-8" standalone="no"?>
<!-- Slightly modified version of the Axom logo -->

<svg version="1.1" id="axom_logo" inkscape:version="1.2.2 (b0a8486541, 2022-12-01)" sodipodi:docname="axom_logo.svg"
   x="0px" y="0px" width="685.205pt" height="250.41pt" viewBox="0 0 685.205 250.41"
   enable-background="new 0 0 685.205 250.41" xml:space="preserve"
   xmlns:inkscape="http://www.inkscape.org/namespaces/inkscape"
   xmlns:sodipodi="http://sodipodi.sourceforge.net/DTD/sodipodi-0.dtd" xmlns="http://www.w3.org/2000/svg"
   xmlns:svg="http://www.w3.org/2000/svg">
   <defs id="defs91" />
   <sodipodi:namedview id="namedview89" pagecolor="#ffffff" bordercolor="#000000" borderopacity="0.25"
      inkscape:showpageshadow="2" inkscape:pageopacity="0.0" inkscape:pagecheckerboard="0" inkscape:deskcolor="#d1d1d1"
      showgrid="false" inkscape:zoom="1.7658948" inkscape:cx="303.81198" inkscape:cy="125.14902"
      inkscape:window-width="3440" inkscape:window-height="1369" inkscape:window-x="-8" inkscape:window-y="-8"
      inkscape:window-maximized="1" inkscape:current-layer="Layer_1" inkscape:document-units="pt" />
   <g inkscape:groupmode="layer" id="gradients" inkscape:label="gradients">
      <linearGradient id="gray_highlight_grad" gradientUnits="userSpaceOnUse" x1="0" y1="611.92767" x2="1"
         y2="611.92767" gradientTransform="matrix(-57.9142,110.664,110.664,57.9142,-67204.914,-35150.973)"
         inkscape:swatch="gradient">
         <stop offset="0" style="stop-color:#414141" id="stop61" />
         <stop offset="0.0071" style="stop-color:#414141" id="stop63" />
         <stop offset="0.9712" style="stop-color:#6F6E6F" id="stop65" />
         <stop offset="1" style="stop-color:#6F6E6F" id="stop67" />
      </linearGradient>
      <linearGradient id="gray_grad" gradientUnits="userSpaceOnUse" x1="0" y1="611.90631" x2="1" y2="611.90631"
         gradientTransform="matrix(27.7034,89.409,89.409,-27.7034,-54218.457,17213.131)" inkscape:swatch="gradient">
         <stop offset="0" style="stop-color:#838383" id="stop42" />
         <stop offset="4.845280e-007" style="stop-color:#838383" id="stop44" />
         <stop offset="0.9773" style="stop-color:#CCCCCB" id="stop46" />
         <stop offset="1" style="stop-color:#CCCCCB" id="stop48" />
      </linearGradient>
      <linearGradient id="blue_highlight_grad" gradientUnits="userSpaceOnUse" x1="0" y1="611.96777" x2="1"
         y2="611.96777" gradientTransform="matrix(76.1184,-21.3132,-21.3132,-76.1184,13483.118,46847.086)"
         inkscape:swatch="gradient">
         <stop offset="0" style="stop-color:#214094" id="stop23" />
         <stop offset="0.0013" style="stop-color:#214094" id="stop25" />
         <stop offset="0.99" style="stop-color:#1D73BA" id="stop27" />
         <stop offset="1" style="stop-color:#1D73BA" id="stop29" />
      </linearGradient>
      <linearGradient id="blue_grad" gradientUnits="userSpaceOnUse" x1="0" y1="611.89447" x2="1" y2="611.89447"
         gradientTransform="matrix(26.162,-82.9738,-82.9738,-26.162,51199.828,16317.69)" inkscape:swatch="gradient">
         <stop offset="0" style="stop-color:#1758A8" id="stop8" />
         <stop offset="1" style="stop-color:#1F94D2" id="stop10" />
      </linearGradient>
      <linearGradient id="green_highlight_grad" gradientUnits="userSpaceOnUse" x1="0" y1="611.86517" x2="1"
         y2="611.86517" gradientTransform="matrix(-70.2969,-79.9129,-79.9129,70.2969,49356.711,-42661.82)"
         inkscape:swatch="gradient">
         <stop offset="0" style="stop-color:#0D6C37" id="stop99" />
         <stop offset="0.9681" style="stop-color:#509C45" id="stop101" />
         <stop offset="1" style="stop-color:#509C45" id="stop103" />
      </linearGradient>
      <linearGradient id="green_grad" gradientUnits="userSpaceOnUse" x1="0" y1="612.07233" x2="1" y2="612.07233"
         gradientTransform="matrix(-95.7148,29.8782,29.8782,95.7148,-17789.975,-58252.633)" inkscape:swatch="gradient">
         <stop offset="0" style="stop-color:#72A642" id="stop80" />
         <stop offset="2.922550e-007" style="stop-color:#72A642" id="stop82" />
         <stop offset="0.9622" style="stop-color:#8CC03F" id="stop84" />
         <stop offset="1" style="stop-color:#8CC03F" id="stop86" />
      </linearGradient>
      <linearGradient id="letters_grad" gradientUnits="userSpaceOnUse" x1="0" y1="611.98541" x2="1" y2="611.98541"
         gradientTransform="matrix(-1.8498,-104.5124,-104.5124,1.8498,64193.66,-731.1261)" inkscape:swatch="gradient">
         <stop offset="0" style="stop-color:#1758A8" id="stop116" />
         <stop offset="0.1162" style="stop-color:#1861AE" id="stop118" />
         <stop offset="0.373" style="stop-color:#1B73BB" id="stop120" />
         <stop offset="0.6137" style="stop-color:#1D81C5" id="stop122" />
         <stop offset="0.8297" style="stop-color:#1E8ACB" id="stop124" />
         <stop offset="1" style="stop-color:#1E8ECD" id="stop126" />
      </linearGradient>
   </g>
   <g id="m" transform="translate(-54.032408,-176.65749)" inkscape:label="M">
      <path id="use136" fill="url(#letters_grad)"
         d="M678.585,215.995c-0.977,0-1.891,0.474-2.452,1.272l-47.54,67.361   c-0.192,0.258-1.01,1.362-1.162,1.57c-0.358,0.494-0.699,0.882-1.013,0.879c-0.292-0.003-0.831-0.783-1.136-1.208   c-0.213-0.295-1.334-1.896-1.59-2.243l-46.573-66.359c-0.562-0.798-1.477-1.272-2.451-1.272h-33.075   c-1.674,0-2.872,1.37-2.845,3.044l-0.054,18.276c0,0,0.054,1.4,0.054,2.456c0,0.932,0.687,0.599,1.631,0.266   c1.66-0.585,4.857-1.715,6.194-1.633c1.21,0.074,2.8,0.532,4.813,3.317c1.629,2.252,5.092,8.456,6.393,11.159   c0.953,1.987,0.724,3.829,0.472,4.939c-0.339,1.5-1.298,3.371-3.134,4.869l-10.54,8.843c-1.107,0.821-1.27,1.382-0.324,2.962   c1.231,2.06,2.485,4.112,3.563,6.279c0.856,1.731,1.006,1.923,1.727,3.708c0.152,0.377,0.615,1.724,1.189,2.152   c0.658,0.492,2.657,0.927,2.657,0.927l7.034,1.792c5.568,1.173,8.165,2.806,8.332,7.872c0.101,2.994-0.163,9.239-0.544,12.2   c-0.31,2.407-1.324,4.075-2.769,5.213c-1.565,1.236-3.64,1.85-5.865,2.105l-6.719,1.078c-0.063,0.01-0.119,0.018-0.186,0.021   c-0.456,0.043-2.698,0.272-3.449,0.873c-0.729,0.584-1.146,1.576-1.418,2.496c-0.803,2.758-1.764,5.484-2.71,8.219   c-1.06,3.058-0.553,3.692,1.354,5.666c1.517,1.569,6.203,6.785,7.188,7.875c1.503,1.66,3.618,4.185,2.002,7.283   c-0.786,1.506-2.579,5.301-3.793,7.115c-0.836,1.25-3.479,5.061-4.354,6.26c-1.13,1.551-3.686,2.555-5.819,2.01   c-0.895-0.228-1.698-0.412-2.332-0.647c-0.18-0.067-0.594-0.312-0.594,0.797s0.01,16.218,0.01,16.218l-0.01,0.67   c-0.024,1.672,1.324,3.041,2.996,3.041h31.483c1.654,0,2.996-1.343,2.996-2.996v-64.986c0-14.067-0.229-30.006-0.468-42.193   c0,0-0.022-0.284,0.117-0.359c0.184-0.099,0.351,0.12,0.351,0.12c7.97,11.958,16.414,24.385,24.854,36.334l22.892,31.082   c1.194,1.694,3.704,1.694,4.898,0l21.438-31.082c8.438-11.95,16.874-24.376,24.854-36.334c0,0,0.148-0.211,0.312-0.159   c0.169,0.055,0.156,0.398,0.156,0.398c-0.238,12.187-0.468,28.126-0.468,42.193v64.986c0,1.653,1.342,2.996,2.997,2.996h31.274   c1.655,0,2.997-1.343,2.997-2.996V218.99c0-1.654-1.342-2.995-2.997-2.995H678.585z" />
   </g>
   <g id="gear" transform="translate(-54.032408,-176.65749)" inkscape:label="O">
      <path id="blue" fill="url(#blue_grad)"
         d="M552.447,254.119c-1.257-2.582-2.638-5.108-4.097-7.596   c-1.288-2.196-2.849-2.78-5.362-2.006l-13.413,5.021c-0.838,0.301-1.753,0.739-2.549,0.572c-0.939-0.198-1.545-1.123-2.226-1.933   c-1.458-1.734-2.993-3.417-4.602-5.04c-1.696-1.711-4.107-4.005-5.969-5.581c-1.123-0.951-1.616-1.116-1.587-2.062   c0.019-0.475,0.365-1.472,0.536-1.945l4.104-12.936c0.181-0.503,0.417-1.266,0.469-1.768c0.126-1.215-0.208-2.142-1.572-3.011   c-1.206-0.766-3.18-2.106-4.428-2.831c-1.248-0.724-3.137-1.693-4.401-2.36c-0.604-0.318-1.184-0.465-1.736-0.465   c-1.206,0-2.292,0.696-3.252,1.833l-8.697,10.136c-1.261,1.492-3.218,2.013-5.051,1.346c-0.013-0.004-0.021-0.008-0.032-0.011   c-0.007,0-0.014,0-0.021-0.001c-2.723-0.989-5.439-1.876-8.209-2.568c-1.767-0.442-4.388-0.94-6.168-1.262   c-1.916-0.349-2.254-0.913-2.717-3.006l-2.635-12.699c-0.289-2.419-2.366-3.335-4.533-3.427c-1.452-0.061-2.903-0.091-4.353-0.091   c-1.422-0.001-2.843,0.028-4.261,0.087c-2.164,0.088-3.703,1.279-4.09,3.412l-2.16,12.636c-0.273,1.932-0.851,3.283-2.755,3.699   c-2.36,0.516-5.499,1.267-7.806,1.984c-2.175,0.676-5.278,1.806-7.393,2.657c-1.808,0.728-2.821-0.09-4.134-1.534l-7.867-9.64   c-1.457-1.604-3.766-1.972-5.647-0.897c-2.489,1.42-4.928,2.947-7.302,4.577c-1.789,1.228-2.467,3.472-1.656,5.486l5.258,13.067   c0.435,1.081,0.578,2.175,0.072,3.179c-0.355,0.705-2.248,3.878-3.493,6.437c-1.891,4.245-9.792,19.46-8.284,38.638   c1.462,11.974,3.604,20.525,10.425,30.845c3.824,5.789,7.968,10.32,12.25,13.885c-0.354-0.521-0.676-1.063-1.009-1.596   c-0.148-0.235-0.303-0.469-0.447-0.709c-0.253-0.422-0.496-0.852-0.736-1.282c-0.275-0.489-0.541-0.983-0.801-1.483   c-0.153-0.301-0.313-0.598-0.461-0.9c-0.516-1.051-0.979-2.131-1.421-3.223c-0.021-0.052-0.039-0.103-0.061-0.154   c-2.206-5.524-3.97-11.68-3.97-17.993c0-1.896,0.041-3.69,0.219-5.49c0,0.021-0.001,0.056-0.001,0.071   c0.308-1.99,0.982-5.809,1.539-7.77c2.413-8.495,6.944-16.545,11.728-22.633c1.436-2.117,7.323-7.211,8.897-8.552   c7.441-6.335,16.957-10.358,20.829-11.647c16.549-5.511,29.078-4.216,34.907-3.334c21.481,3.252,32.014,11.496,36.889,15.125   c2.768,2.06,4.72,3.945,7.091,6.26c0.925,0.903,3.215,3.08,3.517,3.37c1.001,0.969,1.657,1.346,2.5,1.34   c0.688-0.005,2.574-1.679,2.574-1.679l1.208-1.001l7.094-5.958c1.068-0.855,1.854-1.902,1.908-3.181   C553.133,255.781,552.797,254.838,552.447,254.119z" />
      <path id="gray" fill="url(#gray_grad)"
         d="M560.419,294.687l-12.399-3.107c-1.895-0.465-2.875-2.134-3.46-3.922   c-0.678-1.675-1.299-3.283-2.238-4.981c-4.421-7.975-8.385-11.536-13.979-16.669c-13.174-12.087-30.623-18.787-48.411-18.788   c-11.063,0-22.251,2.589-32.633,8.083c-0.083,0.042-0.16,0.09-0.242,0.133c4.326-1.273,8.903-1.969,13.644-1.969   c11.316,0,22.412,3.061,32.441,9.514c0.674,0.553,3.635,2.961,4.519,3.806c0.854,0.815,1.897,1.967,2.383,2.471   c3.391,3.537,16.425,18.625,16.039,41.894c-0.532,11.069-0.472,23.019-10.855,38.594c-7.325,10.99-15.055,17.099-26.588,22.927   c-9.727,4.912-18.063,6.9-25.907,8.012c-1.122,0.158-1.888,0.272-2.325,0.906c-0.462,0.666-0.268,2.063-0.253,2.203l1.321,12.846   c0.164,1.586,0.604,2.77,1.956,3.438c0.416,0.185,0.863,0.32,1.339,0.375c2.829,0.33,6.967,0.675,9.8,0.769   c2.142,0.07,3.193-1.314,3.729-3.383l3.478-13.447c0.777-2.885,1.159-3.098,3.914-3.358c4.619-0.438,7.853-0.896,11.589-1.866   c0.991-0.257,2.166-0.617,3.063-0.304c0.867,0.261,1.45,1.134,2.051,1.897l8.569,10.922c0.486,0.619,0.888,1.277,1.563,1.57   c0.731,0.375,1.693,0.586,3.077-0.08c2.553-1.227,6.43-3.266,8.889-4.693c1.854-1.077,2.021-2.766,1.369-4.805l-4.233-13.22   c-0.666-2.218-0.585-2.956,0.48-3.918c0.071-0.063,0.526-0.517,0.607-0.582c0.171-0.144,1.17-1.233,1.364-1.421   c0.019-0.025,0.034-0.047,0.052-0.072c-0.017,0.023-0.032,0.049-0.049,0.071c2.942-3.028,5.714-6.291,8.299-8.995   c1.353-1.412,3.34-1.814,5.134-1.037l11.8,5.266c2.427,1.033,3.683,0.865,5.532-1.516c0.877-1.13,1.66-2.341,2.459-3.546   c0.8-1.204,1.5-2.466,2.315-3.646c1.666-2.402,0.82-4.182-0.748-5.686l-9.047-9.41c-1.413-1.351-1.813-3.342-1.034-5.135   c1.896-4.365,3.392-8.833,4.501-13.355c0.465-1.896,1.412-3.461,3.353-3.685l12.7-1.864c2.86-0.322,3.781-1.035,4.033-4.078   c0.236-2.875,0.532-5.745,0.532-8.616C563.912,296.402,563.002,295.188,560.419,294.687z" />
      <path id="green" fill="url(#green_grad)"
         d="M509.714,307.073c-1.406,21.891-18.764,39.698-40.149,43.296   c-0.049,0.019-0.098,0.035-0.146,0.054c0.082-0.031,0.134-0.052,0.134-0.052s-5.243,0.677-7.963,0.677   c-5.12,0-9.136,0.104-13.578-1.187c-0.666-0.155-3.515-0.913-4.167-1.116c-0.375-0.13-1.223-0.381-2.325-0.729   c-0.131-0.043-0.259-0.082-0.393-0.125c-0.641-0.205-1.345-0.435-2.093-0.691c-11.604-3.822-23.788-12.052-33.995-27.195   c-7.319-10.859-10.806-20.025-12.431-32.688c-1.766-13.753,0.929-25.169,3.823-33.438c0.221-0.628,0.302-0.88,0.528-1.466   c0.268-0.69,0.22-1.245-0.703-1.647c-0.639-0.279-1.952-0.871-1.952-0.871l-9.778-4.107c-0.832-0.364-1.586-0.539-2.26-0.539   c-1.228-0.002-2.188,0.581-2.864,1.664c-0.739,1.187-1.911,2.671-2.689,3.85c-0.777,1.177-1.638,2.586-2.348,3.79   c-1.275,2.159-0.406,3.677,0.337,4.707c0.146,0.207,0.323,0.395,0.515,0.574l10.065,9.444c0.351,0.329,0.637,0.698,0.859,1.093   c0.676,1.182,0.485,2.164-0.081,3.484c-0.035,0.081-1.482,4.284-1.928,6.298c-0.614,2.769-1.298,7.148-1.34,7.391   c-0.001,0.001-0.001,0.002-0.002,0.003l-0.003,0.016c-0.03,0.168-0.111,0.309-0.158,0.469c0,0.001-0.001,0.002-0.001,0.003   c-0.475,1.623-1.747,2.834-3.463,3.145l-13.619,2.474c-1.05,0.191-2.076,0.238-2.727,0.947c-0.515,0.56-0.797,1.215-0.854,2.509   c-0.062,1.394-0.17,3.549-0.165,4.957c0.004,1.41,0.039,3.398,0.103,4.791c0.093,2.115,1.613,3.246,3.716,3.613l13.628,2.375   c0.95,0.164,1.776,0.6,2.412,1.229c0.634,0.622,1.074,1.438,1.25,2.376c0.002,0.021,0.008,0.04,0.011,0.06l0,0.001   c0.835,4.487,2.045,8.899,3.618,13.187c0.656,1.787,0.147,3.693-1.314,4.928l-10.145,8.697c-1.624,1.371-2.376,2.852-1.383,4.723   c1.314,2.475,3.685,6.443,5.208,8.813c1.147,1.785,2.695,1.736,4.7,1.012l13.439-5.375c1.802-0.65,3.725-0.146,4.968,1.301   c2.964,3.457,6.243,6.693,9.828,9.668c1.473,1.223,1.526,3.235,1.066,5.086l-3.173,13.115c-0.567,2.042-0.489,3.574,1.396,4.564   c1.241,0.654,3.335,1.852,4.614,2.459s3.356,1.559,4.648,2.107c1.96,0.836,3.39-0.146,4.639-1.865l6.833-10.129l0.337-0.494   c1.657-2.561,2.581-3.127,5.627-2.791c1.769,0.129,3.555,0.19,5.356,0.186c7.875-0.029,15.894-1.777,22.976-4.09   c25.668-8.383,43.964-30.372,43.964-56.809C510.123,312.501,510.154,310.428,509.714,307.073z" />
      <g id="highlights">
         <path id="blue_highlight" fill="url(#blue_highlight_grad)"
            d="M502.363,212.011l-8.697,10.136    c-1.261,1.492-3.218,2.013-5.051,1.346c-0.013-0.004-0.021-0.008-0.032-0.011c-1.76-0.136-3.539-0.206-5.334-0.208    c-8.004-0.012-15.696,1.326-22.861,3.799c-0.029,0.01-0.06,0.019-0.089,0.03c-2.563,0.889-5.063,1.917-7.489,3.081    c-1.618,0.775-3.204,1.609-4.755,2.499c-0.774,0.447-1.543,0.906-2.299,1.379c-1.514,0.947-2.991,1.949-4.428,3.003    c-2.154,1.581-4.22,3.281-6.182,5.089c-1.309,1.206-2.57,2.461-3.786,3.761c-1.82,1.95-3.533,4.005-5.126,6.154    c-1.063,1.432-2.07,2.906-3.023,4.42c-0.477,0.758-0.938,1.524-1.385,2.301c-1.343,2.328-2.554,4.743-3.623,7.235    c-1.069,2.491-1.997,5.059-2.773,7.696c-1.551,5.272-2.486,10.713-2.729,16.459c-0.041,0.957-0.102,1.807-0.146,2.775    c-0.024,0.575-0.144,2.839-0.138,3.232c0.308-1.99,0.982-5.809,1.539-7.77c2.413-8.495,6.944-16.545,11.728-22.633    c1.436-2.117,7.323-7.211,8.897-8.552c7.441-6.335,16.957-10.358,20.829-11.647c16.549-5.511,29.078-4.216,34.907-3.334    c21.481,3.252,32.014,11.496,36.889,15.125c2.768,2.06,4.72,3.945,7.091,6.26c0.925,0.903,3.215,3.08,3.517,3.37    c1.001,0.969,1.657,1.346,2.5,1.34c0.688-0.005,2.574-1.679,2.574-1.679l1.208-1.001l7.094-5.958    c1.068-0.855,1.854-1.902,1.908-3.181c0.034-0.746-0.302-1.689-0.651-2.408c-1.257-2.582-2.638-5.108-4.097-7.596    c-1.288-2.196-2.849-2.78-5.362-2.006l-13.413,5.021c-0.838,0.301-1.753,0.739-2.549,0.572c-0.939-0.198-1.545-1.123-2.226-1.933    c-1.458-1.734-2.993-3.417-4.602-5.04c-1.696-1.711-4.107-4.005-5.969-5.581c-1.123-0.951-1.616-1.116-1.587-2.062    c0.019-0.475,0.365-1.472,0.536-1.945l4.104-12.936c0.181-0.503,0.417-1.266,0.469-1.768c0.126-1.215-0.208-2.142-1.572-3.011    c-1.206-0.766-3.18-2.106-4.428-2.831c-1.248-0.724-3.137-1.693-4.401-2.36c-0.604-0.318-1.184-0.465-1.736-0.465    C504.409,210.178,503.323,210.874,502.363,212.011" />
         <path id="gray_highlight" fill="url(#gray_highlight_grad)"
            d="M497.659,266.787c0.854,0.815,1.897,1.967,2.383,2.471    c3.391,3.537,16.425,18.625,16.039,41.894c-0.532,11.069-0.472,23.019-10.855,38.594c-7.325,10.99-15.055,17.099-26.588,22.927    c-9.727,4.912-18.063,6.9-25.907,8.012c-1.122,0.158-1.888,0.272-2.325,0.906c-0.462,0.666-0.268,2.063-0.253,2.203l1.321,12.846    c0.164,1.586,0.604,2.77,1.956,3.438c0.416,0.185,0.863,0.32,1.339,0.375c2.829,0.33,6.967,0.675,9.8,0.769    c2.142,0.07,3.193-1.314,3.729-3.383l3.478-13.447c0.777-2.885,1.159-3.098,3.914-3.358c4.619-0.438,7.853-0.896,11.589-1.866    c0.991-0.257,2.166-0.617,3.063-0.304c0.867,0.261,1.45,1.134,2.051,1.897l8.569,10.922c0.486,0.619,0.888,1.277,1.563,1.57    c0.731,0.375,1.693,0.586,3.077-0.08c2.553-1.227,6.43-3.266,8.889-4.693c1.854-1.077,2.021-2.766,1.369-4.805l-4.233-13.22    c-0.666-2.218-0.585-2.956,0.48-3.918c0.071-0.063,0.526-0.517,0.607-0.582c0.171-0.144,1.17-1.233,1.364-1.421    c0.918-1.261,1.396-1.975,2.239-3.314c4.207-6.686,7.122-13.813,8.811-21.096c0.006-0.029,0.015-0.063,0.021-0.09    c6.121-26.559-1.264-55.31-24.249-71.785c-1.068-0.766-2.96-2.152-5.39-3.821c-1.212-0.833-2.089-1.315-2.5-1.554    C493.255,263.08,496.695,265.866,497.659,266.787" />
         <path id="green_highlight" sodipodi:nodetypes="ccccccccccccccccccccccccccccccccccscccccscccccccc"
            fill="url(#green_highlight_grad)"
            d="M382.616,288.093c-0.034,0.166-0.069,0.332-0.099,0.5c-0.001,0.001-0.001,0.002-0.001,0.003    C382.546,288.428,382.582,288.26,382.616,288.093 M379.402,246.912c-0.739,1.187-1.911,2.671-2.689,3.85    c-0.777,1.177-1.638,2.586-2.348,3.79c-1.275,2.159-0.406,3.677,0.337,4.707c0.146,0.207,0.323,0.395,0.515,0.574l10.065,9.444    c0.351,0.329,0.637,0.698,0.859,1.093c0.676,1.182,0.485,2.164-0.081,3.484c-0.035,0.081-1.482,4.284-1.928,6.298    c-0.614,2.769-1.298,7.148-1.34,7.391c-0.001,0.001-0.001,0.002-0.002,0.003l-0.003,0.016c-0.03,0.168-0.111,0.309-0.158,0.469    c0,0.001-0.001,0.002-0.001,0.003c-0.475,1.623-1.747,2.834-3.463,3.145l-13.619,2.474c-1.05,0.191-2.076,0.238-2.727,0.947    c-0.515,0.56-0.797,1.215-0.854,2.509c-0.062,1.394-0.17,3.549-0.165,4.957c0.004,1.41,0.039,3.398,0.103,4.791    c0.093,2.115,1.613,3.246,3.716,3.613l13.628,2.375c0.95,0.164,1.776,0.6,2.412,1.229c0.634,0.622,1.074,1.438,1.25,2.376    c0.002,0.021,0.008,0.04,0.011,0.06c0.754,1.539,1.569,3.062,2.451,4.563c3.962,6.753,8.914,12.58,14.565,17.403    c0.023,0.021,0.046,0.039,0.069,0.061c16.979,14.453,40.26,19.877,62.063,14.238c3.65-0.905,7.483-2.403,7.483-2.403    s-5.243,0.677-7.963,0.677c-5.12,0-9.136,0.104-13.578-1.187c-0.666-0.155-3.515-0.913-4.167-1.116    c-0.375-0.13-1.223-0.381-2.325-0.729c-0.131-0.043-0.259-0.082-0.393-0.125c-0.641-0.205-1.345-0.435-2.093-0.691    c-11.604-3.822-23.788-12.052-33.995-27.195c-7.319-10.859-10.806-20.025-12.431-32.688c-1.766-13.753,0.929-25.169,3.823-33.438    c0.221-0.628,0.302-0.88,0.528-1.466c0.268-0.69,0.22-1.245-0.703-1.647c-0.639-0.279-1.952-0.871-1.952-0.871l-9.778-4.107    c-0.832-0.364-1.586-0.539-2.26-0.539C381.038,245.246,380.077,245.829,379.402,246.912" />
      </g>
   </g>
   <g id="ax" transform="translate(-54.032408,-176.65749)" inkscape:label="AX">
      <path id="use113" fill="url(#letters_grad)"
         d="M143.854,316.757l5.326-14.024c5.45-14.324,15.81-43.249,16.118-44.161   c0.216-0.635,0.474,0,0.474,0c4.494,12.919,10.659,29.837,15.636,43.224l5.597,14.975c0.731,1.959-0.716,4.047-2.806,4.047h-37.544   C144.558,320.816,143.109,318.718,143.854,316.757 M337.03,215.826c-1.01,0-1.951,0.509-2.505,1.353l-14.518,22.133   c-6.397,9.63-13.033,19.967-18.715,29.128h-0.241c-5.923-9.4-12.55-19.728-18.955-29.367l-14.508-21.905   c-0.554-0.838-1.493-1.342-2.498-1.342h-36.806c-2.406,0-3.83,2.691-2.479,4.68l49.457,72.776c0.694,1.023,0.691,2.365-0.01,3.383   l-33.148,48.167c-1.982,2.69-3.861,2.272-5.24-0.563l-51.849-126.583c-0.461-1.126-1.556-1.861-2.772-1.861h-32.47   c-1.217,0-2.313,0.735-2.773,1.861L79.799,381.749c-0.807,1.971,0.643,4.133,2.773,4.133h32.104c1.234,0,2.34-0.756,2.79-1.904   l12.496-31.899c0.45-1.147,1.557-1.903,2.79-1.903h65.08c1.24,0,2.351,0.764,2.796,1.92c0,0,11.871,30.865,12.193,31.695   c0.172,0.475,0.634,1.561,1.999,1.987c0.515,0.159,1.021,0.104,1.76,0.104h2.168h35.16h1.232c1.003,0,1.939-0.502,2.494-1.336   l23.516-35.31c6.164-9.392,11.847-18.083,17.77-27.483h0.472c5.692,8.932,11.615,18.322,18.01,27.723l23.516,35.078   c0.556,0.83,1.489,1.328,2.488,1.328h37.479c2.416,0,3.838-2.713,2.465-4.699l-58.385-84.517c-0.704-1.018-0.708-2.363-0.014-3.387   l49.455-72.773c1.353-1.989-0.072-4.68-2.477-4.68H337.03z" />
   </g>
</svg>