<?xml version="1.0" encoding="UTF-8" standalone="no"?>
<svg
   xmlns:dc="http://purl.org/dc/elements/1.1/"
   xmlns:cc="http://creativecommons.org/ns#"
   xmlns:rdf="http://www.w3.org/1999/02/22-rdf-syntax-ns#"
   xmlns:svg="http://www.w3.org/2000/svg"
   xmlns="http://www.w3.org/2000/svg"
   xmlns:sodipodi="http://sodipodi.sourceforge.net/DTD/sodipodi-0.dtd"
   xmlns:inkscape="http://www.inkscape.org/namespaces/inkscape"
   width="19000"
   height="16000"
   version="1.1"
   id="svg12"
   sodipodi:docname="butterfly.svg"
   inkscape:version="1.0 (4035a4fb49, 2020-05-01)">
  <metadata
     id="metadata18">
    <rdf:RDF>
      <cc:Work
         rdf:about="">
        <dc:format>image/svg+xml</dc:format>
        <dc:type
           rdf:resource="http://purl.org/dc/dcmitype/StillImage" />
        <dc:title />
      </cc:Work>
    </rdf:RDF>
  </metadata>
  <defs
     id="defs16" />
  <sodipodi:namedview
     inkscape:document-rotation="0"
     pagecolor="#ffffff"
     bordercolor="#666666"
     borderopacity="1"
     objecttolerance="10"
     gridtolerance="10"
     guidetolerance="10"
     inkscape:pageopacity="0"
     inkscape:pageshadow="2"
     inkscape:window-width="1920"
     inkscape:window-height="1017"
     id="namedview14"
     showgrid="false"
     inkscape:zoom="0.029624053"
     inkscape:cx="14473.735"
     inkscape:cy="9151.1927"
     inkscape:window-x="-8"
     inkscape:window-y="-8"
     inkscape:window-maximized="1"
     inkscape:current-layer="svg12" />
  <path
     d="m 14038.794,1878.138 c -250,67 -720,262 -1003,416 -146,80 -164,92 -229,163 -112,122 -492,682 -831,1225 -60,96 -149,236 -197,310 -99,153.001 -232,389.001 -291,517.001 -56,121 -161,458 -354,1137.9995 -187,660 -336,1215 -402,1497 -42,176 -37,171 -123,149 -19,-5 -70,-15 -112,-22 l -77,-13 -5,-50 c -3,-28 -13,-182 -21,-341 -23,-422 -71,-1189 -100,-1574.9995 -14,-184 -27,-373 -31,-420 -7,-102 -62,-696 -70,-760 -15,-112.001 -35,-214.001 -45,-226.001 -15,-18 -70,-28 -108,-19 -58,13 -118,84 -81,97 12,4 55,310.001 69,493.001 6,71 20,240 31,375 71,881.9995 109,1503.9995 117,1934.9995 l 5,330 -33,32 c -50,46 -104,73 -149,73 -50,0 -199,-45 -535,-163 -444,-156 -696,-249 -960,-355 -239,-95 -319,-130 -718,-310 -192,-87 -489,-242 -523,-273 -11,-10 -23,-19 -26,-19 -9,0 -28,86 -28,129 0,82 12,93 265,231 210,115 313,164 673,319 383,164 815,304 1447,466 151,39 187,52 320,121 83,42 152,78 154,80 2,2 -4,45 -12,96 -9,51 -19,111 -22,133 -3,22 -9,46 -14,53 -6,10 -100,-11 -402,-87 -473,-120 -594,-148 -1074,-245 -566,-115 -1152,-206 -1600,-248 -174,-16 -775,-16 -970,0 -352,30 -831,129 -1110,231 -44,16 -125,46 -180,66 -249,90 -660,315 -881,481 -212,159 -294,295 -294,489 0,97 53,262 117,367 186,302 567,647 950,860 95,53 175,90 222,103 87,23 103,40 159,167 85,187.9995 141,236.9995 312,272.9995 47,9 93,21 102,26 9,5 26,35 38,66 132,355 223,518 378,676 139,142 263,209 446,242 114,21 315,16 446,-11 208,-43 489,-143 710,-254 122,-61 153,-63 159,-10 4,43 -13,167 -44,325 -56,280 -69,617.001 -30,795.001 37,167 94,299 180,415 62,83 281,304 345,348 25,17 87,63 138,103 98,78 332,222 522,322 232,122 600,268 838,332 78,22 146,41 151,44 9,6 177,41 361,76 334,64 753,65 1030,4 159,-36 356,-122 465,-206 111,-84 243,-266 358,-494 207,-409 267,-771 196,-1197 -41,-255.001 -93,-403.001 -239,-693.001 -70,-137 -142,-262 -208,-359 -56,-81 -102,-145 -102,-142 0,4 31,193 70,421 98,586.001 112,740.001 89,999.001 l -12,128 -28,-27 c -70,-67 -144,-226 -194,-415 -61,-233.001 -87,-471.001 -105,-974.001 -10,-285 -42,-744.9995 -60,-884.9995 -5,-36 -18,-108 -29,-160 -11,-52 -19,-96 -18,-97 1,-1 38,30 82,70 44,39 123,102 175,141 124,91 226,190 312,300.9995 39,49 76,93 83,98 8,4 62,62 121,129 213,242 358,504 500,906 72,204 93,278 168,603.001 35,152 72,288 81,303 40,61 123,12 163,-97 64,-170 49,-365 -50,-662.001 -44,-131 -150,-389 -192,-467 -13,-24 -65,-122 -116,-218 -117,-220 -251,-451 -348,-600 -78,-119.9995 -382,-529.9995 -436,-588.9995 l -31,-33 35,17 c 19,10 274,166 565,348 854,530.9995 973,601.9995 1240,735.9995 214,108 303,129 615,146 125,7 296,27 430,50 117,20 236,19 355,-4 136,-27 195,-48 310,-111 214,-119 347,-271 499,-570 166,-325.9995 300,-712.9995 395,-1144.9995 102,-464 145,-899 122,-1261 -17,-288 -53,-452 -145,-670 -146,-347 -351,-566 -626,-670 -184,-69 -201,-77 -215,-97 -17,-24 -10,-40 45,-107 100,-123 213,-372 258,-564.9995 95,-415 32,-788 -202,-1195 -97,-170 -226,-453.001 -231,-508.001 -3,-41 -25,-149 -54,-262 -26,-107 -165,-567 -253,-840 -123,-385 -192,-574 -226,-620 -80,-111 -204,-205 -316,-239 -81,-25 -212,-27 -296,-5 z m -210,1584 c 0,9 -110,54 -116,47 -6,-5 100,-64 109,-60 4,2 7,8 7,13 z m -160,64 c 0,2 -48,32 -107,67 -60,34 -140,86 -179,115 -91,68 -232,218 -339,359.001 -96,127 -98,129 -230,222 -287,202 -466,293 -576,293 h -61 l 68,-88 c 260,-334 573,-603.001 889,-760.001 143,-71 403,-175 533,-211 1,-1 2,1 2,3 z m -850,62 c 17,44 11,81 -21,136 -61,104 -188,244 -276,307.001 l -33,22 -10,-26 c -18,-47.001 -12,-146.001 10,-185.001 11,-19 78,-90 148,-157 135,-130 164,-146 182,-97 z m 1368,317 c 2,24 -3,49 -15,67 -48,75.001 -275,234.001 -388,270.001 -92,30 -252,97 -425,180 -209,99 -346,155 -422,171 -54,12 -145,7 -174,-9 -27,-15 66,-77 376,-252 244,-136 395,-214 534,-275 72,-31 146,-69.001 165,-84.001 68,-54 121,-73 266,-100 74,-13 80,-11 83,32 z m -2024,147.001 46,21 -34,52 c -18,29 -47,75 -65,104 -30,48 -117,131 -127,121 -2,-3 6,-27 18,-54 14,-32 22,-70 22,-109 1,-52 4,-61 24,-70 15,-6 22,-18 22,-36 0,-17 8,-30 23,-37 12,-6 23,-11 23,-11 1,-1 22,8 48,19 z m 2302,476 c -137,126 -393,293 -636,414 -286,143 -598,233 -747,215 l -53,-6 17,-32 c 57,-112 166,-234 293,-329 55,-42 272,-147 358,-174 232,-73 514,-120 782,-132 l 35,-1 z m -1629,309 c 27,9 32,28 40,140 20,313 -146,617.9995 -641,1179.9995 -34,38 -93,108 -131,155 -38,47 -106,128 -150,180 -253,297 -514,694 -680,1033 l -92,188 -7,-47 c -12,-91 -7,-161 36,-459 41,-292 129,-665 228,-969 27,-83 58,-185 70,-226 28,-96 133,-376 164,-438 13,-25.9995 29,-64.9995 36,-86.9995 7,-22 55,-124 107,-227 89,-178 192,-338 227,-351 8,-3 86,-18 173,-31 87,-14 199,-32 248,-40 89,-15 324,-15 372,-1 z m 1788,400 c 87,9 160,17 161,18 17,17 -4,46 -91,128 -211,195.9995 -395,301.9995 -610,348.9995 -79,18 -259,38 -390,45 -281,14 -546,67 -754,150 -62,25 -169,78 -239,119 -190,110 -181,107 -141,51 47,-67 231,-257 312,-324 347,-285.9995 742,-471.9995 1107,-520.9995 47,-7 108,-15 135,-20 85,-13 342,-11 510,5 z m 319,742.9995 c -56,50 -295,180 -546,296 -114,53 -210,96 -212,96 -3,0 -90,39 -193,86 -103,47 -372,166 -598,264 -629,273 -729,318 -1020,458 -433,209 -610,305 -773,418 -35,24 -65,44 -67,44 -2,0 9,-21 25,-48 16,-26 39,-83 50,-127 28,-115 84,-260 115,-301 15,-20 61,-63 103,-97 42,-34 117,-96 167,-138 49,-41 173,-137 275,-213 102,-75 210,-156 240,-179 30,-23 77,-56 105,-73 27,-17 93,-58 146,-92 193,-122 502,-263 644,-292 33,-7 76,-17 95,-23 54,-17 329,-13 480,7 74,10 171,22 215,28 104,13 293,2 408,-23 96,-21 294,-86 343,-113 44,-23 43,-19 -2,22 z m -694,698 c -166,43 -320,102 -490,187 -200,99 -306,163 -768,466 -737,483 -986,607 -1253,626 l -74,5 105,-24 c 125,-28 220,-65 355,-138 108,-58 350,-215 455,-295 506,-385 647,-486 825,-590 312,-182 560,-260 830,-261 h 110 z m 147,500 c 6,16 -20,41 -99,94 -20,14 -105,81 -188,149 -186,154 -222,178 -363,246 -107,52 -206,79 -254,70 -10,-2 -30,-6 -46,-10 -103,-21 -82,-129 49,-241 111,-95 194,-143 295,-169 32,-8 116,-37 186,-64 144,-56 188,-69 288,-80 111,-13 125,-12 132,5 z m -7717,183 c 129,33 165,45 175,61 10,17 -13,75 -41,99 l -26,22 -107,-25 c -59,-14 -115,-26 -125,-26 -9,0 -43,17 -74,39 -276,187 -396,229 -587,205 -151,-18 -159,-24 -98,-82 66,-62 112,-76 245,-74 65,0 126,6 137,11 21,12 25,8 111,-109 25,-33 56,-68 70,-78 23,-15 172,-70 195,-71 6,0 62,12 125,28 z m 6570,107 c 0,6 -147,74 -158,73 -6,0 148,-79 155,-79 2,0 3,3 3,6 z m 1858,27 83,12 -134,127 c -196,185 -257,227 -377,262 -84,24 -241,46 -325,46 h -75 v 35 c 0,104 55,176 173,225 42,18 77,35 77,39 0,3 -37,15 -83,25 -112,26 -382,138 -632,263 -230,115 -455,174 -761,200 -92,7 -405,-13 -566,-37 -176,-27 -579,-123 -628,-150 -15,-9 -5,-14 215,-113 116,-53 378,-142 519,-178 282,-72 446,-89 1021,-109 320,-11 405,-23 405,-54 0,-24 -71,-102 -127,-140 -24,-15 -43,-31 -43,-35 0,-11 524,-279 648,-330 234,-98 391,-120 610,-88 z m -2173,125 c -6,5 -62,39 -125,77 -63,38 -167,103 -230,145 -244,163 -300,193 -430,234 -123,39 -283,63 -465,70 l -160,6 90,-35 c 50,-19 173,-58 275,-86 420,-115 711,-226 940,-358 99,-58 126,-71 105,-53 z m -5132,37 c 142,19 268,48 473,110 141,43 197,53 474,85 302,35 532,95 789,204 148,63 442,218 566,299 57,37 58,39 25,34 -19,-4 -120,-11 -225,-17 -317,-19 -540,-5 -1260,80 -465,56 -485,58 -731,75 -200,14 -242,14 -435,0 -164,-12 -241,-23 -329,-45 -182,-45 -212,-59 -235,-105 -44,-92 -24,-222 52,-335 45,-67 176,-200 261,-264 62,-47 189,-119 227,-129 43,-11 233,-6 348,8 z m -956,137 c -24,29 -57,73 -73,98 -26,40 -34,45 -69,47 -62,4 -191,31 -285,60 -116,36 -402,170 -595,280 -313,178 -583,319 -592,310 -2,-3 47,-56 109,-118 160,-161 371,-328 533,-422 38,-22 104,-60 145,-84 94,-54 323,-144 455,-179 99,-25 217,-40 348,-43 l 69,-1 z m -160,436 c -25,37 -55,97 -68,135 l -23,67 -110,62 c -61,34 -200,112 -308,174 -362,208 -560,296 -702,311 -49,5 -58,4 -51,-8 81,-135 407,-381 830,-626 203,-118 242,-137 375,-182 110,-37 119,-27 57,67 z m -2073,-7 c 59,26 72,53 42,91 -11,15 -31,41 -44,58 -17,22 -32,30 -55,30 -32,0 -217,-60 -217,-70 0,-3 22,-28 50,-55 46,-45 86,-63 171,-74 4,-1 28,8 53,20 z m 10099,213 c 70,18 154,51 290,116 106,51 196,96 201,100 10,10 -103,95 -170,126 l -50,24 -130,-29 c -71,-16 -165,-39 -209,-50 -74,-19 -272,-50 -425,-67 -36,-4 -57,-10 -48,-13 9,-3 32,-26 51,-51 43,-56 114,-115 164,-137 115,-48 189,-53 326,-19 z m -4690,211 c 9,20 17,37 17,39 0,3 -33,17 -72,32 -345,130 -602,241 -853,367 -496,248 -804,449 -1302,850 -208,166.9995 -409,332.9995 -532,438.9995 -184,160 -314,249 -333,230 -13,-13 11,-69 32,-75 14,-4 60,-72 60,-89 0,-2 -34,-2 -75,0 -41,2 -75,0 -75,-5 0,-22 93,-141 340,-433 245,-288.9995 622,-689.9995 900,-955.9995 l 200,-190 172,-57 c 336,-109 618,-167 812,-167 92,0 310,30 362,51 17,6 51,8 83,4 53,-7 189,-47 220,-65 24,-14 26,-13 44,25 z m 775,42 c -8,10 -91,110 -183,223 -146,178 -376,450 -526,624 -61,71 -244,239 -344,316 -100,78 -267,161.9995 -376,190.9995 -55,14 -132,24 -219,29 l -135,6 -80,44 c -44,23 -114,64 -155,90 -104,65 -205,120 -220,120 -21,0 -7,-117 20,-175 31,-65 197,-230.9995 310,-310.9995 132,-94 446,-282 685,-412 187,-101 629,-356 735,-423 109,-70 259,-173 384,-266 97,-71 135,-91 104,-56 z m -3715,37 c 54,14 97,35 97,47 0,3 -75,66 -167,140 -93,73 -190,154 -218,180 -79,73 -221,180 -330,249 -55,34 -111,70 -125,80 -123,84 -373,164 -549,175 l -104,7 33,-58 c 18,-33 45,-75 60,-94 15,-19 33,-46 40,-60 29,-53 163,-211 251,-294 227,-214 473,-338 749,-380 64,-9 214,-5 263,8 z m 1147,-1 c 0,2 -42,35 -92,73 -51,38 -216,170 -368,294 -676,551 -832,671 -1083,831 -118,75 -411,218.9995 -422,206.9995 -7,-7 51,-202.9995 79,-262.9995 75,-165 297,-392 527,-541 69,-45 111,-76 319,-236 202,-155 430,-284 541,-307 197,-40 499,-75 499,-58 z m 3691,46 c 63,22 251,71 419,110 296,69 384,94 635,181 163,56 686,306 925,442 107,60 248,140 312,176 64,37 115,68 113,70 -2,2 -74,-27 -162,-64 -245,-104 -541,-210 -696,-249 -92,-24 -244,-34 -260,-19 -3,4 11,29 32,58 20,28 62,87 91,131 84,125 162,201 250,242 62,29 95,37 200,49 190,21 184,23 -70,19 -352,-6 -482,-31 -681,-130 -143,-72 -214,-131 -554,-460 -184,-178 -358,-335 -475,-429 -209,-169 -206,-166 -199,-166 3,0 57,18 120,39 z m 2309,30 c 162,45 341,213 477,446 78,134 95,167 90,171 -2,3 -40,-7 -83,-20 -43,-14 -191,-59 -329,-100 -137,-41 -396,-125 -575,-186 -179,-61 -340,-116 -357,-122 -18,-6 -33,-15 -33,-18 0,-4 24,-11 53,-14 148,-20 304,-68 477,-150 70,-33 177,-35 280,-7 z m -860,156 c 16,9 19,14 9,15 -8,0 -24,-7 -35,-15 -24,-18 -7,-19 26,0 z m -3860,239 c 0,11 -437,383 -525,447 -55,40 -296,203 -535,361.9995 -444,296 -749,485 -866,538 l -66,29 17,-27 c 10,-16 37,-53 60,-83 23,-30 56,-77 74,-103 45,-66 275,-293 386,-381.9995 244,-194 580,-383 1125,-630 124,-56 248,-114 275,-128 55,-29 55,-29 55,-23 z m 1232,177 c -16,41 -51,139 -77,219 -26,80 -85,246 -130,370 -45,123.9995 -90,249.9995 -100,279.9995 -28,86 -177,399 -241,507 -72,122 -140,214 -235,319 -41,44 -101,113 -133,153 -76,92 -238,248 -307,294 -29,20 -55,35 -56,33 -2,-1 3,-16 9,-33 10,-27 8,-39 -16,-94 -16,-35 -31,-67 -35,-71 -4,-4 -28,29 -55,73 l -48,81 -2,121.001 c -4,180 -49,318 -163,489 -47,72 -182,222 -216,239 -17,10 -16,5 7,-33 56,-91 106,-214 175,-431 39,-123 76,-250 81,-283 13,-76.001 13,-256.001 0,-286.001 -13,-33 -51,-75 -56,-62 -19,46 -142,253 -212,359.001 -116,173 -235,297 -335,349 -41,21 -80,37 -86,35 -6,-2 91,-142 216,-310 126,-168.001 271,-368.001 323,-444.001 105,-152 149,-207 206,-257 32,-28 45,-33 93,-35 l 56,-1 27,-89 c 36,-119 57,-172 106,-273 167,-345 419,-654.9995 787,-968.9995 126,-108 433,-336 442,-328 2,3 -9,38 -25,78 z m 263,271 c 25,58 58,156 74,217 16,60 31,114 34,118 20,32.9995 95,488.9995 116,707.9995 39,398 45,540 46,970.001 v 440 h -30 c -26,0 -33,-7 -57,-55 -33,-68 -72,-188 -97,-300 -26,-117 -29,-138 -50,-316.001 -11,-85 -21,-157 -23,-160 -3,-2 -10,40 -17,94 -7,53 -30,179 -52,279.001 -33,154 -39,201 -39,300 0,124 13,224 36,286 16,43 18,55 5,41 -25,-25 -131,-334 -190,-549 -103,-380.001 -168,-727.001 -196,-1048.001 -20,-237 -19,-322 5,-415 39,-151 71,-221 289,-619.9995 85,-155 76,-156 146,10 z m 3426,154 c 17,8 29,18 26,20 -3,3 -20,-4 -38,-15 -40,-25 -31,-28 12,-5 z m -903,333.9995 c 100,27 214,63 254,80 100,43 289,139 311,158 17,15 23,65 11,97 -12,29 -83,58 -128,51 -68,-11 -405,-126 -492,-168 -96,-47 -209,-130 -235,-172 -22,-35 -25,-82 -6,-89 36,-15 119,-2 285,43 z m -4229,226 c -11,14 -10,18 5,29 35,26 4,78 -118,200 -110,110 -249,221 -439,349 -102,69 -215,131 -224,122 -13,-12 172,-240 279,-342 144,-139 263,-229 443,-338 68,-41 73,-43 54,-20 z m 1224,590 c -4,29 -12,213 -24,499 -19,491.001 -70,802.001 -153,933.001 -43,69 -50,69 -78,5 -62,-141 -101,-291 -118,-458 -12,-118 -44,-330 -54,-355 -4,-10 15,-43.001 51,-90.001 34,-45 76,-118 105,-183 69,-157 109,-223 184,-305 64,-71 91,-85 87,-46 z m -596,776.001 c 27,56 40,175 32,279 -7,86 -35,168 -114,335 -56,116 -114,184 -156,184 -38,0 -104,-50 -131,-99 -53,-93 -63,-150 -63,-345 v -178 l 43,-37 c 51,-42 330,-192 352,-188 8,1 25,23 37,49 z"
     id="path10"
     style="fill:none;stroke:#000000;stroke-width:32;stroke-miterlimit:4;stroke-dasharray:none;stroke-opacity:1" />
</svg>
