<?xml version="1.0" encoding="UTF-8" standalone="no"?>
<!-- Modified from MFEM logo - https://mfem.org/ - courtesy Tz. Kolev -->
<svg xml:space="preserve" enable-background="new -47.862 366.945 396 432" viewBox="-47.862 366.945 396 432"
  height="432px" width="396px" y="0px" x="0px" sodipodi:docname="mfem_logo.svg"
  inkscape:version="1.2.2 (b0a8486541, 2022-12-01)" id="mfem_logo" version="1.1"
  xmlns:inkscape="http://www.inkscape.org/namespaces/inkscape"
  xmlns:sodipodi="http://sodipodi.sourceforge.net/DTD/sodipodi-0.dtd" xmlns="http://www.w3.org/2000/svg"
  xmlns:svg="http://www.w3.org/2000/svg">
  <defs id="defs78" />
  <sodipodi:namedview id="namedview76" pagecolor="#ffffff" bordercolor="#000000" borderopacity="0.25"
    inkscape:showpageshadow="2" inkscape:pageopacity="0.0" inkscape:pagecheckerboard="0" inkscape:deskcolor="#d1d1d1"
    showgrid="false" inkscape:zoom="4.7546296" inkscape:cx="259.64167" inkscape:cy="77.398247"
    inkscape:window-width="3440" inkscape:window-height="1369" inkscape:window-x="-8" inkscape:window-y="-8"
    inkscape:window-maximized="1" inkscape:current-layer="mfem_logo" />
  <path id="boundary" fill="#00FF99" stroke="#000000" stroke-miterlimit="10"
    d="M327.678,465.535c-4.41-8.32-9.92-14.09-27.49-22.32  l-116.229-53.76c-10.13-4.68-17.32-6.5-25.66-6.5c-1.54,0-3.12,0.06-4.83,0.2c-1.71-0.14-3.29-0.2-4.83-0.2  c-8.34,0-15.53,1.82-25.66,6.51l-116.26,53.76c-17.46,8.19-23.01,13.94-27.4,22.2c-5.7,8.87-7.23,18.11-5.85,35.26l11.21,128.279  c1.39,15.87,7.03,25.091,9.16,28.561c0.24,0.39,0.43,0.689,0.55,0.92c0.01,0.01,0.01,0.03,0.02,0.04  c2.53,4.83,6.35,12.14,20.44,23.09c0.07,0.05,0.13,0.101,0.2,0.15l105.24,73.67c16.66,11.399,22.53,12.6,32.87,12.76  c0.03,0,0.051,0,0.08,0c0.08,0,0.15,0,0.23-0.01c0.03,0.01,0.07,0.01,0.1,0c0.04,0.01,0.09,0.01,0.13,0.01c0.03,0,0.051,0,0.08,0  c10.341-0.16,16.21-1.36,32.91-12.79l105.2-73.64c0.07-0.05,0.13-0.101,0.2-0.15c14.09-10.95,17.91-18.26,20.46-23.13  c0.12-0.23,0.31-0.53,0.55-0.92c2.12-3.47,7.771-12.69,9.16-28.561l11.21-128.319C334.848,483.605,333.338,474.365,327.678,465.535z  " />
  <g id="inner_right" fill="#F29898" stroke="#FFFFFF" stroke-miterlimit="10">
    <path id="path3"
      d="M243.397,519.935c0.57,2.14,0.96,5.26,0.75,10.06l-0.38,8.26   l-0.08,1.7l-16.13,9.52l0.68-20.86L243.397,519.935z" />
    <polygon id="polygon5" points="243.228,549.505 241.357,588.625 225.987,598.155    227.258,558.935  " />
    <path id="path7"
      d="M240.888,598.315l-0.36,7.5c-0.59,5.67-1.83,7.88-2.72,9.41   c-0.189,0.27-0.38,0.56-0.57,0.859c-1.119,1.761-2.52,3.94-9.84,8.71l-2.319,1.48l0.6-18.521L240.888,598.315z" />
    <polygon id="polygon9" points="220.078,533.285 219.397,554.295 184.888,574.665    185.157,553.275  " />
    <polygon id="polygon11" points="219.088,563.755 217.808,603.225 184.248,624.035    184.768,584.025  " />
    <polygon id="polygon13"
      points="217.498,612.825 216.897,631.495 216.897,631.504    183.888,652.575 184.128,633.525  " />
    <polygon id="polygon15" points="177.098,557.885 176.828,579.415 158.478,590.245    158.498,568.535  " />
    <polygon id="polygon17" points="176.708,588.785 176.188,629.044 158.447,640.044    158.478,599.544  " />
    <path id="path19"
      d="M176.067,638.525l-0.25,19.2l-8.35,5.33   c-3.54,2.189-6.42,3.6-9.04,4.37l0.01-17.971L176.067,638.525z" />
  </g>
  <g id="inner_left" fill="#DA5858" stroke="#FFFFFF" stroke-miterlimit="10">
    <path id="path22"
      d="M238.218,511.375l-15,8.59l-18.33-9.7l16.31-9.05l9.2,4.69   C234.237,507.965,236.647,509.835,238.218,511.375z" />
    <polygon id="polygon24"
      points="214.998,524.665 180.228,544.575 180.218,544.575    161.657,534.235 196.538,514.895  " />
    <polygon id="polygon26" points="177.828,479.115 212.598,496.835 196.447,505.795    161.938,487.515  " />
    <polygon id="polygon28" points="188.107,510.425 153.428,529.655 118.758,510.355    153.388,492.035  " />
    <polygon id="polygon30"
      points="172.118,549.215 153.508,559.875 153.498,559.875    134.778,549.145 153.418,538.805  " />
    <path id="path32"
      d="M169.107,474.675l-15.72,8.31l-15.66-8.3l2.06-1.05   c7.23-3.53,11.95-3.53,13.5-3.53c0.06,0,0.119,0,0.18-0.01c0.06,0.01,0.12,0.01,0.18,0.01c1.471,0,5.771,0,12.28,2.95   L169.107,474.675z" />
    <polygon id="polygon34" points="145.188,534.225 126.678,544.495 91.888,524.575    110.328,514.815  " />
    <polygon id="polygon36" points="144.838,487.505 110.417,505.715 94.397,496.795    129.018,479.125  " />
    <path id="path38"
      d="M101.988,510.175l-18.31,9.69h-0.01l-14.9-8.54   c1.57-1.53,3.97-3.38,7.77-5.42l9.28-4.73L101.988,510.175z" />
  </g>
  <g id="inner_top" fill="#881B1B" stroke="#FFFFFF" stroke-miterlimit="10">
    <polygon id="polygon41" points="148.498,568.535 148.478,590.315 129.897,579.335    129.578,557.695" />
    <polygon id="polygon43" points="148.478,599.605 148.447,640.175 130.628,629.155    130.038,588.705  " />
    <path id="path45"
      d="M148.438,649.575l-0.01,17.83c-2.59-0.77-5.44-2.16-8.91-4.31   l-8.47-5.41l-0.28-19.04L148.438,649.575z" />
    <polygon id="polygon47" points="122.688,633.655 122.968,652.525 89.928,631.425    89.328,613.015  " />
    <polygon id="polygon49" points="121.968,583.935 122.558,624.165 89.018,603.425    87.718,563.695  " />
    <polygon id="polygon51" points="121.518,553.075 121.828,574.565 87.408,554.235    86.728,533.135  " />
    <path id="path53"
      d="M81.158,607.964l0.59,18.24l-2.17-1.39   c-7.37-4.79-8.76-6.97-9.88-8.73c-0.17-0.26-0.34-0.52-0.51-0.77c-0.01-0.021-0.02-0.04-0.03-0.05c-1.09-1.86-2.71-4.71-3.06-13.75   l-0.14-2.95L81.158,607.964z" />
    <polygon id="polygon55" points="80.838,598.375 65.518,588.895 63.688,549.495    79.558,558.875  " />
    <path id="path57"
      d="M78.568,528.465l0.68,20.94l-16-9.45l-0.46-9.94   c-0.21-4.87,0.19-8.01,0.77-10.15L78.568,528.465z" />
  </g>
  <g id="outer_right" fill="#ACC9EE" stroke="#000000" stroke-miterlimit="10">
    <path id="path60"
      d="M321.418,474.915l-66.45,38.34l-1.82,1.05   c-0.18,0.14-0.359,0.26-0.56,0.37l-0.32,0.19c1.17,3.08,2.2,7.82,1.87,15.58l-0.25,5.36l-0.19,4.1l-2.869,62.07   c-0.07,1.76-0.19,3.359-0.341,4.8c-0.42,4.02-1.13,6.88-1.89,9l1.42,0.83l56.3,32.689c2.181-4.06,5.07-10.869,5.98-21.199   l11.21-128.291C324.548,486.845,323.678,480.085,321.418,474.915z" />
    <path id="path62"
      d="M245.138,625.325l-1.59-0.92c-1.92,2.3-4.891,4.99-10.73,8.79   l-9.17,5.85l-1.85,1.19l-0.101,0.06l-39.029,24.92l-9.87,6.301c-5.54,3.43-9.98,5.38-14.32,6.199v0.29l0.01,2.681l0.2,77.229   c5.49-0.6,10.51-2.689,22.311-10.77l105.05-73.54c8.78-6.84,12.859-11.79,15.29-15.63L245.138,625.325z" />
  </g>
  <g id="outer_top" fill="#6793CB" stroke="#000000" stroke-miterlimit="10">
    <path id="path65"
      d="M295.968,452.275l-116.21-53.74   c-8.61-3.98-14.59-5.55-21.271-5.58l0.051,65.1v2.41c3.979,0.57,8.05,1.85,12.3,3.86c0.229,0.1,0.46,0.21,0.689,0.32l49.87,25.44   l3.15,1.61l10.439,5.32c0.03,0.02,0.061,0.03,0.091,0.05c6.409,3.43,9.96,6.73,12.02,9.17l0.53-0.29l2.29-1.32l66.52-38.38   C313.447,462.125,308.518,458.165,295.968,452.275z" />
    <path id="path67"
      d="M127.167,398.535l-116.23,53.75   c-12.52,5.88-17.45,9.85-20.44,13.96l66.38,38.3l1.87,1.08l0.56,0.32l0.53,0.29c0.01-0.01,0.01-0.01,0.02-0.02   c2.06-2.44,5.61-5.73,12-9.15c0.03-0.02,0.06-0.03,0.09-0.05l10.48-5.35l43.01-21.93l9.89-5.05c4.56-2.22,8.86-3.62,13.07-4.22   v-2.44l0.05-65.07C141.768,392.985,135.788,394.555,127.167,398.535z" />
  </g>
  <g id="outer_left" fill="#164074" stroke="#000000" stroke-miterlimit="10">
    <path id="path70"
      d="M148.418,677.705c-4.32-0.819-8.75-2.76-14.22-6.149l-10.05-6.42   l-40.94-26.141l-9.05-5.78c-5.87-3.81-8.85-6.51-10.77-8.81l-1.69,0.98l-56.1,32.59c2.44,3.85,6.52,8.8,15.29,15.63l105.09,73.57   c11.77,8.06,16.78,10.149,22.271,10.739l0.199-77.16l0.011-2.189v-0.851C148.447,677.714,148.428,677.705,148.418,677.705z" />
    <path id="path72"
      d="M56.098,601.945l-0.53-11.41l-2.25-48.8l-0.52-11.28   c-0.33-7.8,0.71-12.56,1.88-15.64l-0.18-0.1c-0.04-0.02-0.08-0.04-0.12-0.07l-2.47-1.42v-0.01l-66.39-38.3   c-2.26,5.17-3.13,11.94-2.09,24.93l11.21,128.25c0.91,10.33,3.8,17.14,5.98,21.199l56.14-32.6l1.59-0.92   C57.308,612.875,56.358,608.625,56.098,601.945z" />
  </g>
</svg>