<?xml version="1.0" encoding="UTF-8" standalone="no"?>
<!-- Modified from MFEM logo - https://mfem.org/ - courtesy Tz. Kolev -->
<svg version="1.1" id="mfem_logo_simp" sodipodi:docname="mfem_logo_simp.svg"
  inkscape:version="1.2.2 (b0a8486541, 2022-12-01)" x="0px" y="0px" width="396pt" height="432pt"
  viewBox="-43.862 349.445 396 432" enable-background="new -43.862 349.445 396 432" xml:space="preserve"
  xmlns:inkscape="http://www.inkscape.org/namespaces/inkscape"
  xmlns:sodipodi="http://sodipodi.sourceforge.net/DTD/sodipodi-0.dtd" xmlns="http://www.w3.org/2000/svg"
  xmlns:svg="http://www.w3.org/2000/svg">
  <defs id="defs26" />
  <sodipodi:namedview id="namedview24" pagecolor="#ffffff" bordercolor="#000000" borderopacity="0.25"
    inkscape:showpageshadow="2" inkscape:pageopacity="0.0" inkscape:pagecheckerboard="0" inkscape:deskcolor="#d1d1d1"
    showgrid="false" inkscape:zoom="1.1886574" inkscape:cx="78.660175" inkscape:cy="267.10808"
    inkscape:window-width="1869" inkscape:window-height="1230" inkscape:window-x="893" inkscape:window-y="24"
    inkscape:window-maximized="0" inkscape:current-layer="mfem_logo_small" inkscape:document-units="pt" />
  <path id="background" fill="#33CC00" stroke="#000000" stroke-linecap="round" stroke-linejoin="round"
    stroke-miterlimit="10"
    d="  M331.442,458.559c-4.408-8.331-9.922-14.099-27.502-22.346l-116.234-53.753c-10.131-4.68-17.323-6.503-25.655-6.503  c-1.539,0-3.131,0.07-4.833,0.2c-1.702-0.13-3.295-0.2-4.833-0.2c-8.333,0-15.526,1.823-25.658,6.504L10.469,436.224  c-17.556,8.236-23.069,14.004-27.478,22.335c-5.633,8.827-7.15,18.06-5.776,35.121l11.214,128.287  c1.389,15.864,7.032,25.084,9.156,28.552c0.239,0.394,0.432,0.695,0.55,0.923c0.004,0.007,0.01,0.014,0.014,0.021  c0.003,0.005,0.004,0.012,0.008,0.019c2.527,4.835,6.346,12.14,20.442,23.09c0.065,0.051,0.132,0.102,0.2,0.149l105.24,73.677  c16.654,11.4,22.524,12.599,32.871,12.754c0.025,0.003,0.051,0.003,0.076,0.003c0.078,0,0.153-0.021,0.231-0.024  c0.077,0.004,0.152,0.024,0.23,0.024c0.025,0,0.051,0,0.076-0.003c10.347-0.155,16.217-1.354,32.914-12.783l105.196-73.647  c0.068-0.048,0.135-0.099,0.2-0.149c14.098-10.95,17.916-18.258,20.464-23.13c0.001-0.003,0.001-0.004,0.002-0.007  c0.118-0.225,0.311-0.526,0.548-0.916c2.124-3.468,7.767-12.688,9.156-28.552l11.217-128.321  C338.594,476.619,337.077,467.386,331.442,458.559z"
    style="marker-mid:" />
  <g id="inner" style="stroke:#FFFFFF;stroke-linecap:round;stroke-linejoin:round;stroke-miterlimit=10">
    <path fill="#881B1B" id="path3"
      d="m 66.541,523.013 c -0.209,-4.873 0.196,-8.002 0.775,-10.146 l 84.93,48.666 -0.067,98.865 c -2.593,-0.779 -5.432,-2.159 -8.906,-4.308 L 83.324,617.815 c -7.36,-4.791 -8.755,-6.975 -9.877,-8.729 -0.189,-0.297 -0.374,-0.573 -0.561,-0.85 -1.089,-1.867 -2.693,-4.732 -3.042,-13.719 z" />
    <path fill="#F29898" id="path5"
      d="m 171.223,656.052 c -3.547,2.195 -6.424,3.595 -9.044,4.366 l 0.067,-98.884 84.894,-48.595 c 0.568,2.14 0.962,5.248 0.756,10.055 l -0.413,8.938 -3.214,67.102 c -0.616,5.52 -1.834,7.687 -2.72,9.204 -0.186,0.275 -0.37,0.553 -0.558,0.847 -1.122,1.754 -2.518,3.937 -9.841,8.706 z" />
    <path fill="#DA5858" id="path7"
      d="m 234.176,498.917 c 3.835,2.064 6.234,3.924 7.802,5.456 l -84.729,48.5 -84.736,-48.554 c 1.572,-1.525 3.968,-3.373 7.776,-5.419 l 63.252,-32.265 c 7.23,-3.528 11.945,-3.528 13.495,-3.528 0.062,0 0.119,-0.016 0.181,-0.018 0.061,0.002 0.118,0.018 0.18,0.018 1.49,0 5.908,0.009 12.595,3.104 z" />
  </g>
  <g id="outer" transform="translate(-603.28073,241.6046)"
    style="stroke:#000000;stroke-linecap:round;stroke-linejoin:round;stroke-miterlimit:10">
    <path fill="#164074" id="path10"
      d="M661.533,266.113   c-0.042-0.023-0.084-0.046-0.126-0.07l-68.859-39.731c-2.256,5.171-3.133,11.936-2.086,24.928l11.211,128.253   c0.904,10.327,3.792,17.136,5.978,21.198l57.724-33.525c-1.039-2.894-1.982-7.146-2.241-13.828l-3.302-71.483   c-0.334-7.804,0.709-12.562,1.882-15.643L661.533,266.113z" />
    <path fill="#164074" id="path12"
      d="M681.185,384.614   c-5.864-3.816-8.846-6.513-10.768-8.813l-57.792,33.566c2.441,3.851,6.521,8.802,15.292,15.629l105.094,73.577   c11.768,8.055,16.779,10.143,22.269,10.732l0.206-80.196c-4.332-0.819-8.767-2.763-14.255-6.157L681.185,384.614z" />
    <path fill="#6793CB" id="path14"
      d="M617.972,203.684   c-12.527,5.877-17.453,9.841-20.441,13.957l68.812,39.704l0.523,0.282c2.063-2.439,5.615-5.733,12.021-9.168   c0.03-0.017,0.061-0.032,0.091-0.048l63.38-32.328c4.56-2.225,8.865-3.619,13.068-4.226l0.048-67.505   c-6.673,0.029-12.659,1.603-21.271,5.581L617.972,203.684z" />
    <path fill="#ACC9EE" id="path16"
      d="M919.324,379.492   l11.214-128.287c1.045-12.965,0.167-19.723-2.089-24.894l-68.859,39.731c-0.042,0.024-0.084,0.048-0.126,0.07l-0.181,0.097   c1.174,3.081,2.217,7.834,1.883,15.626l-3.304,71.538c-0.258,6.659-1.2,10.902-2.238,13.791l57.723,33.525   C915.531,396.627,918.419,389.819,919.324,379.492z" />
    <path fill="#ACC9EE" id="path18"
      d="M839.848,384.591   l-60.023,38.322c-5.532,3.424-9.979,5.375-14.315,6.195l0.001,0.291l0.205,79.905c5.491-0.592,10.511-2.685,22.313-10.763   l105.05-73.547c8.783-6.837,12.861-11.79,15.293-15.629L850.579,375.8C848.66,378.101,845.686,380.792,839.848,384.591z" />
    <path fill="#6793CB" id="path20"
      d="M786.791,149.932   c-8.61-3.977-14.596-5.55-21.269-5.58l0.048,67.504c4.198,0.605,8.486,1.99,12.987,4.187l63.459,32.368   c0.031,0.016,0.062,0.031,0.092,0.048c6.406,3.436,9.959,6.729,12.021,9.168l0.523-0.282l68.812-39.704   c-2.99-4.117-7.919-8.082-20.467-13.968L786.791,149.932z" />
  </g>
</svg>